Georama-iXCn-XBk.ufo
<glyph name="dollar" format="2">
	<advance width="420"/>
	<unicode hex="0024"/>
	<outline>
		<contour>
			<point x="427" y="674" type="line"/>
			<point x="409" y="686"/>
			<point x="375" y="699"/>
			<point x="339" y="705" type="curve"/>
			<point x="354" y="803" type="line"/>
			<point x="209" y="803" type="line"/>
			<point x="191" y="693" type="line"/>
			<point x="106" y="660"/>
			<point x="59" y="582"/>
			<point x="59" y="494" type="curve" smooth="yes"/>
			<point x="59" y="310"/>
			<point x="215" y="272"/>
			<point x="215" y="204" type="curve" smooth="yes"/>
			<point x="215" y="170"/>
			<point x="195" y="155"/>
			<point x="159" y="155" type="curve" smooth="yes"/>
			<point x="124" y="155"/>
			<point x="90" y="165"/>
			<point x="44" y="185" type="curve"/>
			<point x="-9" y="32" type="line"/>
			<point x="19" y="13"/>
			<point x="52" y="2"/>
			<point x="81" y="-4" type="curve"/>
			<point x="66" y="-105" type="line"/>
			<point x="211" y="-105" type="line"/>
			<point x="226" y="-1" type="line"/>
			<point x="328" y="28"/>
			<point x="376" y="120"/>
			<point x="376" y="206" type="curve" smooth="yes"/>
			<point x="376" y="390"/>
			<point x="229" y="419"/>
			<point x="229" y="490" type="curve" smooth="yes"/>
			<point x="229" y="521"/>
			<point x="252" y="536"/>
			<point x="291" y="536" type="curve" smooth="yes"/>
			<point x="305" y="536"/>
			<point x="336" y="532"/>
			<point x="372" y="515" type="curve"/>
		</contour>
	</outline>
</glyph>
<glyph name="ampersand" format="2">
	<advance width="503"/>
	<unicode hex="0026"/>
	<outline>
		<contour>
			<point x="218" y="-10" type="curve" smooth="yes"/>
			<point x="389" y="-10"/>
			<point x="495" y="154"/>
			<point x="427" y="295" type="curve"/>
			<point x="297" y="278" type="line"/>
			<point x="366" y="213"/>
			<point x="303" y="149"/>
			<point x="245" y="149" type="curve" smooth="yes"/>
			<point x="184" y="149"/>
			<point x="156" y="188"/>
			<point x="156" y="243" type="curve" smooth="yes"/>
			<point x="156" y="302"/>
			<point x="190" y="364"/>
			<point x="247" y="364" type="curve" smooth="yes"/>
			<point x="261" y="364" type="line"/>
			<point x="290" y="483" type="line"/>
			<point x="271" y="487" type="line" smooth="yes"/>
			<point x="240" y="493"/>
			<point x="231" y="508"/>
			<point x="231" y="524" type="curve" smooth="yes"/>
			<point x="231" y="547"/>
			<point x="251" y="558"/>
			<point x="269" y="558" type="curve" smooth="yes"/>
			<point x="288" y="558"/>
			<point x="304" y="556"/>
			<point x="325" y="542" type="curve"/>
			<point x="397" y="678" type="line"/>
			<point x="349" y="699"/>
			<point x="309" y="710"/>
			<point x="252" y="710" type="curve" smooth="yes"/>
			<point x="144" y="710"/>
			<point x="80" y="628"/>
			<point x="80" y="546" type="curve" smooth="yes"/>
			<point x="80" y="500"/>
			<point x="97" y="468"/>
			<point x="142" y="430" type="curve"/>
			<point x="62" y="400"/>
			<point x="1" y="328"/>
			<point x="1" y="203" type="curve" smooth="yes"/>
			<point x="1" y="87"/>
			<point x="72" y="-10"/>
		</contour>
		<contour>
			<point x="292" y="199" type="line"/>
			<point x="292" y="231"/>
			<point x="299" y="254"/>
			<point x="325" y="254" type="curve" smooth="yes"/>
			<point x="353" y="254"/>
			<point x="384" y="254"/>
			<point x="406" y="254" type="curve" smooth="yes"/>
			<point x="482" y="254"/>
			<point x="531" y="341"/>
			<point x="508" y="422" type="curve"/>
			<point x="409" y="422" type="line"/>
			<point x="407" y="362"/>
			<point x="385" y="356"/>
			<point x="338" y="356" type="curve" smooth="yes"/>
			<point x="326" y="356"/>
			<point x="314" y="356"/>
			<point x="302" y="356" type="curve" smooth="yes"/>
			<point x="213" y="356"/>
			<point x="189" y="279"/>
			<point x="189" y="214" type="curve"/>
		</contour>
	</outline>
</glyph>
<glyph name="quotesingle" format="2">
	<advance width="187"/>
	<unicode hex="0027"/>
	<outline>
		<contour>
			<point x="45" y="427" type="line"/>
			<point x="185" y="427" type="line"/>
			<point x="238" y="700" type="line"/>
			<point x="83" y="700" type="line"/>
		</contour>
	</outline>
</glyph>
<glyph name="parenright" format="2">
	<advance width="239"/>
	<unicode hex="0029"/>
	<outline>
		<contour>
			<point x="235" y="490" type="curve" smooth="yes"/>
			<point x="235" y="643"/>
			<point x="191" y="734"/>
			<point x="89" y="750" type="curve"/>
			<point x="62" y="592" type="line"/>
			<point x="89" y="573"/>
			<point x="104" y="548"/>
			<point x="104" y="478" type="curve" smooth="yes"/>
			<point x="104" y="382"/>
			<point x="49" y="-61"/>
			<point x="-44" y="-62" type="curve"/>
			<point x="-69" y="-220" type="line"/>
			<point x="170" y="-220"/>
			<point x="235" y="254"/>
		</contour>
	</outline>
</glyph>
<glyph name="asterisk" format="2">
	<advance width="320"/>
	<unicode hex="002A"/>
	<outline>
		<contour>
			<point x="125" y="428" type="line"/>
			<point x="194" y="493" type="line"/>
			<point x="241" y="428" type="line"/>
			<point x="309" y="474" type="line"/>
			<point x="281" y="552" type="line"/>
			<point x="364" y="591" type="line"/>
			<point x="353" y="668" type="line"/>
			<point x="268" y="652" type="line"/>
			<point x="272" y="740" type="line"/>
			<point x="196" y="740" type="line"/>
			<point x="170" y="652" type="line"/>
			<point x="93" y="668" type="line"/>
			<point x="56" y="591" type="line"/>
			<point x="122" y="552" type="line"/>
			<point x="71" y="474" type="line"/>
		</contour>
	</outline>
</glyph>
<glyph name="plus" format="2">
	<advance width="387"/>
	<unicode hex="002B"/>
	<outline>
		<contour>
			<point x="104" y="163" type="line"/>
			<point x="248" y="163" type="line"/>
			<point x="262" y="251" type="line"/>
			<point x="341" y="251" type="line"/>
			<point x="366" y="411" type="line"/>
			<point x="287" y="411" type="line"/>
			<point x="301" y="499" type="line"/>
			<point x="157" y="499" type="line"/>
			<point x="143" y="411" type="line"/>
			<point x="64" y="411" type="line"/>
			<point x="39" y="251" type="line"/>
			<point x="118" y="251" type="line"/>
		</contour>
	</outline>
</glyph>
<glyph name="hyphen" format="2">
  <advance width="303"/>
  <unicode hex="002D"/>
  <outline>
    <contour>
      <point x="27" y="234" type="line"/>
      <point x="262" y="234" type="line"/>
      <point x="291" y="408" type="line"/>
      <point x="56" y="408" type="line"/>
    </contour>
  </outline>
</glyph>
<glyph name="period" format="2">
	<advance width="190"/>
	<unicode hex="002E"/>
	<outline>
		<contour>
			<point x="-22" y="70" type="curve" smooth="yes"/>
			<point x="-22" y="18"/>
			<point x="0" y="-7"/>
			<point x="51" y="-7" type="curve" smooth="yes"/>
			<point x="136" y="-7"/>
			<point x="160" y="88"/>
			<point x="160" y="153" type="curve" smooth="yes"/>
			<point x="160" y="203"/>
			<point x="138" y="228"/>
			<point x="88" y="228" type="curve" smooth="yes"/>
			<point x="4" y="228"/>
			<point x="-22" y="135"/>
		</contour>
	</outline>
</glyph>
<glyph name="slash" format="2">
	<advance width="368"/>
	<unicode hex="002F"/>
	<outline>
		<contour>
			<point x="-87" y="-210" type="line"/>
			<point x="51" y="-210" type="line"/>
			<point x="452" y="740" type="line"/>
			<point x="312" y="740" type="line"/>
		</contour>
	</outline>
</glyph>
<glyph name="zero" format="2">
	<advance width="420"/>
	<unicode hex="0030"/>
	<outline>
		<contour>
			<point x="174" y="-10" type="curve" smooth="yes"/>
			<point x="368" y="-10"/>
			<point x="426" y="288"/>
			<point x="426" y="507" type="curve" smooth="yes"/>
			<point x="426" y="644"/>
			<point x="378" y="710"/>
			<point x="269" y="710" type="curve" smooth="yes"/>
			<point x="85" y="710"/>
			<point x="17" y="412"/>
			<point x="17" y="193" type="curve" smooth="yes"/>
			<point x="17" y="56"/>
			<point x="65" y="-10"/>
		</contour>
		<contour>
			<point x="194" y="161" type="curve" smooth="yes"/>
			<point x="183" y="161"/>
			<point x="178" y="166"/>
			<point x="178" y="187" type="curve" smooth="yes"/>
			<point x="178" y="266"/>
			<point x="219" y="539"/>
			<point x="254" y="539" type="curve" smooth="yes"/>
			<point x="263" y="539"/>
			<point x="267" y="534"/>
			<point x="267" y="516" type="curve" smooth="yes"/>
			<point x="267" y="445"/>
			<point x="223" y="161"/>
		</contour>
	</outline>
</glyph>
<glyph name="one" format="2">
	<advance width="420"/>
	<unicode hex="0031"/>
	<outline>
		<contour>
			<point x="25" y="0" type="line"/>
			<point x="324" y="0" type="line"/>
			<point x="350" y="160" type="line"/>
			<point x="286" y="160" type="line"/>
			<point x="373" y="700" type="line"/>
			<point x="293" y="700" type="line"/>
			<point x="112" y="650" type="line"/>
			<point x="112" y="465" type="line"/>
			<point x="177" y="481" type="line"/>
			<point x="124" y="160" type="line"/>
			<point x="50" y="160" type="line"/>
		</contour>
	</outline>
</glyph>
<glyph name="two" format="2">
	<advance width="420"/>
	<unicode hex="0032"/>
	<outline>
		<contour>
			<point x="30" y="131" type="curve"/>
			<point x="9" y="0" type="line"/>
			<point x="318" y="0" type="line"/>
			<point x="342" y="143" type="line"/>
			<point x="200" y="143" type="line"/>
			<point x="307" y="276"/>
			<point x="403" y="393"/>
			<point x="403" y="543" type="curve" smooth="yes"/>
			<point x="403" y="646"/>
			<point x="354" y="710"/>
			<point x="267" y="710" type="curve" smooth="yes"/>
			<point x="198" y="710"/>
			<point x="139" y="685"/>
			<point x="90" y="650" type="curve"/>
			<point x="118" y="466" type="line"/>
			<point x="140" y="480"/>
			<point x="162" y="493"/>
			<point x="188" y="493" type="curve" smooth="yes"/>
			<point x="213" y="493"/>
			<point x="221" y="473"/>
			<point x="221" y="458" type="curve" smooth="yes"/>
			<point x="221" y="371"/>
			<point x="77" y="190"/>
		</contour>
	</outline>
</glyph>
<glyph name="five" format="2">
	<advance width="420"/>
	<unicode hex="0035"/>
	<outline>
		<contour>
			<point x="-10" y="29" type="line"/>
			<point x="26" y="3"/>
			<point x="67" y="-10"/>
			<point x="135" y="-10" type="curve" smooth="yes"/>
			<point x="300" y="-10"/>
			<point x="376" y="134"/>
			<point x="376" y="279" type="curve" smooth="yes"/>
			<point x="376" y="386"/>
			<point x="330" y="427"/>
			<point x="265" y="433" type="curve" smooth="yes"/>
			<point x="244" y="435" type="line"/>
			<point x="269" y="527" type="line"/>
			<point x="402" y="527" type="line"/>
			<point x="428" y="700" type="line"/>
			<point x="166" y="700" type="line"/>
			<point x="66" y="293" type="line"/>
			<point x="71" y="280" type="line"/>
			<point x="146" y="280" type="line" smooth="yes"/>
			<point x="184" y="280"/>
			<point x="202" y="267"/>
			<point x="202" y="226" type="curve" smooth="yes"/>
			<point x="202" y="196"/>
			<point x="183" y="165"/>
			<point x="127" y="165" type="curve" smooth="yes"/>
			<point x="92" y="165"/>
			<point x="68" y="173"/>
			<point x="47" y="184" type="curve"/>
		</contour>
	</outline>
</glyph>
<glyph name="six" format="2">
	<advance width="420"/>
	<unicode hex="0036"/>
	<note>
		14
  </note>
	<outline>
		<contour>
			<point x="186" y="-10" type="curve" smooth="yes"/>
			<point x="321" y="-10"/>
			<point x="396" y="132"/>
			<point x="396" y="328" type="curve" smooth="yes"/>
			<point x="396" y="431"/>
			<point x="350" y="465"/>
			<point x="300" y="465" type="curve" smooth="yes"/>
			<point x="260" y="465"/>
			<point x="234" y="452"/>
			<point x="202" y="423" type="curve"/>
			<point x="187" y="299" type="line"/>
			<point x="200" y="316"/>
			<point x="207" y="320"/>
			<point x="215" y="320" type="curve" smooth="yes"/>
			<point x="229" y="320"/>
			<point x="233" y="310"/>
			<point x="233" y="277" type="curve" smooth="yes"/>
			<point x="233" y="226"/>
			<point x="216" y="146"/>
			<point x="197" y="146" type="curve" smooth="yes"/>
			<point x="188" y="146"/>
			<point x="184" y="150"/>
			<point x="184" y="164" type="curve" smooth="yes"/>
			<point x="184" y="212"/>
			<point x="195" y="273"/>
			<point x="213" y="397" type="curve" smooth="yes"/>
			<point x="227" y="495"/>
			<point x="257" y="544"/>
			<point x="329" y="544" type="curve" smooth="yes"/>
			<point x="353" y="544"/>
			<point x="371" y="533"/>
			<point x="386" y="522" type="curve"/>
			<point x="455" y="670" type="line"/>
			<point x="440" y="686"/>
			<point x="388" y="710"/>
			<point x="330" y="710" type="curve" smooth="yes"/>
			<point x="115" y="710"/>
			<point x="26" y="465"/>
			<point x="26" y="191" type="curve" smooth="yes"/>
			<point x="26" y="40"/>
			<point x="82" y="-10"/>
		</contour>
	</outline>
</glyph>
<glyph name="less" format="2">
	<advance width="382"/>
	<unicode hex="003C"/>
	<outline>
		<contour>
			<point x="335" y="108" type="line"/>
			<point x="357" y="250" type="line"/>
			<point x="175" y="312" type="line"/>
			<point x="377" y="375" type="line"/>
			<point x="399" y="516" type="line"/>
			<point x="39" y="391" type="line"/>
			<point x="14" y="233" type="line"/>
		</contour>
	</outline>
</glyph>
<glyph name="equal" format="2">
  <advance width="345"/>
  <unicode hex="003D"/>
  <outline>
    <contour>
      <point x="302" y="281" type="line"/>
      <point x="46" y="281" type="line"/>
      <point x="23" y="121" type="line"/>
      <point x="279" y="121" type="line"/>
    </contour>
    <contour>
      <point x="333" y="504" type="line"/>
      <point x="78" y="504" type="line"/>
      <point x="54" y="344" type="line"/>
      <point x="310" y="344" type="line"/>
    </contour>
  </outline>
</glyph>
<glyph name="question" format="2">
	<advance width="355"/>
	<unicode hex="003F"/>
	<outline>
		<contour>
			<point x="81" y="259" type="line"/>
			<point x="224" y="259" type="line"/>
			<point x="236" y="332" type="line"/>
			<point x="329" y="370"/>
			<point x="391" y="477"/>
			<point x="391" y="578" type="curve" smooth="yes"/>
			<point x="391" y="692"/>
			<point x="337" y="750"/>
			<point x="238" y="750" type="curve" smooth="yes"/>
			<point x="175" y="750"/>
			<point x="115" y="731"/>
			<point x="73" y="695" type="curve"/>
			<point x="108" y="531" type="line"/>
			<point x="130" y="549"/>
			<point x="147" y="560"/>
			<point x="162" y="560" type="curve" smooth="yes"/>
			<point x="188" y="560"/>
			<point x="199" y="543"/>
			<point x="199" y="523" type="curve" smooth="yes"/>
			<point x="199" y="469"/>
			<point x="142" y="429"/>
			<point x="103" y="410" type="curve"/>
		</contour>
		<contour>
			<point x="38" y="65" type="curve" smooth="yes"/>
			<point x="38" y="15"/>
			<point x="60" y="-10"/>
			<point x="109" y="-10" type="curve" smooth="yes"/>
			<point x="194" y="-10"/>
			<point x="219" y="81"/>
			<point x="219" y="147" type="curve" smooth="yes"/>
			<point x="219" y="199"/>
			<point x="198" y="225"/>
			<point x="149" y="225" type="curve" smooth="yes"/>
			<point x="63" y="225"/>
			<point x="38" y="132"/>
		</contour>
	</outline>
</glyph>
<glyph name="at" format="2">
	<advance width="764"/>
	<unicode hex="0040"/>
	<outline>
		<contour>
			<point x="336" y="-124" type="curve" smooth="yes"/>
			<point x="377" y="-124"/>
			<point x="457" y="-108"/>
			<point x="498" y="-88" type="curve"/>
			<point x="481" y="-21" type="line"/>
			<point x="432" y="-36"/>
			<point x="382" y="-45"/>
			<point x="337" y="-45" type="curve" smooth="yes"/>
			<point x="207" y="-45"/>
			<point x="102" y="20"/>
			<point x="102" y="212" type="curve" smooth="yes"/>
			<point x="102" y="389"/>
			<point x="215" y="633"/>
			<point x="437" y="633" type="curve" smooth="yes"/>
			<point x="595" y="633"/>
			<point x="672" y="550"/>
			<point x="672" y="382" type="curve" smooth="yes"/>
			<point x="672" y="317"/>
			<point x="664" y="152"/>
			<point x="575" y="152" type="curve" smooth="yes"/>
			<point x="528" y="152"/>
			<point x="523" y="184"/>
			<point x="536" y="234" type="curve" smooth="yes"/>
			<point x="611" y="520" type="line"/>
			<point x="562" y="546"/>
			<point x="508" y="563"/>
			<point x="438" y="563" type="curve" smooth="yes"/>
			<point x="249" y="563"/>
			<point x="175" y="313"/>
			<point x="175" y="169" type="curve" smooth="yes"/>
			<point x="175" y="82"/>
			<point x="214" y="39"/>
			<point x="276" y="39" type="curve" smooth="yes"/>
			<point x="326" y="39"/>
			<point x="363" y="75"/>
			<point x="399" y="113" type="curve"/>
			<point x="422" y="61"/>
			<point x="465" y="35"/>
			<point x="536" y="35" type="curve" smooth="yes"/>
			<point x="700" y="35"/>
			<point x="755" y="236"/>
			<point x="755" y="397" type="curve" smooth="yes"/>
			<point x="755" y="599"/>
			<point x="624" y="710"/>
			<point x="455" y="710" type="curve" smooth="yes"/>
			<point x="162" y="710"/>
			<point x="17" y="441"/>
			<point x="17" y="193" type="curve" smooth="yes"/>
			<point x="17" y="-7"/>
			<point x="134" y="-124"/>
		</contour>
		<contour>
			<point x="362" y="204" type="curve" smooth="yes"/>
			<point x="353" y="204"/>
			<point x="347" y="211"/>
			<point x="347" y="222" type="curve" smooth="yes"/>
			<point x="347" y="253"/>
			<point x="391" y="433"/>
			<point x="426" y="433" type="curve" smooth="yes"/>
			<point x="432" y="433"/>
			<point x="436" y="431"/>
			<point x="440" y="428" type="curve"/>
			<point x="384" y="213" type="line"/>
			<point x="377" y="208"/>
			<point x="369" y="204"/>
		</contour>
	</outline>
</glyph>
<glyph name="A" format="2">
	<advance width="415"/>
	<unicode hex="0041"/>
	<anchor x="369" y="0" name="ogonek"/>
	<anchor x="164" y="0" name="bottom"/>
	<anchor x="267" y="700" name="top"/>
	<outline>
		<contour>
			<point x="-42" y="0" type="line"/>
			<point x="126" y="0" type="line"/>
			<point x="148" y="96" type="line"/>
			<point x="208" y="96" type="line"/>
			<point x="199" y="0" type="line"/>
			<point x="369" y="0" type="line"/>
			<point x="398" y="700" type="line"/>
			<point x="139" y="700" type="line"/>
		</contour>
		<contour>
			<point x="184" y="256" type="line"/>
			<point x="251" y="577" type="line"/>
			<point x="224" y="256" type="line"/>
		</contour>
	</outline>
</glyph>
<glyph name="E" format="2">
  <advance width="334"/>
  <unicode hex="0045"/>
  <anchor x="280" y="0" name="ogonek"/>
  <anchor x="239" y="700" name="top"/>
  <anchor x="87.313" y="700" name="topleft"/>
  <anchor x="130" y="0" name="bottom"/>
  <outline>
    <contour>
      <point x="-21" y="0" type="line"/>
      <point x="280" y="0" type="line"/>
      <point x="305" y="158" type="line"/>
      <point x="165" y="158" type="line"/>
      <point x="183" y="274" type="line"/>
      <point x="292" y="274" type="line"/>
      <point x="317" y="422" type="line"/>
      <point x="207" y="422" type="line"/>
      <point x="225" y="537" type="line"/>
      <point x="356" y="537" type="line"/>
      <point x="383" y="700" type="line"/>
      <point x="89" y="700" type="line"/>
    </contour>
  </outline>
</glyph>
<glyph name="F" format="2">
  <advance width="326"/>
  <unicode hex="0046"/>
  <outline>
    <contour>
      <point x="-22" y="0" type="line"/>
      <point x="140" y="0" type="line"/>
      <point x="175" y="218" type="line"/>
      <point x="282" y="218" type="line"/>
      <point x="308" y="381" type="line"/>
      <point x="200" y="381" type="line"/>
      <point x="225" y="537" type="line"/>
      <point x="354" y="537" type="line"/>
      <point x="381" y="700" type="line"/>
      <point x="89" y="700" type="line"/>
    </contour>
  </outline>
</glyph>
<glyph name="I" format="2">
  <advance width="206"/>
  <unicode hex="0049"/>
  <anchor x="143.028" y="10" name="ogonek"/>
  <anchor x="170.313" y="700" name="top"/>
  <anchor x="87.313" y="700" name="topleft"/>
  <anchor x="59.444" y="0" name="bottom"/>
  <outline>
    <contour>
      <point x="-22" y="0" type="line"/>
      <point x="140" y="0" type="line"/>
      <point x="251" y="700" type="line"/>
      <point x="89" y="700" type="line"/>
    </contour>
  </outline>
</glyph>
<glyph name="J" format="2">
  <advance width="287"/>
  <unicode hex="004A"/>
  <anchor x="219" y="700" name="top"/>
  <anchor x="100.444" y="0" name="bottom"/>
  <outline>
    <contour>
      <point x="-39" y="24" type="line"/>
      <point x="-13" y="6"/>
      <point x="24" y="-10"/>
      <point x="81" y="-10" type="curve" smooth="yes"/>
      <point x="167" y="-10"/>
      <point x="232" y="60"/>
      <point x="254" y="195" type="curve" smooth="yes"/>
      <point x="334" y="700" type="line"/>
      <point x="104" y="700" type="line"/>
      <point x="80" y="550" type="line"/>
      <point x="148" y="550" type="line"/>
      <point x="103" y="268" type="line" smooth="yes"/>
      <point x="89" y="181"/>
      <point x="75" y="166"/>
      <point x="45" y="166" type="curve" smooth="yes"/>
      <point x="36" y="166"/>
      <point x="18" y="171"/>
      <point x="7" y="176" type="curve"/>
    </contour>
  </outline>
</glyph>
<glyph name="M" format="2">
  <advance width="503"/>
  <unicode hex="004D"/>
  <outline>
    <contour>
      <point x="-22" y="0" type="line"/>
      <point x="124" y="0" type="line"/>
      <point x="183" y="379" type="line"/>
      <point x="189" y="130" type="line"/>
      <point x="262" y="130" type="line"/>
      <point x="349" y="373" type="line"/>
      <point x="290" y="0" type="line"/>
      <point x="437" y="0" type="line"/>
      <point x="548" y="700" type="line"/>
      <point x="368" y="700" type="line"/>
      <point x="268" y="421" type="line"/>
      <point x="256" y="700" type="line"/>
      <point x="89" y="700" type="line"/>
    </contour>
  </outline>
</glyph>
<glyph name="N" format="2">
  <advance width="423"/>
  <unicode hex="004E"/>
  <anchor x="279" y="700" name="top"/>
  <anchor x="174" y="0" name="bottom"/>
  <outline>
    <contour>
      <point x="-22" y="0" type="line"/>
      <point x="123" y="0" type="line"/>
      <point x="170" y="288" type="line"/>
      <point x="194" y="0" type="line"/>
      <point x="357" y="0" type="line"/>
      <point x="468" y="700" type="line"/>
      <point x="323" y="700" type="line"/>
      <point x="269" y="377" type="line"/>
      <point x="252" y="700" type="line"/>
      <point x="89" y="700" type="line"/>
    </contour>
  </outline>
</glyph>
<glyph name="P" format="2">
  <advance width="406"/>
  <unicode hex="0050"/>
  <outline>
    <contour>
      <point x="-21" y="0" type="line"/>
      <point x="141" y="0" type="line"/>
      <point x="166" y="157" type="line"/>
      <point x="190" y="153"/>
      <point x="194" y="153"/>
      <point x="215" y="153" type="curve" smooth="yes"/>
      <point x="336" y="153"/>
      <point x="429" y="312"/>
      <point x="429" y="520" type="curve" smooth="yes"/>
      <point x="429" y="648"/>
      <point x="380" y="710"/>
      <point x="268" y="710" type="curve" smooth="yes"/>
      <point x="223" y="710"/>
      <point x="149" y="707"/>
      <point x="90" y="702" type="curve"/>
    </contour>
    <contour>
      <point x="229" y="552" type="line"/>
      <point x="235" y="554"/>
      <point x="241" y="555"/>
      <point x="246" y="555" type="curve" smooth="yes"/>
      <point x="264" y="555"/>
      <point x="271" y="537"/>
      <point x="271" y="494" type="curve" smooth="yes"/>
      <point x="271" y="413"/>
      <point x="235" y="308"/>
      <point x="205" y="308" type="curve" smooth="yes"/>
      <point x="200" y="308"/>
      <point x="196" y="308"/>
      <point x="190" y="310" type="curve"/>
    </contour>
  </outline>
</glyph>
<glyph name="Q" format="2">
  <advance width="417"/>
  <unicode hex="0051"/>
  <note>
14
</note>
  <outline>
    <contour>
      <point x="289" y="-161" type="curve" smooth="yes"/>
      <point x="306" y="-161"/>
      <point x="323" y="-159"/>
      <point x="337" y="-155" type="curve"/>
      <point x="357" y="-7" type="line"/>
      <point x="348" y="-10"/>
      <point x="336" y="-12"/>
      <point x="323" y="-12" type="curve" smooth="yes"/>
      <point x="282" y="-12"/>
      <point x="258" y="5"/>
      <point x="257" y="19" type="curve"/>
      <point x="129" y="19" type="line"/>
      <point x="124" y="-123"/>
      <point x="216" y="-161"/>
    </contour>
    <contour>
      <point x="184" y="-10" type="curve" smooth="yes"/>
      <point x="376" y="-10"/>
      <point x="428" y="288"/>
      <point x="428" y="507" type="curve" smooth="yes"/>
      <point x="428" y="644"/>
      <point x="386" y="710"/>
      <point x="257" y="710" type="curve" smooth="yes"/>
      <point x="65" y="710"/>
      <point x="13" y="412"/>
      <point x="13" y="193" type="curve" smooth="yes"/>
      <point x="13" y="56"/>
      <point x="55" y="-10"/>
    </contour>
    <contour>
      <point x="190" y="161" type="curve" smooth="yes"/>
      <point x="180" y="161"/>
      <point x="175" y="166"/>
      <point x="175" y="185" type="curve" smooth="yes"/>
      <point x="175" y="260"/>
      <point x="218" y="539"/>
      <point x="251" y="539" type="curve" smooth="yes"/>
      <point x="261" y="539"/>
      <point x="266" y="534"/>
      <point x="266" y="515" type="curve" smooth="yes"/>
      <point x="266" y="440"/>
      <point x="223" y="161"/>
    </contour>
  </outline>
</glyph>
<glyph name="T" format="2">
  <advance width="360"/>
  <unicode hex="0054"/>
  <anchor x="191.879" y="350" name="center"/>
  <anchor x="136.444" y="0" name="bottom"/>
  <anchor x="247.313" y="700" name="top"/>
  <outline>
    <contour>
      <point x="395" y="548" type="line"/>
      <point x="420" y="700" type="line"/>
      <point x="75" y="700" type="line"/>
      <point x="50" y="548" type="line"/>
      <point x="142" y="548" type="line"/>
      <point x="55" y="0" type="line"/>
      <point x="217" y="0" type="line"/>
      <point x="304" y="548" type="line"/>
    </contour>
  </outline>
</glyph>
<glyph name="U" format="2">
  <advance width="398"/>
  <unicode hex="0055"/>
  <anchor x="223" y="0" name="ogonek"/>
  <anchor x="266.313" y="700" name="top"/>
  <anchor x="415" y="700" name="topright"/>
  <anchor x="155.444" y="0" name="bottom"/>
  <outline>
    <contour>
      <point x="151" y="-10" type="curve" smooth="yes"/>
      <point x="277" y="-10"/>
      <point x="342" y="55"/>
      <point x="366" y="204" type="curve" smooth="yes"/>
      <point x="445" y="700" type="line"/>
      <point x="283" y="700" type="line"/>
      <point x="199" y="166" type="line" smooth="yes"/>
      <point x="197" y="149"/>
      <point x="191" y="143"/>
      <point x="178" y="143" type="curve" smooth="yes"/>
      <point x="166" y="143"/>
      <point x="162" y="151"/>
      <point x="165" y="166" type="curve" smooth="yes"/>
      <point x="250" y="700" type="line"/>
      <point x="88" y="700" type="line"/>
      <point x="9" y="204" type="line" smooth="yes"/>
      <point x="4" y="173"/>
      <point x="2" y="154"/>
      <point x="2" y="137" type="curve" smooth="yes"/>
      <point x="2" y="37"/>
      <point x="50" y="-10"/>
    </contour>
  </outline>
</glyph>
<glyph name="V" format="2">
	<advance width="431"/>
	<unicode hex="0056"/>
	<outline>
		<contour>
			<point x="275" y="0" type="line"/>
			<point x="409" y="300"/>
			<point x="461" y="452"/>
			<point x="489" y="677" type="curve" smooth="yes"/>
			<point x="490" y="685"/>
			<point x="491" y="692"/>
			<point x="491" y="700" type="curve"/>
			<point x="309" y="700" type="line"/>
			<point x="309" y="695"/>
			<point x="309" y="690"/>
			<point x="309" y="685" type="curve" smooth="yes"/>
			<point x="296" y="500"/>
			<point x="265" y="384"/>
			<point x="200" y="165" type="curve"/>
			<point x="257" y="700" type="line"/>
			<point x="66" y="700" type="line"/>
			<point x="51" y="0" type="line"/>
		</contour>
	</outline>
</glyph>
<glyph name="W" format="2">
	<advance width="624"/>
	<unicode hex="0057"/>
	<anchor x="378" y="700" name="top"/>
	<anchor x="265" y="0" name="bottom"/>
	<outline>
		<contour>
			<point x="497" y="0" type="line"/>
			<point x="637" y="444"/>
			<point x="673" y="563"/>
			<point x="681" y="682" type="curve"/>
			<point x="681" y="688"/>
			<point x="681" y="694"/>
			<point x="681" y="700" type="curve"/>
			<point x="506" y="700" type="line"/>
			<point x="506" y="694"/>
			<point x="506" y="689"/>
			<point x="506" y="684" type="curve"/>
			<point x="499" y="521"/>
			<point x="473" y="458"/>
			<point x="415" y="201" type="curve"/>
			<point x="459" y="653" type="line"/>
			<point x="290" y="653" type="line"/>
			<point x="268" y="508"/>
			<point x="225" y="310"/>
			<point x="189" y="200" type="curve"/>
			<point x="245" y="700" type="line"/>
			<point x="66" y="700" type="line"/>
			<point x="35" y="0" type="line"/>
			<point x="223" y="0" type="line"/>
			<point x="276" y="146"/>
			<point x="313" y="275"/>
			<point x="332" y="358" type="curve"/>
			<point x="298" y="0" type="line"/>
		</contour>
	</outline>
</glyph>
<glyph name="X" format="2">
	<advance width="440"/>
	<unicode hex="0058"/>
	<outline>
		<contour>
			<point x="216" y="0" type="line"/>
			<point x="402" y="0" type="line"/>
			<point x="369" y="347" type="line"/>
			<point x="468" y="619"/>
			<point x="489" y="640"/>
			<point x="489" y="700" type="curve"/>
			<point x="312" y="700" type="line"/>
			<point x="312" y="632"/>
			<point x="283" y="576"/>
			<point x="242" y="458" type="curve"/>
			<point x="249" y="700" type="line"/>
			<point x="69" y="700" type="line"/>
			<point x="83" y="350" type="line"/>
			<point x="14" y="166"/>
			<point x="-27" y="88"/>
			<point x="-27" y="0" type="curve"/>
			<point x="156" y="0" type="line"/>
			<point x="156" y="81"/>
			<point x="173" y="121"/>
			<point x="216" y="239" type="curve"/>
		</contour>
	</outline>
</glyph>
<glyph name="Y" format="2">
	<advance width="415"/>
	<unicode hex="0059"/>
	<anchor x="277" y="700" name="top"/>
	<anchor x="166" y="0" name="bottom"/>
	<anchor x="92" y="700" name="topleft"/>
	<outline>
		<contour>
			<point x="78" y="0" type="line"/>
			<point x="237" y="0" type="line"/>
			<point x="271" y="208" type="line"/>
			<point x="357" y="363"/>
			<point x="416" y="499"/>
			<point x="478" y="669" type="curve" smooth="yes"/>
			<point x="481" y="679"/>
			<point x="485" y="690"/>
			<point x="488" y="700" type="curve"/>
			<point x="300" y="700" type="line"/>
			<point x="299" y="691"/>
			<point x="297" y="681"/>
			<point x="295" y="672" type="curve" smooth="yes"/>
			<point x="272" y="570"/>
			<point x="254" y="469"/>
			<point x="221" y="370" type="curve"/>
			<point x="256" y="700" type="line"/>
			<point x="65" y="700" type="line"/>
			<point x="112" y="208" type="line"/>
		</contour>
	</outline>
</glyph>
<glyph name="Z" format="2">
	<advance width="369"/>
	<unicode hex="005A"/>
	<anchor x="197" y="350" name="center"/>
	<anchor x="141" y="0" name="bottom"/>
	<anchor x="252" y="700" name="top"/>
	<outline>
		<contour>
			<point x="-33" y="0" type="line"/>
			<point x="311" y="0" type="line"/>
			<point x="337" y="155" type="line"/>
			<point x="158" y="155" type="line"/>
			<point x="398" y="536" type="line"/>
			<point x="424" y="700" type="line"/>
			<point x="88" y="700" type="line"/>
			<point x="62" y="545" type="line"/>
			<point x="233" y="545" type="line"/>
			<point x="-8" y="159" type="line"/>
		</contour>
	</outline>
</glyph>
<glyph name="bracketleft" format="2">
	<advance width="239"/>
	<unicode hex="005B"/>
	<outline>
		<contour>
			<point x="94" y="-62" type="line"/>
			<point x="201" y="592" type="line"/>
			<point x="280" y="592" type="line"/>
			<point x="305" y="740" type="line"/>
			<point x="93" y="740" type="line"/>
			<point x="-64" y="-210" type="line"/>
			<point x="147" y="-210" type="line"/>
			<point x="173" y="-62" type="line"/>
		</contour>
	</outline>
</glyph>
<glyph name="backslash" format="2">
	<advance width="325"/>
	<unicode hex="005C"/>
	<outline>
		<contour>
			<point x="207" y="740" type="line"/>
			<point x="71" y="740" type="line"/>
			<point x="157" y="-210" type="line"/>
			<point x="292" y="-210" type="line"/>
		</contour>
	</outline>
</glyph>
<glyph name="bracketright" format="2">
  <advance width="239"/>
  <unicode hex="005D"/>
  <outline>
    <contour>
      <point x="-44" y="-62" type="line"/>
      <point x="-69" y="-210" type="line"/>
      <point x="142" y="-210" type="line"/>
      <point x="300" y="740" type="line"/>
      <point x="88" y="740" type="line"/>
      <point x="62" y="592" type="line"/>
      <point x="141" y="592" type="line"/>
      <point x="33" y="-62" type="line"/>
    </contour>
  </outline>
</glyph>
<glyph name="asciicircum" format="2">
	<advance width="388"/>
	<unicode hex="005E"/>
	<outline>
		<contour>
			<point x="46" y="242" type="line"/>
			<point x="158" y="242" type="line"/>
			<point x="232" y="516" type="line"/>
			<point x="221" y="242" type="line"/>
			<point x="332" y="242" type="line"/>
			<point x="332" y="700" type="line"/>
			<point x="181" y="700" type="line"/>
		</contour>
	</outline>
</glyph>
<glyph name="a" format="2">
  <advance width="402"/>
  <unicode hex="0061"/>
  <note>
15
</note>
  <anchor x="359" y="14" name="ogonek"/>
  <anchor x="166" y="0" name="bottom"/>
  <anchor x="242" y="550" name="top"/>
  <outline>
    <contour>
      <point x="279" y="-10" type="curve" smooth="yes"/>
      <point x="309" y="-10"/>
      <point x="342" y="0"/>
      <point x="359" y="14" type="curve"/>
      <point x="381" y="158" type="line"/>
      <point x="378" y="157"/>
      <point x="374" y="157"/>
      <point x="372" y="157" type="curve" smooth="yes"/>
      <point x="363" y="157"/>
      <point x="361" y="161"/>
      <point x="361" y="171" type="curve" smooth="yes"/>
      <point x="361" y="176"/>
      <point x="364" y="192"/>
      <point x="417" y="524" type="curve"/>
      <point x="369" y="543"/>
      <point x="312" y="560"/>
      <point x="248" y="560" type="curve" smooth="yes"/>
      <point x="102" y="560"/>
      <point x="5" y="424"/>
      <point x="5" y="152" type="curve" smooth="yes"/>
      <point x="5" y="52"/>
      <point x="45" y="-10"/>
      <point x="109" y="-10" type="curve" smooth="yes"/>
      <point x="145" y="-10"/>
      <point x="172" y="4"/>
      <point x="197" y="35" type="curve"/>
      <point x="216" y="2"/>
      <point x="238" y="-10"/>
    </contour>
    <contour>
      <point x="197" y="159" type="line"/>
      <point x="194" y="157"/>
      <point x="191" y="156"/>
      <point x="188" y="156" type="curve" smooth="yes"/>
      <point x="182" y="156"/>
      <point x="177" y="162"/>
      <point x="177" y="176" type="curve" smooth="yes"/>
      <point x="177" y="296"/>
      <point x="203" y="405"/>
      <point x="228" y="405" type="curve" smooth="yes"/>
      <point x="230" y="405"/>
      <point x="233" y="405"/>
      <point x="236" y="404" type="curve"/>
    </contour>
  </outline>
</glyph>
<glyph name="c" format="2">
	<advance width="323"/>
	<unicode hex="0063"/>
	<anchor x="239" y="550" name="top"/>
	<anchor x="143" y="0" name="bottom"/>
	<note>
		10
  </note>
	<outline>
		<contour>
			<point x="174" y="-10" type="curve" smooth="yes"/>
			<point x="208" y="-10"/>
			<point x="254" y="0"/>
			<point x="281" y="11" type="curve"/>
			<point x="263" y="173" type="line"/>
			<point x="249" y="171"/>
			<point x="237" y="170"/>
			<point x="221" y="170" type="curve" smooth="yes"/>
			<point x="189" y="170"/>
			<point x="180" y="197"/>
			<point x="180" y="235" type="curve" smooth="yes"/>
			<point x="180" y="310"/>
			<point x="205" y="380"/>
			<point x="257" y="380" type="curve" smooth="yes"/>
			<point x="273" y="380"/>
			<point x="286" y="378"/>
			<point x="303" y="371" type="curve"/>
			<point x="360" y="543" type="line"/>
			<point x="335" y="554"/>
			<point x="299" y="560"/>
			<point x="258" y="560" type="curve" smooth="yes"/>
			<point x="81" y="560"/>
			<point x="7" y="407"/>
			<point x="7" y="186" type="curve" smooth="yes"/>
			<point x="7" y="64"/>
			<point x="68" y="-10"/>
		</contour>
	</outline>
</glyph>
<glyph name="f" format="2">
	<advance width="254"/>
	<unicode hex="0066"/>
	<outline>
		<contour>
			<point x="-31" y="-220" type="curve" smooth="yes"/>
			<point x="83" y="-220"/>
			<point x="137" y="-151"/>
			<point x="161" y="0" type="curve" smooth="yes"/>
			<point x="221" y="379" type="line"/>
			<point x="263" y="379" type="line"/>
			<point x="287" y="529" type="line"/>
			<point x="245" y="529" type="line"/>
			<point x="252" y="576"/>
			<point x="262" y="583"/>
			<point x="282" y="583" type="curve" smooth="yes"/>
			<point x="292" y="583"/>
			<point x="304" y="580"/>
			<point x="317" y="575" type="curve"/>
			<point x="365" y="721" type="line"/>
			<point x="336" y="737"/>
			<point x="306" y="750"/>
			<point x="256" y="750" type="curve" smooth="yes"/>
			<point x="170" y="750"/>
			<point x="104" y="676"/>
			<point x="83" y="529" type="curve"/>
			<point x="44" y="522" type="line"/>
			<point x="20" y="379" type="line"/>
			<point x="59" y="379" type="line"/>
			<point x="0" y="2" type="line" smooth="yes"/>
			<point x="-7" y="-40"/>
			<point x="-22" y="-52"/>
			<point x="-41" y="-52" type="curve" smooth="yes"/>
			<point x="-48" y="-52"/>
			<point x="-58" y="-52"/>
			<point x="-72" y="-47" type="curve"/>
			<point x="-119" y="-202" type="line"/>
			<point x="-88" y="-214"/>
			<point x="-59" y="-220"/>
		</contour>
	</outline>
</glyph>
<glyph name="g" format="2">
  <advance width="399"/>
  <unicode hex="0067"/>
  <note>
16
</note>
  <anchor x="242" y="550" name="top"/>
  <anchor x="119" y="-220" name="bottom"/>
  <outline>
    <contour>
      <point x="-30" y="-180" type="line"/>
      <point x="25" y="-207"/>
      <point x="83" y="-220"/>
      <point x="119" y="-220" type="curve" smooth="yes"/>
      <point x="239" y="-220"/>
      <point x="309" y="-152"/>
      <point x="334" y="5" type="curve" smooth="yes"/>
      <point x="420" y="535" type="line"/>
      <point x="392" y="548"/>
      <point x="328" y="560"/>
      <point x="272" y="560" type="curve" smooth="yes"/>
      <point x="95" y="560"/>
      <point x="7" y="423"/>
      <point x="7" y="170" type="curve" smooth="yes"/>
      <point x="7" y="80"/>
      <point x="37" y="20"/>
      <point x="106" y="20" type="curve" smooth="yes"/>
      <point x="125" y="20"/>
      <point x="153" y="26"/>
      <point x="179" y="41" type="curve"/>
      <point x="175" y="2" type="line" smooth="yes"/>
      <point x="170" y="-44"/>
      <point x="147" y="-55"/>
      <point x="125" y="-55" type="curve" smooth="yes"/>
      <point x="101" y="-55"/>
      <point x="49" y="-42"/>
      <point x="20" y="-30" type="curve"/>
    </contour>
    <contour>
      <point x="238" y="411" type="curve"/>
      <point x="199" y="166" type="line"/>
      <point x="196" y="164"/>
      <point x="192" y="163"/>
      <point x="190" y="163" type="curve" smooth="yes"/>
      <point x="182" y="163"/>
      <point x="178" y="169"/>
      <point x="178" y="183" type="curve" smooth="yes"/>
      <point x="178" y="287"/>
      <point x="205" y="412"/>
      <point x="231" y="412" type="curve" smooth="yes"/>
      <point x="233" y="412"/>
      <point x="235" y="412"/>
    </contour>
  </outline>
</glyph>
<glyph name="j" format="2">
	<advance width="202"/>
	<unicode hex="006A"/>
	<note>
		idem /i
12
  </note>
	<outline>
		<contour>
			<point x="185" y="790" type="curve" smooth="yes"/>
			<point x="105" y="790"/>
			<point x="74" y="717"/>
			<point x="74" y="648" type="curve" smooth="yes"/>
			<point x="74" y="595"/>
			<point x="101" y="569"/>
			<point x="150" y="569" type="curve" smooth="yes"/>
			<point x="230" y="569"/>
			<point x="260" y="644"/>
			<point x="260" y="712" type="curve" smooth="yes"/>
			<point x="260" y="765"/>
			<point x="233" y="790"/>
		</contour>
		<contour>
			<point x="227" y="550" type="line"/>
			<point x="64" y="550" type="line"/>
			<point x="-23" y="8" type="line" smooth="yes"/>
			<point x="-30" y="-34"/>
			<point x="-44" y="-52"/>
			<point x="-63" y="-52" type="curve" smooth="yes"/>
			<point x="-71" y="-52"/>
			<point x="-81" y="-52"/>
			<point x="-94" y="-47" type="curve"/>
			<point x="-136" y="-204" type="line"/>
			<point x="-105" y="-216"/>
			<point x="-69" y="-220"/>
			<point x="-46" y="-220" type="curve" smooth="yes"/>
			<point x="68" y="-220"/>
			<point x="114" y="-152"/>
			<point x="139" y="5" type="curve" smooth="yes"/>
		</contour>
	</outline>
</glyph>
<glyph name="m" format="2">
  <advance width="584"/>
  <unicode hex="006D"/>
  <note>
24&gt;23 points
un point de trop dans la jointure avec 2e jambage
</note>
  <outline>
    <contour>
      <point x="460" y="-10" type="curve" smooth="yes"/>
      <point x="488" y="-10"/>
      <point x="522" y="0"/>
      <point x="540" y="15" type="curve"/>
      <point x="562" y="159" type="line"/>
      <point x="559" y="158"/>
      <point x="555" y="158"/>
      <point x="553" y="158" type="curve" smooth="yes"/>
      <point x="546" y="158"/>
      <point x="541" y="163"/>
      <point x="541" y="174" type="curve" smooth="yes"/>
      <point x="541" y="200"/>
      <point x="589" y="448"/>
      <point x="589" y="475" type="curve" smooth="yes"/>
      <point x="589" y="526"/>
      <point x="561" y="560"/>
      <point x="506" y="560" type="curve" smooth="yes"/>
      <point x="474" y="560"/>
      <point x="436" y="551"/>
      <point x="391" y="512" type="curve"/>
      <point x="381" y="543"/>
      <point x="356" y="560"/>
      <point x="318" y="560" type="curve" smooth="yes"/>
      <point x="284" y="560"/>
      <point x="247" y="551"/>
      <point x="204" y="514" type="curve"/>
      <point x="210" y="550" type="line"/>
      <point x="63" y="550" type="line"/>
      <point x="-24" y="0" type="line"/>
      <point x="138" y="0" type="line"/>
      <point x="200" y="388" type="line"/>
      <point x="205" y="392"/>
      <point x="212" y="395"/>
      <point x="218" y="395" type="curve" smooth="yes"/>
      <point x="225" y="395"/>
      <point x="227" y="391"/>
      <point x="227" y="385" type="curve" smooth="yes"/>
      <point x="227" y="378"/>
      <point x="191" y="162"/>
      <point x="164" y="0" type="curve"/>
      <point x="325" y="0" type="line"/>
      <point x="345" y="121"/>
      <point x="364" y="243"/>
      <point x="384" y="364" type="curve"/>
      <point x="385" y="371"/>
      <point x="387" y="382"/>
      <point x="388" y="388" type="curve"/>
      <point x="394" y="393"/>
      <point x="400" y="395"/>
      <point x="405" y="395" type="curve" smooth="yes"/>
      <point x="412" y="395"/>
      <point x="415" y="391"/>
      <point x="415" y="385" type="curve" smooth="yes"/>
      <point x="415" y="370"/>
      <point x="368" y="128"/>
      <point x="368" y="84" type="curve" smooth="yes"/>
      <point x="368" y="27"/>
      <point x="400" y="-10"/>
    </contour>
  </outline>
</glyph>
<glyph name="n" format="2">
	<advance width="394"/>
	<unicode hex="006E"/>
	<anchor x="237" y="550" name="top"/>
	<anchor x="163" y="0" name="bottom"/>
	<note>
		16
  </note>
	<outline>
		<contour>
			<point x="63" y="550" type="line"/>
			<point x="-24" y="0" type="line"/>
			<point x="138" y="0" type="line"/>
			<point x="201" y="388" type="line"/>
			<point x="207" y="393"/>
			<point x="211" y="395"/>
			<point x="217" y="395" type="curve" smooth="yes"/>
			<point x="224" y="395"/>
			<point x="227" y="391"/>
			<point x="227" y="385" type="curve" smooth="yes"/>
			<point x="227" y="359"/>
			<point x="180" y="128"/>
			<point x="180" y="76" type="curve" smooth="yes"/>
			<point x="180" y="34"/>
			<point x="212" y="-10"/>
			<point x="272" y="-10" type="curve" smooth="yes"/>
			<point x="300" y="-10"/>
			<point x="332" y="0"/>
			<point x="350" y="15" type="curve"/>
			<point x="372" y="159" type="line"/>
			<point x="369" y="158"/>
			<point x="365" y="158"/>
			<point x="363" y="158" type="curve" smooth="yes"/>
			<point x="356" y="158"/>
			<point x="351" y="160"/>
			<point x="351" y="168" type="curve" smooth="yes"/>
			<point x="351" y="176"/>
			<point x="400" y="441"/>
			<point x="400" y="469" type="curve" smooth="yes"/>
			<point x="400" y="528"/>
			<point x="371" y="560"/>
			<point x="317" y="560" type="curve" smooth="yes"/>
			<point x="283" y="560"/>
			<point x="246" y="551"/>
			<point x="203" y="514" type="curve"/>
			<point x="208" y="550" type="line"/>
		</contour>
	</outline>
</glyph>
<glyph name="r" format="2">
  <advance width="271"/>
  <unicode hex="0072"/>
  <anchor x="215" y="550" name="top"/>
  <anchor x="56" y="0" name="bottom"/>
  <outline>
    <contour>
      <point x="208" y="550" type="line"/>
      <point x="63" y="550" type="line"/>
      <point x="-24" y="0" type="line"/>
      <point x="135" y="0" type="line"/>
      <point x="193" y="356" type="line"/>
      <point x="208" y="365"/>
      <point x="219" y="367"/>
      <point x="233" y="367" type="curve" smooth="yes"/>
      <point x="239" y="367"/>
      <point x="255" y="366"/>
      <point x="266" y="362" type="curve"/>
      <point x="320" y="551" type="line"/>
      <point x="305" y="559"/>
      <point x="294" y="560"/>
      <point x="280" y="560" type="curve" smooth="yes"/>
      <point x="258" y="560"/>
      <point x="234" y="545"/>
      <point x="201" y="505" type="curve"/>
    </contour>
  </outline>
</glyph>
<glyph name="s" format="2">
	<advance width="334"/>
	<unicode hex="0073"/>
	<anchor x="221" y="550" name="top"/>
	<anchor x="127" y="0" name="bottom"/>
	<outline>
		<contour>
			<point x="-32" y="24" type="line"/>
			<point x="8" y="3"/>
			<point x="51" y="-10"/>
			<point x="123" y="-10" type="curve" smooth="yes"/>
			<point x="236" y="-10"/>
			<point x="318" y="52"/>
			<point x="318" y="201" type="curve" smooth="yes"/>
			<point x="318" y="375"/>
			<point x="173" y="342"/>
			<point x="173" y="381" type="curve" smooth="yes"/>
			<point x="173" y="393"/>
			<point x="185" y="398"/>
			<point x="210" y="398" type="curve" smooth="yes"/>
			<point x="238" y="398"/>
			<point x="276" y="390"/>
			<point x="308" y="377" type="curve"/>
			<point x="352" y="533" type="line"/>
			<point x="324" y="548"/>
			<point x="274" y="560"/>
			<point x="218" y="560" type="curve" smooth="yes"/>
			<point x="78" y="560"/>
			<point x="16" y="470"/>
			<point x="16" y="360" type="curve" smooth="yes"/>
			<point x="16" y="192"/>
			<point x="162" y="208"/>
			<point x="162" y="165" type="curve" smooth="yes"/>
			<point x="162" y="153"/>
			<point x="151" y="147"/>
			<point x="125" y="147" type="curve" smooth="yes"/>
			<point x="91" y="147"/>
			<point x="46" y="158"/>
			<point x="17" y="173" type="curve"/>
		</contour>
	</outline>
</glyph>
<glyph name="t" format="2">
	<advance width="251"/>
	<unicode hex="0074"/>
	<anchor x="102" y="0" name="bottom"/>
	<anchor x="186" y="654" name="top"/>
	<anchor x="307" y="765" name="topright"/>
	<anchor x="125" y="275" name="center"/>
	<outline>
		<contour>
			<point x="222" y="157" type="line"/>
			<point x="214" y="155"/>
			<point x="209" y="154"/>
			<point x="204" y="154" type="curve" smooth="yes"/>
			<point x="185" y="154"/>
			<point x="180" y="167"/>
			<point x="180" y="183" type="curve" smooth="yes"/>
			<point x="180" y="190"/>
			<point x="181" y="198"/>
			<point x="182" y="207" type="curve" smooth="yes"/>
			<point x="214" y="400" type="line"/>
			<point x="263" y="400" type="line"/>
			<point x="289" y="550" type="line"/>
			<point x="240" y="550" type="line"/>
			<point x="256" y="654" type="line"/>
			<point x="116" y="654" type="line"/>
			<point x="79" y="550" type="line"/>
			<point x="45" y="544" type="line"/>
			<point x="20" y="401" type="line"/>
			<point x="53" y="401" type="line"/>
			<point x="18" y="186" type="line" smooth="yes"/>
			<point x="13" y="155"/>
			<point x="8" y="111"/>
			<point x="8" y="88" type="curve" smooth="yes"/>
			<point x="8" y="6"/>
			<point x="63" y="-10"/>
			<point x="103" y="-10" type="curve" smooth="yes"/>
			<point x="142" y="-10"/>
			<point x="176" y="-2"/>
			<point x="202" y="15" type="curve"/>
		</contour>
	</outline>
</glyph>
<glyph name="v" format="2">
	<advance width="380"/>
	<unicode hex="0076"/>
	<outline>
		<contour>
			<point x="247" y="0" type="line"/>
			<point x="326" y="184"/>
			<point x="407" y="370"/>
			<point x="412" y="550" type="curve"/>
			<point x="245" y="550" type="line"/>
			<point x="245" y="410"/>
			<point x="206" y="290"/>
			<point x="165" y="165" type="curve"/>
			<point x="207" y="550" type="line"/>
			<point x="35" y="550" type="line"/>
			<point x="35" y="0" type="line"/>
		</contour>
	</outline>
</glyph>
<glyph name="w" format="2">
	<advance width="599"/>
	<unicode hex="0077"/>
	<anchor x="324" y="550" name="top"/>
	<anchor x="255" y="0" name="bottom"/>
	<note>
		15
  </note>
	<outline>
		<contour>
			<point x="469" y="0" type="line"/>
			<point x="558" y="218"/>
			<point x="628" y="386"/>
			<point x="629" y="550" type="curve"/>
			<point x="465" y="550" type="line"/>
			<point x="460" y="420"/>
			<point x="429" y="298"/>
			<point x="395" y="174" type="curve"/>
			<point x="430" y="550" type="line"/>
			<point x="248" y="550" type="line"/>
			<point x="221" y="424"/>
			<point x="194" y="299"/>
			<point x="167" y="173" type="curve"/>
			<point x="208" y="550" type="line"/>
			<point x="35" y="550" type="line"/>
			<point x="35" y="0" type="line"/>
			<point x="240" y="0" type="line"/>
			<point x="259" y="100"/>
			<point x="277" y="200"/>
			<point x="296" y="300" type="curve"/>
			<point x="274" y="0" type="line"/>
		</contour>
	</outline>
</glyph>
<glyph name="x" format="2">
	<advance width="426"/>
	<unicode hex="0078"/>
	<outline>
		<contour>
			<point x="278" y="550" type="line"/>
			<point x="278" y="482"/>
			<point x="259" y="441"/>
			<point x="222" y="362" type="curve"/>
			<point x="229" y="550" type="line"/>
			<point x="47" y="550" type="line"/>
			<point x="74" y="278" type="line"/>
			<point x="28" y="191"/>
			<point x="-19" y="101"/>
			<point x="-30" y="0" type="curve"/>
			<point x="149" y="0" type="line"/>
			<point x="156" y="67"/>
			<point x="176" y="132"/>
			<point x="203" y="192" type="curve"/>
			<point x="203" y="0" type="line"/>
			<point x="388" y="0" type="line"/>
			<point x="351" y="276" type="line"/>
			<point x="422" y="396"/>
			<point x="451" y="513"/>
			<point x="451" y="550" type="curve"/>
		</contour>
	</outline>
</glyph>
<glyph name="y" format="2">
  <advance width="380"/>
  <unicode hex="0079"/>
  <anchor x="227" y="550" name="top"/>
  <anchor x="349" y="0" name="bottom"/>
  <outline>
    <contour>
      <point x="245" y="550" type="line"/>
      <point x="244" y="414"/>
      <point x="211" y="305"/>
      <point x="165" y="165" type="curve"/>
      <point x="207" y="550" type="line"/>
      <point x="35" y="550" type="line"/>
      <point x="35" y="0" type="line"/>
      <point x="86" y="0" type="line"/>
      <point x="66" y="-57"/>
      <point x="37" y="-118"/>
      <point x="-14" y="-210" type="curve"/>
      <point x="151" y="-210" type="line"/>
      <point x="307" y="133"/>
      <point x="393" y="311"/>
      <point x="415" y="550" type="curve"/>
    </contour>
  </outline>
</glyph>
<glyph name="braceright" format="2">
  <advance width="239"/>
  <unicode hex="007D"/>
  <outline>
    <contour>
      <point x="253" y="617" type="curve" smooth="yes"/>
      <point x="253" y="707"/>
      <point x="209" y="741"/>
      <point x="156" y="741" type="curve" smooth="yes"/>
      <point x="87" y="741" type="line"/>
      <point x="61" y="593" type="line"/>
      <point x="73" y="593" type="line" smooth="yes"/>
      <point x="90" y="593"/>
      <point x="98" y="581"/>
      <point x="98" y="560" type="curve" smooth="yes"/>
      <point x="98" y="489"/>
      <point x="49" y="453"/>
      <point x="49" y="365" type="curve" smooth="yes"/>
      <point x="49" y="329"/>
      <point x="59" y="293"/>
      <point x="87" y="266" type="curve"/>
      <point x="32" y="220"/>
      <point x="4" y="159"/>
      <point x="4" y="92" type="curve" smooth="yes"/>
      <point x="4" y="67"/>
      <point x="7" y="43"/>
      <point x="7" y="20" type="curve" smooth="yes"/>
      <point x="7" y="-10"/>
      <point x="2" y="-61"/>
      <point x="-33" y="-61" type="curve" smooth="yes"/>
      <point x="-45" y="-61" type="line"/>
      <point x="-69" y="-210" type="line"/>
      <point x="-1" y="-210" type="line" smooth="yes"/>
      <point x="118" y="-210"/>
      <point x="155" y="-74"/>
      <point x="155" y="8" type="curve" smooth="yes"/>
      <point x="155" y="68"/>
      <point x="149" y="96"/>
      <point x="149" y="122" type="curve" smooth="yes"/>
      <point x="149" y="152"/>
      <point x="155" y="188"/>
      <point x="184" y="188" type="curve" smooth="yes"/>
      <point x="198" y="188" type="line"/>
      <point x="223" y="344" type="line"/>
      <point x="209" y="344" type="line" smooth="yes"/>
      <point x="194" y="344"/>
      <point x="189" y="352"/>
      <point x="189" y="369" type="curve" smooth="yes"/>
      <point x="189" y="428"/>
      <point x="253" y="504"/>
    </contour>
  </outline>
</glyph>
<glyph name="sterling" format="2">
	<advance width="420"/>
	<unicode hex="00A3"/>
	<outline>
		<contour>
			<point x="11" y="0" type="line"/>
			<point x="320" y="0" type="line"/>
			<point x="345" y="160" type="line"/>
			<point x="226" y="160" type="line"/>
			<point x="259" y="200"/>
			<point x="282" y="244"/>
			<point x="282" y="303" type="curve" smooth="yes"/>
			<point x="282" y="345"/>
			<point x="272" y="400"/>
			<point x="272" y="439" type="curve" smooth="yes"/>
			<point x="272" y="501"/>
			<point x="298" y="531"/>
			<point x="342" y="531" type="curve" smooth="yes"/>
			<point x="354" y="531"/>
			<point x="366" y="530"/>
			<point x="381" y="523" type="curve"/>
			<point x="430" y="677" type="line"/>
			<point x="402" y="699"/>
			<point x="358" y="710"/>
			<point x="321" y="710" type="curve" smooth="yes"/>
			<point x="169" y="710"/>
			<point x="114" y="568"/>
			<point x="114" y="461" type="curve" smooth="yes"/>
			<point x="114" y="396"/>
			<point x="133" y="336"/>
			<point x="133" y="283" type="curve" smooth="yes"/>
			<point x="133" y="214"/>
			<point x="80" y="153"/>
			<point x="29" y="118" type="curve"/>
		</contour>
		<contour>
			<point x="58" y="310" type="line"/>
			<point x="345" y="310" type="line"/>
			<point x="359" y="401" type="line"/>
			<point x="72" y="401" type="line"/>
		</contour>
	</outline>
</glyph>
<glyph name="currency" format="2">
	<advance width="382"/>
	<unicode hex="00A4"/>
	<outline>
		<contour>
			<point x="92" y="98" type="line"/>
			<point x="146" y="150" type="line"/>
			<point x="154" y="148"/>
			<point x="163" y="148"/>
			<point x="173" y="148" type="curve" smooth="yes"/>
			<point x="181" y="148"/>
			<point x="189" y="148"/>
			<point x="197" y="149" type="curve"/>
			<point x="236" y="98" type="line"/>
			<point x="354" y="211" type="line"/>
			<point x="324" y="251" type="line"/>
			<point x="330" y="265"/>
			<point x="334" y="279"/>
			<point x="336" y="293" type="curve" smooth="yes"/>
			<point x="338" y="305"/>
			<point x="338" y="318"/>
			<point x="337" y="331" type="curve"/>
			<point x="380" y="371" type="line"/>
			<point x="297" y="484" type="line"/>
			<point x="245" y="436" type="line"/>
			<point x="237" y="437"/>
			<point x="228" y="438"/>
			<point x="219" y="438" type="curve" smooth="yes"/>
			<point x="208" y="438"/>
			<point x="198" y="436"/>
			<point x="188" y="435" type="curve"/>
			<point x="153" y="484" type="line"/>
			<point x="33" y="371" type="line"/>
			<point x="66" y="326" type="line"/>
			<point x="62" y="315"/>
			<point x="59" y="304"/>
			<point x="57" y="293" type="curve" smooth="yes"/>
			<point x="55" y="281"/>
			<point x="54" y="268"/>
			<point x="55" y="256" type="curve"/>
			<point x="7" y="211" type="line"/>
		</contour>
		<contour>
			<point x="192" y="263" type="curve" smooth="yes"/>
			<point x="175" y="263"/>
			<point x="167" y="273"/>
			<point x="170" y="292" type="curve" smooth="yes"/>
			<point x="173" y="309"/>
			<point x="184" y="322"/>
			<point x="201" y="322" type="curve" smooth="yes"/>
			<point x="218" y="322"/>
			<point x="225" y="309"/>
			<point x="222" y="292" type="curve" smooth="yes"/>
			<point x="219" y="273"/>
			<point x="209" y="263"/>
		</contour>
	</outline>
</glyph>
<glyph name="brokenbar" format="2">
  <advance width="167"/>
  <unicode hex="00A6"/>
  <outline>
    <contour>
      <point x="173" y="391" type="line"/>
      <point x="239" y="791" type="line"/>
      <point x="98" y="791" type="line"/>
      <point x="32" y="391" type="line"/>
    </contour>
    <contour>
      <point x="-2" y="191" type="line"/>
      <point x="-67" y="-210" type="line"/>
      <point x="74" y="-210" type="line"/>
      <point x="140" y="191" type="line"/>
    </contour>
  </outline>
</glyph>
<glyph name="section" format="2">
	<advance width="407"/>
	<unicode hex="00A7"/>
	<outline>
		<contour>
			<point x="12" y="-1" type="curve"/>
			<point x="-49" y="-185" type="line"/>
			<point x="-18" y="-206"/>
			<point x="54" y="-220"/>
			<point x="82" y="-220" type="curve" smooth="yes"/>
			<point x="278" y="-220"/>
			<point x="361" y="0"/>
			<point x="361" y="158" type="curve" smooth="yes"/>
			<point x="361" y="269"/>
			<point x="304" y="371"/>
			<point x="304" y="477" type="curve" smooth="yes"/>
			<point x="304" y="514"/>
			<point x="319" y="552"/>
			<point x="353" y="552" type="curve" smooth="yes"/>
			<point x="364" y="552"/>
			<point x="369" y="547"/>
			<point x="381" y="540" type="curve"/>
			<point x="448" y="721" type="line"/>
			<point x="425" y="741"/>
			<point x="364" y="750"/>
			<point x="337" y="750" type="curve" smooth="yes"/>
			<point x="122" y="750"/>
			<point x="45" y="548"/>
			<point x="45" y="376" type="curve" smooth="yes"/>
			<point x="45" y="245"/>
			<point x="102" y="113"/>
			<point x="102" y="24" type="curve" smooth="yes"/>
			<point x="102" y="4"/>
			<point x="91" y="-23"/>
			<point x="64" y="-23" type="curve" smooth="yes"/>
			<point x="46" y="-23"/>
			<point x="28" y="-18"/>
		</contour>
		<contour>
			<point x="277" y="641" type="curve"/>
			<point x="215" y="588"/>
			<point x="195" y="511"/>
			<point x="195" y="448" type="curve" smooth="yes"/>
			<point x="195" y="344"/>
			<point x="246" y="232"/>
			<point x="246" y="132" type="curve" smooth="yes"/>
			<point x="246" y="27"/>
			<point x="192" y="-105"/>
			<point x="88" y="-116" type="curve"/>
			<point x="183" y="-83"/>
			<point x="213" y="4"/>
			<point x="213" y="80" type="curve" smooth="yes"/>
			<point x="213" y="191"/>
			<point x="160" y="291"/>
			<point x="160" y="398" type="curve" smooth="yes"/>
			<point x="160" y="485"/>
			<point x="192" y="594"/>
		</contour>
	</outline>
</glyph>
<glyph name="copyright" format="2">
	<advance width="652"/>
	<unicode hex="00A9"/>
	<outline>
		<contour>
			<point x="306" y="-10" type="curve" smooth="yes"/>
			<point x="530" y="-10"/>
			<point x="636" y="186"/>
			<point x="636" y="426" type="curve" smooth="yes"/>
			<point x="636" y="617"/>
			<point x="535" y="710"/>
			<point x="369" y="710" type="curve" smooth="yes"/>
			<point x="145" y="710"/>
			<point x="39" y="514"/>
			<point x="39" y="274" type="curve" smooth="yes"/>
			<point x="39" y="83"/>
			<point x="140" y="-10"/>
		</contour>
		<contour>
			<point x="321" y="112" type="curve" smooth="yes"/>
			<point x="345" y="112"/>
			<point x="375" y="118"/>
			<point x="391" y="129" type="curve"/>
			<point x="391" y="225" type="line"/>
			<point x="382" y="221"/>
			<point x="370" y="218"/>
			<point x="359" y="218" type="curve" smooth="yes"/>
			<point x="334" y="218"/>
			<point x="316" y="246"/>
			<point x="316" y="295" type="curve" smooth="yes"/>
			<point x="316" y="386"/>
			<point x="345" y="470"/>
			<point x="391" y="470" type="curve" smooth="yes"/>
			<point x="399" y="470"/>
			<point x="408" y="468"/>
			<point x="415" y="463" type="curve"/>
			<point x="449" y="575" type="line"/>
			<point x="439" y="582"/>
			<point x="421" y="589"/>
			<point x="390" y="589" type="curve" smooth="yes"/>
			<point x="298" y="589"/>
			<point x="204" y="470"/>
			<point x="204" y="295" type="curve" smooth="yes"/>
			<point x="204" y="171"/>
			<point x="248" y="112"/>
		</contour>
		<contour>
			<point x="311" y="42" type="curve" smooth="yes"/>
			<point x="178" y="42"/>
			<point x="94" y="115"/>
			<point x="94" y="273" type="curve" smooth="yes"/>
			<point x="94" y="480"/>
			<point x="176" y="658"/>
			<point x="364" y="658" type="curve" smooth="yes"/>
			<point x="497" y="658"/>
			<point x="581" y="585"/>
			<point x="581" y="427" type="curve" smooth="yes"/>
			<point x="581" y="220"/>
			<point x="499" y="42"/>
		</contour>
	</outline>
</glyph>
<glyph name="ordfeminine" format="2">
  <advance width="273"/>
  <unicode hex="00AA"/>
  <outline>
    <contour>
      <point x="18" y="241" type="line"/>
      <point x="246" y="241" type="line"/>
      <point x="259" y="327" type="line"/>
      <point x="31" y="327" type="line"/>
    </contour>
    <component base="a.superior" xOffset="8"/>
  </outline>
</glyph>
<glyph name="logicalnot" format="2">
	<advance width="387"/>
	<unicode hex="00AC"/>
	<outline>
		<contour>
			<point x="45" y="297" type="line"/>
			<point x="195" y="297" type="line"/>
			<point x="178" y="179" type="line"/>
			<point x="330" y="179" type="line"/>
			<point x="372" y="447" type="line"/>
			<point x="70" y="447" type="line"/>
		</contour>
	</outline>
</glyph>
<glyph name="uni00B2" format="2">
	<advance width="245"/>
	<unicode hex="00B2"/>
	<outline>
		<contour>
			<point x="37" y="370" type="line"/>
			<point x="231" y="370" type="line"/>
			<point x="246" y="451" type="line"/>
			<point x="157" y="451" type="line"/>
			<point x="224" y="527"/>
			<point x="285" y="595"/>
			<point x="285" y="688" type="curve" smooth="yes"/>
			<point x="285" y="739"/>
			<point x="254" y="774"/>
			<point x="199" y="774" type="curve" smooth="yes"/>
			<point x="156" y="774"/>
			<point x="118" y="760"/>
			<point x="88" y="740" type="curve"/>
			<point x="105" y="635" type="line"/>
			<point x="119" y="643"/>
			<point x="132" y="649"/>
			<point x="148" y="649" type="curve" smooth="yes"/>
			<point x="163" y="649"/>
			<point x="168" y="638"/>
			<point x="168" y="625" type="curve" smooth="yes"/>
			<point x="168" y="582"/>
			<point x="82" y="470"/>
			<point x="50" y="444" type="curve"/>
		</contour>
	</outline>
</glyph>
<glyph name="uni00B3" format="2">
	<advance width="260"/>
	<unicode hex="00B3"/>
	<outline>
		<contour>
			<point x="36" y="393" type="line"/>
			<point x="60" y="377"/>
			<point x="83" y="366"/>
			<point x="126" y="366" type="curve" smooth="yes"/>
			<point x="191" y="366"/>
			<point x="267" y="411"/>
			<point x="267" y="504" type="curve" smooth="yes"/>
			<point x="267" y="550"/>
			<point x="245" y="569"/>
			<point x="226" y="582" type="curve"/>
			<point x="268" y="610"/>
			<point x="296" y="640"/>
			<point x="296" y="695" type="curve" smooth="yes"/>
			<point x="296" y="747"/>
			<point x="257" y="776"/>
			<point x="203" y="776" type="curve" smooth="yes"/>
			<point x="163" y="776"/>
			<point x="126" y="763"/>
			<point x="97" y="743" type="curve"/>
			<point x="113" y="662" type="line"/>
			<point x="122" y="667"/>
			<point x="140" y="672"/>
			<point x="156" y="672" type="curve" smooth="yes"/>
			<point x="180" y="672"/>
			<point x="188" y="659"/>
			<point x="188" y="644" type="curve" smooth="yes"/>
			<point x="188" y="626"/>
			<point x="169" y="611"/>
			<point x="149" y="611" type="curve" smooth="yes"/>
			<point x="126" y="611" type="line"/>
			<point x="112" y="535" type="line"/>
			<point x="140" y="535" type="line" smooth="yes"/>
			<point x="160" y="535"/>
			<point x="171" y="521"/>
			<point x="171" y="505" type="curve" smooth="yes"/>
			<point x="171" y="482"/>
			<point x="155" y="465"/>
			<point x="126" y="465" type="curve" smooth="yes"/>
			<point x="111" y="465"/>
			<point x="101" y="468"/>
			<point x="85" y="478" type="curve"/>
		</contour>
	</outline>
</glyph>
<glyph name="uni00B5" format="2">
  <advance width="393"/>
  <unicode hex="00B5"/>
  <outline>
    <contour>
      <point x="-58" y="-210" type="line"/>
      <point x="102" y="-210" type="line"/>
      <point x="134" y="-10" type="line"/>
      <point x="135" y="-10"/>
      <point x="135" y="-10"/>
      <point x="136" y="-10" type="curve" smooth="yes"/>
      <point x="153" y="-10"/>
      <point x="175" y="0"/>
      <point x="196" y="34" type="curve"/>
      <point x="207" y="13"/>
      <point x="235" y="-10"/>
      <point x="272" y="-10" type="curve" smooth="yes"/>
      <point x="300" y="-10"/>
      <point x="332" y="0"/>
      <point x="350" y="15" type="curve"/>
      <point x="372" y="158" type="line"/>
      <point x="369" y="157"/>
      <point x="365" y="157"/>
      <point x="363" y="157" type="curve" smooth="yes"/>
      <point x="356" y="157"/>
      <point x="353" y="162"/>
      <point x="353" y="173" type="curve" smooth="yes"/>
      <point x="353" y="178"/>
      <point x="354" y="186"/>
      <point x="413" y="550" type="curve"/>
      <point x="254" y="550" type="line"/>
      <point x="190" y="160" type="line"/>
      <point x="184" y="155"/>
      <point x="181" y="153"/>
      <point x="174" y="153" type="curve" smooth="yes"/>
      <point x="166" y="153"/>
      <point x="162" y="160"/>
      <point x="164" y="170" type="curve" smooth="yes"/>
      <point x="187" y="286"/>
      <point x="205" y="430"/>
      <point x="224" y="550" type="curve"/>
      <point x="64" y="550" type="line"/>
    </contour>
  </outline>
</glyph>
<glyph name="paragraph" format="2">
	<advance width="516"/>
	<unicode hex="00B6"/>
	<outline>
		<contour>
			<point x="290" y="-210" type="line"/>
			<point x="414" y="-210" type="line"/>
			<point x="567" y="740" type="line"/>
			<point x="443" y="740" type="line"/>
		</contour>
		<contour>
			<point x="231" y="377" type="line"/>
			<point x="218" y="381"/>
			<point x="202" y="409"/>
			<point x="202" y="455" type="curve" smooth="yes"/>
			<point x="202" y="501"/>
			<point x="217" y="576"/>
			<point x="270" y="578" type="curve"/>
			<point x="144" y="-210" type="line"/>
			<point x="268" y="-210" type="line"/>
			<point x="421" y="740" type="line"/>
			<point x="345" y="740" type="line" smooth="yes"/>
			<point x="159" y="740"/>
			<point x="58" y="604"/>
			<point x="58" y="441" type="curve" smooth="yes"/>
			<point x="58" y="351"/>
			<point x="100" y="282"/>
			<point x="193" y="258" type="curve"/>
		</contour>
	</outline>
</glyph>
<glyph name="uni00B9" format="2">
	<advance width="220"/>
	<unicode hex="00B9"/>
	<outline>
		<contour>
			<point x="33" y="370" type="line"/>
			<point x="221" y="370" type="line"/>
			<point x="238" y="461" type="line"/>
			<point x="197" y="461" type="line"/>
			<point x="252" y="768" type="line"/>
			<point x="201" y="768" type="line"/>
			<point x="88" y="740" type="line"/>
			<point x="88" y="635" type="line"/>
			<point x="129" y="643" type="line"/>
			<point x="96" y="461" type="line"/>
			<point x="48" y="461" type="line"/>
		</contour>
	</outline>
</glyph>
<glyph name="ordmasculine" format="2">
  <advance width="247"/>
  <unicode hex="00BA"/>
  <outline>
    <contour>
      <point x="18" y="241" type="line"/>
      <point x="223" y="241" type="line"/>
      <point x="236" y="327" type="line"/>
      <point x="31" y="327" type="line"/>
    </contour>
    <contour>
      <point x="184" y="689" type="curve" smooth="yes"/>
      <point x="100" y="689"/>
      <point x="52" y="579"/>
      <point x="52" y="447" type="curve" smooth="yes"/>
      <point x="52" y="387"/>
      <point x="89" y="364"/>
      <point x="143" y="364" type="curve" smooth="yes"/>
      <point x="227" y="364"/>
      <point x="275" y="474"/>
      <point x="275" y="606" type="curve" smooth="yes"/>
      <point x="275" y="666"/>
      <point x="238" y="689"/>
    </contour>
    <contour>
      <point x="179" y="596" type="curve" smooth="yes"/>
      <point x="182" y="596"/>
      <point x="184" y="595"/>
      <point x="184" y="590" type="curve" smooth="yes"/>
      <point x="184" y="551"/>
      <point x="160" y="457"/>
      <point x="150" y="457" type="curve" smooth="yes"/>
      <point x="147" y="457"/>
      <point x="145" y="458"/>
      <point x="145" y="463" type="curve" smooth="yes"/>
      <point x="145" y="502"/>
      <point x="169" y="596"/>
    </contour>
  </outline>
</glyph>
<glyph name="multiply" format="2">
	<advance width="384"/>
	<unicode hex="00D7"/>
	<outline>
		<contour>
			<point x="116" y="162" type="line"/>
			<point x="185" y="228" type="line"/>
			<point x="234" y="162" type="line"/>
			<point x="353" y="275" type="line"/>
			<point x="305" y="341" type="line"/>
			<point x="374" y="407" type="line"/>
			<point x="290" y="520" type="line"/>
			<point x="221" y="454" type="line"/>
			<point x="172" y="520" type="line"/>
			<point x="52" y="407" type="line"/>
			<point x="101" y="341" type="line"/>
			<point x="31" y="275" type="line"/>
		</contour>
	</outline>
</glyph>
<glyph name="ae" format="2">
  <advance width="576"/>
  <unicode hex="00E6"/>
  <anchor x="340" y="550" name="top"/>
  <anchor x="254" y="0" name="bottom"/>
  <outline>
    <contour>
      <point x="109" y="-10" type="curve" smooth="yes"/>
      <point x="136" y="-10"/>
      <point x="157" y="-3"/>
      <point x="186" y="36" type="curve"/>
      <point x="180" y="0" type="line"/>
      <point x="323" y="0" type="line"/>
      <point x="328" y="32" type="line"/>
      <point x="353" y="8"/>
      <point x="385" y="-8"/>
      <point x="422" y="-8" type="curve" smooth="yes"/>
      <point x="458" y="-8"/>
      <point x="498" y="2"/>
      <point x="533" y="28" type="curve"/>
      <point x="514" y="181" type="line"/>
      <point x="478" y="163"/>
      <point x="446" y="156"/>
      <point x="421" y="156" type="curve" smooth="yes"/>
      <point x="397" y="156"/>
      <point x="368" y="161"/>
      <point x="368" y="225" type="curve" smooth="yes"/>
      <point x="368" y="302"/>
      <point x="386" y="411"/>
      <point x="427" y="411" type="curve" smooth="yes"/>
      <point x="432" y="411"/>
      <point x="438" y="406"/>
      <point x="438" y="391" type="curve" smooth="yes"/>
      <point x="438" y="354"/>
      <point x="422" y="305"/>
      <point x="386" y="287" type="curve" smooth="yes"/>
      <point x="372" y="280"/>
      <point x="356" y="277"/>
      <point x="335" y="279" type="curve"/>
      <point x="306" y="178" type="line"/>
      <point x="347" y="176"/>
      <point x="386" y="183"/>
      <point x="421" y="196" type="curve" smooth="yes"/>
      <point x="518" y="232"/>
      <point x="584" y="327"/>
      <point x="584" y="445" type="curve" smooth="yes"/>
      <point x="584" y="514"/>
      <point x="553" y="560"/>
      <point x="487" y="560" type="curve" smooth="yes"/>
      <point x="456" y="560"/>
      <point x="431" y="548"/>
      <point x="406" y="531" type="curve"/>
      <point x="411" y="560" type="line"/>
      <point x="268" y="560" type="line"/>
      <point x="265" y="542" type="line"/>
      <point x="248" y="554"/>
      <point x="228" y="560"/>
      <point x="205" y="560" type="curve" smooth="yes"/>
      <point x="87" y="560"/>
      <point x="5" y="394"/>
      <point x="5" y="152" type="curve" smooth="yes"/>
      <point x="5" y="52"/>
      <point x="45" y="-10"/>
    </contour>
    <contour>
      <point x="187" y="129" type="curve" smooth="yes"/>
      <point x="179" y="129"/>
      <point x="173" y="136"/>
      <point x="173" y="179" type="curve" smooth="yes"/>
      <point x="173" y="284"/>
      <point x="201" y="405"/>
      <point x="228" y="405" type="curve" smooth="yes"/>
      <point x="233" y="405"/>
      <point x="237" y="404"/>
      <point x="240" y="402" type="curve"/>
      <point x="200" y="134" type="line"/>
      <point x="195" y="130"/>
      <point x="191" y="129"/>
    </contour>
  </outline>
</glyph>
<glyph name="Dcroat" format="2">
  <advance width="423"/>
  <unicode hex="0110"/>
  <outline>
    <contour>
      <point x="4" y="268" type="line"/>
      <point x="221" y="268" type="line"/>
      <point x="248" y="431" type="line"/>
      <point x="31" y="431" type="line"/>
    </contour>
    <component base="D" xOffset="12"/>
  </outline>
</glyph>
<glyph name="dcroat" format="2">
  <advance width="402"/>
  <unicode hex="0111"/>
  <outline>
    <contour>
      <point x="181" y="614" type="line"/>
      <point x="456" y="614" type="line"/>
      <point x="471" y="710" type="line"/>
      <point x="197" y="710" type="line"/>
    </contour>
    <contour>
      <point x="276" y="-10" type="curve" smooth="yes"/>
      <point x="304" y="-10"/>
      <point x="338" y="-1"/>
      <point x="356" y="14" type="curve"/>
      <point x="378" y="158" type="line"/>
      <point x="374" y="157"/>
      <point x="371" y="157"/>
      <point x="369" y="157" type="curve" smooth="yes"/>
      <point x="360" y="157"/>
      <point x="359" y="161"/>
      <point x="359" y="167" type="curve" smooth="yes"/>
      <point x="359" y="185"/>
      <point x="448" y="740"/>
      <point x="448" y="740" type="curve"/>
      <point x="287" y="740" type="line"/>
      <point x="255" y="544" type="line"/>
      <point x="238" y="555"/>
      <point x="220" y="560"/>
      <point x="200" y="560" type="curve" smooth="yes"/>
      <point x="97" y="560"/>
      <point x="7" y="412"/>
      <point x="7" y="177" type="curve" smooth="yes"/>
      <point x="7" y="50"/>
      <point x="44" y="-10"/>
      <point x="111" y="-10" type="curve" smooth="yes"/>
      <point x="147" y="-10"/>
      <point x="175" y="11"/>
      <point x="194" y="35" type="curve"/>
      <point x="213" y="3"/>
      <point x="235" y="-10"/>
    </contour>
    <contour>
      <point x="185" y="156" type="curve" smooth="yes"/>
      <point x="177" y="156"/>
      <point x="174" y="167"/>
      <point x="174" y="178" type="curve" smooth="yes"/>
      <point x="174" y="279"/>
      <point x="196" y="405"/>
      <point x="227" y="405" type="curve" smooth="yes"/>
      <point x="229" y="405"/>
      <point x="230" y="405"/>
      <point x="233" y="404" type="curve"/>
      <point x="194" y="159" type="line"/>
      <point x="191" y="157"/>
      <point x="187" y="156"/>
    </contour>
  </outline>
</glyph>
<glyph name="Hbar" format="2">
  <advance width="415"/>
  <unicode hex="0126"/>
  <outline>
    <contour>
      <point x="29" y="502" type="line"/>
      <point x="458" y="502" type="line"/>
      <point x="482" y="649" type="line"/>
      <point x="53" y="649" type="line"/>
    </contour>
    <component base="H" xOffset="5"/>
  </outline>
</glyph>
<glyph name="hbar" format="2">
  <advance width="402"/>
  <unicode hex="0127"/>
  <outline>
    <contour>
      <point x="55" y="614" type="line"/>
      <point x="302" y="614" type="line"/>
      <point x="317" y="710" type="line"/>
      <point x="70" y="710" type="line"/>
    </contour>
    <contour>
      <point x="359" y="168" type="curve" smooth="yes"/>
      <point x="359" y="176"/>
      <point x="407" y="441"/>
      <point x="407" y="469" type="curve" smooth="yes"/>
      <point x="407" y="528"/>
      <point x="378" y="560"/>
      <point x="324" y="560" type="curve" smooth="yes"/>
      <point x="290" y="560"/>
      <point x="265" y="550"/>
      <point x="227" y="520" type="curve"/>
      <point x="263" y="740" type="line"/>
      <point x="101" y="740" type="line"/>
      <point x="-17" y="0" type="line"/>
      <point x="145" y="0" type="line"/>
      <point x="208" y="388" type="line"/>
      <point x="214" y="393"/>
      <point x="219" y="395"/>
      <point x="224" y="395" type="curve" smooth="yes"/>
      <point x="231" y="395"/>
      <point x="234" y="391"/>
      <point x="234" y="385" type="curve" smooth="yes"/>
      <point x="234" y="370"/>
      <point x="187" y="119"/>
      <point x="187" y="81" type="curve" smooth="yes"/>
      <point x="187" y="33"/>
      <point x="221" y="-10"/>
      <point x="281" y="-10" type="curve" smooth="yes"/>
      <point x="309" y="-10"/>
      <point x="337" y="0"/>
      <point x="358" y="15" type="curve"/>
      <point x="380" y="159" type="line"/>
      <point x="377" y="158"/>
      <point x="373" y="158"/>
      <point x="371" y="158" type="curve" smooth="yes"/>
      <point x="364" y="158"/>
      <point x="359" y="160"/>
    </contour>
  </outline>
</glyph>
<glyph name="Idotaccent" format="2">
  <advance width="206"/>
  <unicode hex="0130"/>
  <outline>
    <contour>
      <point x="210" y="940" type="curve" smooth="yes"/>
      <point x="130" y="940"/>
      <point x="99" y="867"/>
      <point x="99" y="798" type="curve" smooth="yes"/>
      <point x="99" y="745"/>
      <point x="125" y="719"/>
      <point x="174" y="719" type="curve" smooth="yes"/>
      <point x="255" y="719"/>
      <point x="285" y="794"/>
      <point x="285" y="862" type="curve" smooth="yes"/>
      <point x="285" y="915"/>
      <point x="258" y="940"/>
    </contour>
    <contour>
      <point x="-22" y="0" type="line"/>
      <point x="140" y="0" type="line"/>
      <point x="251" y="700" type="line"/>
      <point x="89" y="700" type="line"/>
    </contour>
  </outline>
</glyph>
<glyph name="dotlessi" format="2">
  <advance width="201"/>
  <unicode hex="0131"/>
  <anchor x="138" y="0" name="ogonek"/>
  <anchor x="57" y="0" name="bottom"/>
  <anchor x="144" y="550" name="top"/>
  <outline>
    <contour>
      <point x="138" y="0" type="line"/>
      <point x="225" y="550" type="line"/>
      <point x="63" y="550" type="line"/>
      <point x="-24" y="0" type="line"/>
    </contour>
  </outline>
</glyph>
<glyph name="kgreenlandic" format="2">
  <advance width="380"/>
  <unicode hex="0138"/>
  <anchor x="243" y="550" name="top"/>
  <anchor x="165" y="0" name="bottom"/>
  <outline>
    <contour>
      <point x="-24" y="0" type="line"/>
      <point x="138" y="0" type="line"/>
      <point x="225" y="550" type="line"/>
      <point x="63" y="550" type="line"/>
    </contour>
    <contour>
      <point x="279" y="-10" type="curve" smooth="yes"/>
      <point x="295" y="-10"/>
      <point x="311" y="-8"/>
      <point x="329" y="-1" type="curve"/>
      <point x="357" y="190" type="line"/>
      <point x="350" y="190"/>
      <point x="344" y="191"/>
      <point x="339" y="192" type="curve" smooth="yes"/>
      <point x="317" y="196"/>
      <point x="301" y="209"/>
      <point x="259" y="283" type="curve" smooth="yes"/>
      <point x="191" y="404" type="line"/>
      <point x="149" y="189" type="line"/>
      <point x="186" y="86" type="line" smooth="yes"/>
      <point x="208" y="26"/>
      <point x="236" y="-10"/>
    </contour>
    <contour>
      <point x="256" y="227" type="line"/>
      <point x="333" y="315"/>
      <point x="400" y="441"/>
      <point x="423" y="545" type="curve"/>
      <point x="263" y="560" type="line"/>
      <point x="247" y="458"/>
      <point x="223" y="404"/>
      <point x="185" y="347" type="curve"/>
    </contour>
  </outline>
</glyph>
<glyph name="ldot" format="2">
  <advance width="317"/>
  <unicode hex="0140"/>
  <outline>
    <contour>
      <point x="215.821" y="349.389" type="curve" smooth="yes"/>
      <point x="215.821" y="315.194"/>
      <point x="230.159" y="298.754"/>
      <point x="263.398" y="298.754" type="curve" smooth="yes"/>
      <point x="318.795" y="298.754"/>
      <point x="334.437" y="361.226"/>
      <point x="334.437" y="403.97" type="curve" smooth="yes"/>
      <point x="334.437" y="436.85"/>
      <point x="320.099" y="453.29"/>
      <point x="287.512" y="453.29" type="curve" smooth="yes"/>
      <point x="232.766" y="453.29"/>
      <point x="215.821" y="392.133"/>
    </contour>
    <contour>
      <point x="93" y="740" type="line"/>
      <point x="-5" y="120" type="line" smooth="yes"/>
      <point x="-7" y="108"/>
      <point x="-8" y="94"/>
      <point x="-8" y="84" type="curve" smooth="yes"/>
      <point x="-8" y="27"/>
      <point x="22" y="-10"/>
      <point x="82" y="-10" type="curve" smooth="yes"/>
      <point x="110" y="-10"/>
      <point x="145" y="0"/>
      <point x="163" y="15" type="curve"/>
      <point x="185" y="159" type="line"/>
      <point x="182" y="158"/>
      <point x="178" y="158"/>
      <point x="176" y="158" type="curve" smooth="yes"/>
      <point x="169" y="158"/>
      <point x="166" y="163"/>
      <point x="166" y="174" type="curve" smooth="yes"/>
      <point x="166" y="179"/>
      <point x="167" y="186"/>
      <point x="168" y="193" type="curve" smooth="yes"/>
      <point x="255" y="740" type="line"/>
    </contour>
  </outline>
</glyph>
<glyph name="lslash" format="2">
  <advance width="243"/>
  <unicode hex="0142"/>
  <outline>
    <contour>
      <point x="-4" y="224" type="line"/>
      <point x="260" y="397" type="line"/>
      <point x="284" y="547" type="line"/>
      <point x="19" y="374" type="line"/>
    </contour>
    <component base="l" xOffset="20"/>
  </outline>
</glyph>
<glyph name="eng" format="2">
  <advance width="390"/>
  <unicode hex="014B"/>
  <outline>
    <contour>
      <point x="325" y="19" type="curve" smooth="yes"/>
      <point x="326" y="27"/>
      <point x="400" y="441"/>
      <point x="400" y="469" type="curve" smooth="yes"/>
      <point x="400" y="528"/>
      <point x="371" y="560"/>
      <point x="317" y="560" type="curve" smooth="yes"/>
      <point x="283" y="560"/>
      <point x="246" y="551"/>
      <point x="203" y="514" type="curve"/>
      <point x="208" y="550" type="line"/>
      <point x="63" y="550" type="line"/>
      <point x="-24" y="0" type="line"/>
      <point x="138" y="0" type="line"/>
      <point x="201" y="388" type="line"/>
      <point x="207" y="393"/>
      <point x="211" y="395"/>
      <point x="217" y="395" type="curve" smooth="yes"/>
      <point x="224" y="395"/>
      <point x="227" y="391"/>
      <point x="227" y="385" type="curve" smooth="yes"/>
      <point x="227" y="381"/>
      <point x="225" y="369"/>
      <point x="167" y="13" type="curve" smooth="yes"/>
      <point x="164" y="-6"/>
      <point x="158" y="-25"/>
      <point x="150" y="-25" type="curve" smooth="yes"/>
      <point x="149" y="-25"/>
      <point x="145" y="-25"/>
      <point x="142" y="-23" type="curve"/>
      <point x="102" y="-213" type="line"/>
      <point x="117" y="-217"/>
      <point x="134" y="-220"/>
      <point x="159" y="-220" type="curve" smooth="yes"/>
      <point x="221" y="-220"/>
      <point x="300" y="-178"/>
    </contour>
  </outline>
</glyph>
<glyph name="OE" format="2">
  <advance width="534"/>
  <unicode hex="0152"/>
  <outline>
    <contour>
      <point x="480" y="0" type="line"/>
      <point x="505" y="158" type="line"/>
      <point x="366" y="158" type="line"/>
      <point x="384" y="274" type="line"/>
      <point x="492" y="274" type="line"/>
      <point x="517" y="422" type="line"/>
      <point x="409" y="422" type="line"/>
      <point x="427" y="537" type="line"/>
      <point x="556" y="537" type="line"/>
      <point x="583" y="700" type="line"/>
      <point x="451" y="700" type="line"/>
      <point x="404" y="706"/>
      <point x="329" y="710"/>
      <point x="297" y="710" type="curve" smooth="yes"/>
      <point x="38" y="710"/>
      <point x="9" y="319"/>
      <point x="9" y="183" type="curve" smooth="yes"/>
      <point x="9" y="60"/>
      <point x="57" y="-10"/>
      <point x="189" y="-10" type="curve" smooth="yes"/>
      <point x="217" y="-10"/>
      <point x="262" y="-9"/>
      <point x="326" y="0" type="curve"/>
    </contour>
    <contour>
      <point x="203" y="152" type="line"/>
      <point x="198" y="150"/>
      <point x="192" y="149"/>
      <point x="186" y="149" type="curve" smooth="yes"/>
      <point x="175" y="149"/>
      <point x="170" y="170"/>
      <point x="170" y="193" type="curve" smooth="yes"/>
      <point x="170" y="290"/>
      <point x="214" y="544"/>
      <point x="252" y="544" type="curve" smooth="yes"/>
      <point x="258" y="544"/>
      <point x="263" y="543"/>
      <point x="266" y="543" type="curve"/>
    </contour>
  </outline>
</glyph>
<glyph name="oe" format="2">
  <advance width="580"/>
  <unicode hex="0153"/>
  <outline>
    <contour>
      <point x="169" y="-10" type="curve" smooth="yes"/>
      <point x="213" y="-10"/>
      <point x="249" y="5"/>
      <point x="279" y="36" type="curve"/>
      <point x="307" y="4"/>
      <point x="346" y="-10"/>
      <point x="394" y="-10" type="curve" smooth="yes"/>
      <point x="439" y="-10"/>
      <point x="493" y="2"/>
      <point x="537" y="28" type="curve"/>
      <point x="510" y="179" type="line"/>
      <point x="474" y="161"/>
      <point x="442" y="154"/>
      <point x="417" y="154" type="curve" smooth="yes"/>
      <point x="393" y="154"/>
      <point x="371" y="165"/>
      <point x="371" y="229" type="curve" smooth="yes"/>
      <point x="371" y="343"/>
      <point x="402" y="411"/>
      <point x="428" y="411" type="curve" smooth="yes"/>
      <point x="433" y="411"/>
      <point x="442" y="405"/>
      <point x="442" y="388" type="curve" smooth="yes"/>
      <point x="442" y="354"/>
      <point x="423" y="302"/>
      <point x="391" y="285" type="curve" smooth="yes"/>
      <point x="378" y="278"/>
      <point x="361" y="274"/>
      <point x="340" y="276" type="curve"/>
      <point x="310" y="176" type="line"/>
      <point x="351" y="174"/>
      <point x="390" y="181"/>
      <point x="425" y="194" type="curve" smooth="yes"/>
      <point x="522" y="229"/>
      <point x="588" y="316"/>
      <point x="588" y="424" type="curve" smooth="yes"/>
      <point x="588" y="503"/>
      <point x="545" y="560"/>
      <point x="453" y="560" type="curve" smooth="yes"/>
      <point x="409" y="560"/>
      <point x="371" y="547"/>
      <point x="339" y="519" type="curve"/>
      <point x="314" y="548"/>
      <point x="276" y="561"/>
      <point x="221" y="561" type="curve" smooth="yes"/>
      <point x="61" y="561"/>
      <point x="7" y="372"/>
      <point x="7" y="161" type="curve" smooth="yes"/>
      <point x="7" y="49"/>
      <point x="49" y="-10"/>
    </contour>
    <contour>
      <point x="172" y="147" type="curve" smooth="yes"/>
      <point x="166" y="147"/>
      <point x="162" y="150"/>
      <point x="162" y="158" type="curve" smooth="yes"/>
      <point x="162" y="201"/>
      <point x="190" y="404"/>
      <point x="218" y="404" type="curve" smooth="yes"/>
      <point x="224" y="404"/>
      <point x="227" y="401"/>
      <point x="227" y="395" type="curve" smooth="yes"/>
      <point x="227" y="338"/>
      <point x="199" y="147"/>
    </contour>
  </outline>
</glyph>
<glyph name="uni0162" format="2">
  <advance width="360"/>
  <unicode hex="0162"/>
  <anchor x="136.489" y="0" name="_bottom"/>
  <anchor x="77" y="-220" name="bottom"/>
  <outline>
    <contour>
      <point x="15" y="-209" type="line"/>
      <point x="33" y="-216"/>
      <point x="51" y="-220"/>
      <point x="77" y="-220" type="curve" smooth="yes"/>
      <point x="157" y="-220"/>
      <point x="211" y="-160"/>
      <point x="211" y="-70" type="curve" smooth="yes"/>
      <point x="211" y="-41"/>
      <point x="208" y="-14"/>
      <point x="199" y="8" type="curve"/>
      <point x="103" y="7" type="line"/>
      <point x="109" y="-10"/>
      <point x="112" y="-21"/>
      <point x="112" y="-45" type="curve" smooth="yes"/>
      <point x="112" y="-82"/>
      <point x="90" y="-96"/>
      <point x="62" y="-96" type="curve" smooth="yes"/>
      <point x="51" y="-96"/>
      <point x="45" y="-95"/>
      <point x="35" y="-92" type="curve"/>
    </contour>
    <contour>
      <point x="395" y="548" type="line"/>
      <point x="420" y="700" type="line"/>
      <point x="75" y="700" type="line"/>
      <point x="50" y="548" type="line"/>
      <point x="142" y="548" type="line"/>
      <point x="55" y="0" type="line"/>
      <point x="217" y="0" type="line"/>
      <point x="304" y="548" type="line"/>
    </contour>
  </outline>
</glyph>
<glyph name="Tbar" format="2">
  <advance width="360"/>
  <unicode hex="0166"/>
  <outline>
    <contour>
      <point x="395" y="548" type="line"/>
      <point x="420" y="700" type="line"/>
      <point x="75" y="700" type="line"/>
      <point x="50" y="548" type="line"/>
      <point x="143" y="548" type="line"/>
      <point x="120" y="407" type="line"/>
      <point x="70" y="407" type="line"/>
      <point x="41" y="243" type="line"/>
      <point x="94" y="243" type="line"/>
      <point x="55" y="0" type="line"/>
      <point x="215" y="0" type="line"/>
      <point x="254" y="243" type="line"/>
      <point x="306" y="243" type="line"/>
      <point x="335" y="407" type="line"/>
      <point x="280" y="407" type="line"/>
      <point x="303" y="548" type="line"/>
    </contour>
  </outline>
</glyph>
<glyph name="uogonek" format="2">
	<advance width="392"/>
	<unicode hex="0173"/>
	<outline>
		<contour>
			<point x="277" y="-205" type="curve" smooth="yes"/>
			<point x="299" y="-205"/>
			<point x="319" y="-199"/>
			<point x="339" y="-191" type="curve"/>
			<point x="353" y="-56" type="line"/>
			<point x="353" y="-56"/>
			<point x="346" y="-58"/>
			<point x="339" y="-58" type="curve" smooth="yes"/>
			<point x="329" y="-58"/>
			<point x="325" y="-51"/>
			<point x="325" y="-41" type="curve" smooth="yes"/>
			<point x="325" y="-19"/>
			<point x="340" y="5"/>
			<point x="349" y="15" type="curve"/>
			<point x="371" y="158" type="line"/>
			<point x="368" y="157"/>
			<point x="364" y="157"/>
			<point x="362" y="157" type="curve" smooth="yes"/>
			<point x="355" y="157"/>
			<point x="352" y="162"/>
			<point x="352" y="173" type="curve" smooth="yes"/>
			<point x="352" y="178"/>
			<point x="353" y="186"/>
			<point x="412" y="550" type="curve"/>
			<point x="253" y="550" type="line"/>
			<point x="189" y="160" type="line"/>
			<point x="183" y="155"/>
			<point x="180" y="153"/>
			<point x="173" y="153" type="curve" smooth="yes"/>
			<point x="165" y="153"/>
			<point x="161" y="160"/>
			<point x="163" y="170" type="curve" smooth="yes"/>
			<point x="181" y="286"/>
			<point x="204" y="430"/>
			<point x="223" y="550" type="curve"/>
			<point x="63" y="550" type="line"/>
			<point x="18" y="272"/>
			<point x="-8" y="148"/>
			<point x="-8" y="84" type="curve" smooth="yes"/>
			<point x="-8" y="31"/>
			<point x="22" y="-10"/>
			<point x="84" y="-10" type="curve" smooth="yes"/>
			<point x="124" y="-10"/>
			<point x="150" y="7"/>
			<point x="186" y="46" type="curve"/>
			<point x="196" y="16"/>
			<point x="228" y="-10"/>
			<point x="269" y="-10" type="curve" smooth="yes"/>
			<point x="289" y="-10"/>
			<point x="301" y="16"/>
			<point x="288" y="41" type="curve"/>
			<point x="227" y="0"/>
			<point x="179" y="-53"/>
			<point x="179" y="-115" type="curve" smooth="yes"/>
			<point x="179" y="-177"/>
			<point x="220" y="-205"/>
		</contour>
	</outline>
</glyph>
<glyph name="longs" format="2">
  <advance width="232"/>
  <unicode hex="017F"/>
  <outline>
    <contour>
      <point x="-31" y="-220" type="curve" smooth="yes"/>
      <point x="83" y="-220"/>
      <point x="137" y="-151"/>
      <point x="161" y="0" type="curve"/>
      <point x="245" y="529" type="line" smooth="yes"/>
      <point x="252" y="576"/>
      <point x="262" y="583"/>
      <point x="282" y="583" type="curve" smooth="yes"/>
      <point x="292" y="583"/>
      <point x="304" y="580"/>
      <point x="317" y="575" type="curve"/>
      <point x="365" y="721" type="line"/>
      <point x="336" y="737"/>
      <point x="306" y="750"/>
      <point x="256" y="750" type="curve" smooth="yes"/>
      <point x="170" y="750"/>
      <point x="104" y="676"/>
      <point x="83" y="529" type="curve"/>
      <point x="44" y="522" type="line"/>
      <point x="20" y="379" type="line"/>
      <point x="59" y="379" type="line"/>
      <point x="4" y="27" type="line" smooth="yes"/>
      <point x="-3" y="-15"/>
      <point x="-18" y="-27"/>
      <point x="-37" y="-27" type="curve" smooth="yes"/>
      <point x="-44" y="-27"/>
      <point x="-51" y="-27"/>
      <point x="-65" y="-22" type="curve"/>
      <point x="-119" y="-202" type="line"/>
      <point x="-88" y="-214"/>
      <point x="-59" y="-220"/>
    </contour>
  </outline>
</glyph>
<glyph name="uni018F" format="2">
  <advance width="402"/>
  <unicode hex="018F"/>
  <outline>
    <contour>
      <point x="146" y="-10" type="curve" smooth="yes"/>
      <point x="314" y="-10"/>
      <point x="407" y="154"/>
      <point x="407" y="464" type="curve" smooth="yes"/>
      <point x="407" y="623"/>
      <point x="344" y="710"/>
      <point x="229" y="710" type="curve" smooth="yes"/>
      <point x="159" y="710"/>
      <point x="105" y="696"/>
      <point x="46" y="663" type="curve"/>
      <point x="81" y="501" type="line"/>
      <point x="114" y="523"/>
      <point x="150" y="534"/>
      <point x="185" y="534" type="curve" smooth="yes"/>
      <point x="223" y="534"/>
      <point x="246" y="515"/>
      <point x="246" y="418" type="curve" smooth="yes"/>
      <point x="246" y="319"/>
      <point x="213" y="164"/>
      <point x="178" y="164" type="curve" smooth="yes"/>
      <point x="159" y="164"/>
      <point x="153" y="181"/>
      <point x="153" y="208" type="curve" smooth="yes"/>
      <point x="153" y="273"/>
      <point x="193" y="343"/>
      <point x="228" y="343" type="curve" smooth="yes"/>
      <point x="236" y="343"/>
      <point x="243" y="343"/>
      <point x="251" y="343" type="curve"/>
      <point x="258" y="463" type="line"/>
      <point x="250" y="463"/>
      <point x="242" y="463"/>
      <point x="234" y="463" type="curve" smooth="yes"/>
      <point x="84" y="463"/>
      <point x="-5" y="361"/>
      <point x="-5" y="172" type="curve" smooth="yes"/>
      <point x="-5" y="66"/>
      <point x="50" y="-10"/>
    </contour>
  </outline>
</glyph>
<glyph name="florin" format="2">
	<advance width="420"/>
	<unicode hex="0192"/>
	<outline>
		<contour>
			<point x="282" y="260" type="line"/>
			<point x="323" y="260" type="line"/>
			<point x="347" y="410" type="line"/>
			<point x="306" y="410" type="line"/>
			<point x="317" y="480" type="line" smooth="yes"/>
			<point x="323" y="516"/>
			<point x="332" y="528"/>
			<point x="352" y="528" type="curve" smooth="yes"/>
			<point x="362" y="528"/>
			<point x="369" y="526"/>
			<point x="382" y="521" type="curve"/>
			<point x="438" y="681" type="line"/>
			<point x="409" y="697"/>
			<point x="379" y="710"/>
			<point x="329" y="710" type="curve" smooth="yes"/>
			<point x="243" y="710"/>
			<point x="180" y="636"/>
			<point x="158" y="504" type="curve" smooth="yes"/>
			<point x="143" y="410" type="line"/>
			<point x="104" y="403" type="line"/>
			<point x="80" y="260" type="line"/>
			<point x="119" y="260" type="line"/>
			<point x="44" y="-210" type="line"/>
			<point x="207" y="-210" type="line"/>
		</contour>
	</outline>
</glyph>
<glyph name="uni0259" format="2">
  <advance width="368"/>
  <unicode hex="0259"/>
  <outline>
    <contour>
      <point x="239" y="269" type="curve"/>
      <point x="269" y="374" type="line"/>
      <point x="228" y="376"/>
      <point x="189" y="369"/>
      <point x="154" y="356" type="curve" smooth="yes"/>
      <point x="57" y="321"/>
      <point x="-9" y="234"/>
      <point x="-9" y="126" type="curve" smooth="yes"/>
      <point x="-9" y="47"/>
      <point x="34" y="-10"/>
      <point x="126" y="-10" type="curve" smooth="yes"/>
      <point x="295" y="-10"/>
      <point x="359" y="173"/>
      <point x="359" y="352" type="curve" smooth="yes"/>
      <point x="359" y="486"/>
      <point x="304" y="560"/>
      <point x="192" y="560" type="curve" smooth="yes"/>
      <point x="137" y="560"/>
      <point x="85" y="546"/>
      <point x="42" y="522" type="curve"/>
      <point x="70" y="368" type="line"/>
      <point x="106" y="386"/>
      <point x="138" y="393"/>
      <point x="163" y="393" type="curve" smooth="yes"/>
      <point x="187" y="393"/>
      <point x="203" y="385"/>
      <point x="203" y="321" type="curve" smooth="yes"/>
      <point x="203" y="207"/>
      <point x="180" y="139"/>
      <point x="154" y="139" type="curve" smooth="yes"/>
      <point x="145" y="139"/>
      <point x="140" y="148"/>
      <point x="140" y="162" type="curve" smooth="yes"/>
      <point x="140" y="196"/>
      <point x="156" y="242"/>
      <point x="188" y="260" type="curve" smooth="yes"/>
      <point x="201" y="267"/>
      <point x="218" y="271"/>
    </contour>
  </outline>
</glyph>
<glyph name="acutecomb" format="2">
	<advance width="0"/>
	<unicode hex="0301"/>
	<anchor x="-99" y="789" name="top"/>
	<anchor x="-163" y="550" name="_top"/>
	<outline>
		<contour>
			<point x="-232" y="595" type="line"/>
			<point x="-106" y="595" type="line"/>
			<point x="2" y="789" type="line"/>
			<point x="-165" y="789" type="line"/>
		</contour>
	</outline>
</glyph>
<glyph name="uni0302" format="2">
	<advance width="0"/>
	<unicode hex="0302"/>
	<anchor x="-126" y="781" name="top"/>
	<anchor x="49" y="651" name="top_viet"/>
	<anchor x="-163" y="550" name="_top"/>
	<outline>
		<contour>
			<point x="-299" y="595" type="line"/>
			<point x="-166" y="595" type="line"/>
			<point x="-138" y="709" type="line"/>
			<point x="-146" y="595" type="line"/>
			<point x="-13" y="595" type="line"/>
			<point x="-35" y="789" type="line"/>
			<point x="-213" y="789" type="line"/>
		</contour>
	</outline>
</glyph>
<glyph name="uni0306" format="2">
	<advance width="0"/>
	<unicode hex="0306"/>
	<anchor x="-131" y="762" name="top"/>
	<anchor x="-163" y="550" name="_top"/>
	<outline>
		<contour>
			<point x="-157" y="600" type="curve" smooth="yes"/>
			<point x="-45" y="600"/>
			<point x="1" y="641"/>
			<point x="14" y="774" type="curve"/>
			<point x="-79" y="774" type="line"/>
			<point x="-83" y="750"/>
			<point x="-89" y="725"/>
			<point x="-137" y="725" type="curve" smooth="yes"/>
			<point x="-177" y="725"/>
			<point x="-185" y="741"/>
			<point x="-185" y="758" type="curve" smooth="yes"/>
			<point x="-185" y="762"/>
			<point x="-185" y="765"/>
			<point x="-183" y="774" type="curve"/>
			<point x="-276" y="774" type="line"/>
			<point x="-282" y="745"/>
			<point x="-285" y="719"/>
			<point x="-285" y="699" type="curve" smooth="yes"/>
			<point x="-285" y="613"/>
			<point x="-231" y="600"/>
		</contour>
	</outline>
</glyph>
<glyph name="hookabovecomb" format="2">
	<advance width="0"/>
	<unicode hex="0309"/>
	<anchor x="-134" y="806" name="top"/>
	<anchor x="-163" y="550" name="_top"/>
	<outline>
		<contour>
			<point x="-194" y="588" type="line"/>
			<point x="-76" y="603"/>
			<point x="-40" y="653"/>
			<point x="-40" y="717" type="curve" smooth="yes"/>
			<point x="-40" y="777"/>
			<point x="-86" y="805"/>
			<point x="-148" y="805" type="curve" smooth="yes"/>
			<point x="-176" y="805"/>
			<point x="-204" y="798"/>
			<point x="-219" y="793" type="curve"/>
			<point x="-233" y="700" type="line"/>
			<point x="-219" y="703"/>
			<point x="-208" y="705"/>
			<point x="-193" y="705" type="curve" smooth="yes"/>
			<point x="-168" y="705"/>
			<point x="-159" y="696"/>
			<point x="-159" y="683" type="curve" smooth="yes"/>
			<point x="-159" y="664"/>
			<point x="-174" y="657"/>
			<point x="-196" y="656" type="curve"/>
		</contour>
	</outline>
</glyph>
<glyph name="uni030A" format="2">
	<advance width="0"/>
	<unicode hex="030A"/>
	<anchor x="-125" y="790" name="top"/>
	<anchor x="-163" y="550" name="_top"/>
	<outline>
		<contour>
			<point x="-145" y="587" type="curve" smooth="yes"/>
			<point x="-73" y="587"/>
			<point x="-37" y="635"/>
			<point x="-37" y="705" type="curve" smooth="yes"/>
			<point x="-37" y="761"/>
			<point x="-75" y="801"/>
			<point x="-135" y="801" type="curve" smooth="yes"/>
			<point x="-207" y="801"/>
			<point x="-243" y="753"/>
			<point x="-243" y="683" type="curve" smooth="yes"/>
			<point x="-243" y="627"/>
			<point x="-205" y="587"/>
		</contour>
		<contour>
			<point x="-142" y="672" type="curve" smooth="yes"/>
			<point x="-154" y="672"/>
			<point x="-159" y="680"/>
			<point x="-159" y="690" type="curve" smooth="yes"/>
			<point x="-159" y="706"/>
			<point x="-152" y="716"/>
			<point x="-138" y="716" type="curve" smooth="yes"/>
			<point x="-126" y="716"/>
			<point x="-121" y="708"/>
			<point x="-121" y="698" type="curve" smooth="yes"/>
			<point x="-121" y="682"/>
			<point x="-128" y="672"/>
		</contour>
	</outline>
</glyph>
<glyph name="uni030B" format="2">
	<advance width="0"/>
	<unicode hex="030B"/>
	<anchor x="-105" y="789" name="top"/>
	<anchor x="-163" y="550" name="_top"/>
	<outline>
		<contour>
			<point x="-139" y="595" type="line"/>
			<point x="-37" y="595" type="line"/>
			<point x="50" y="789" type="line"/>
			<point x="-83" y="789" type="line"/>
		</contour>
		<contour>
			<point x="-291" y="595" type="line"/>
			<point x="-189" y="595" type="line"/>
			<point x="-102" y="789" type="line"/>
			<point x="-236" y="789" type="line"/>
		</contour>
	</outline>
</glyph>
<glyph name="uni030F" format="2">
	<advance width="0"/>
	<unicode hex="030F"/>
	<anchor x="-165" y="789" name="top"/>
	<anchor x="-163" y="550" name="_top"/>
	<outline>
		<contour>
			<point x="-285" y="595" type="line"/>
			<point x="-182" y="595" type="line"/>
			<point x="-197" y="789" type="line"/>
			<point x="-338" y="789" type="line"/>
		</contour>
		<contour>
			<point x="-126" y="595" type="line"/>
			<point x="-23" y="595" type="line"/>
			<point x="-38" y="789" type="line"/>
			<point x="-179" y="789" type="line"/>
		</contour>
	</outline>
</glyph>
<glyph name="uni0312" format="2">
	<advance width="0"/>
	<unicode hex="0312"/>
	<anchor x="-163" y="550" name="_top"/>
	<outline>
		<contour>
			<point x="-77" y="592" type="line"/>
			<point x="-77" y="602"/>
			<point x="-77" y="614"/>
			<point x="-74" y="631" type="curve" smooth="yes"/>
			<point x="-69" y="663"/>
			<point x="-54" y="699"/>
			<point x="-27" y="739" type="curve"/>
			<point x="-134" y="739" type="line"/>
			<point x="-174" y="700"/>
			<point x="-202" y="658"/>
			<point x="-206" y="605" type="curve" smooth="yes"/>
			<point x="-206" y="601"/>
			<point x="-206" y="596"/>
			<point x="-206" y="592" type="curve"/>
		</contour>
	</outline>
</glyph>
<glyph name="uni0327" format="2">
	<advance width="0"/>
	<unicode hex="0327"/>
	<anchor x="-239" y="0" name="_bottom"/>
	<anchor x="-298" y="-220" name="bottom"/>
	<outline>
		<contour>
			<point x="-360" y="-209" type="line"/>
			<point x="-342" y="-216"/>
			<point x="-324" y="-220"/>
			<point x="-298" y="-220" type="curve" smooth="yes"/>
			<point x="-218" y="-220"/>
			<point x="-164" y="-160"/>
			<point x="-164" y="-70" type="curve" smooth="yes"/>
			<point x="-164" y="-41"/>
			<point x="-167" y="-14"/>
			<point x="-176" y="8" type="curve"/>
			<point x="-272" y="7" type="line"/>
			<point x="-266" y="-10"/>
			<point x="-263" y="-21"/>
			<point x="-263" y="-45" type="curve" smooth="yes"/>
			<point x="-263" y="-82"/>
			<point x="-285" y="-96"/>
			<point x="-313" y="-96" type="curve" smooth="yes"/>
			<point x="-324" y="-96"/>
			<point x="-330" y="-95"/>
			<point x="-340" y="-92" type="curve"/>
		</contour>
	</outline>
</glyph>
<glyph name="uni0328" format="2">
	<advance width="0"/>
	<unicode hex="0328"/>
	<anchor x="-173" y="0" name="_ogonek"/>
	<outline>
		<contour>
			<point x="-265" y="10" type="line"/>
			<point x="-307" y="-29"/>
			<point x="-343" y="-77"/>
			<point x="-343" y="-130" type="curve" smooth="yes"/>
			<point x="-343" y="-192"/>
			<point x="-302" y="-220"/>
			<point x="-245" y="-220" type="curve" smooth="yes"/>
			<point x="-223" y="-220"/>
			<point x="-203" y="-214"/>
			<point x="-183" y="-206" type="curve"/>
			<point x="-169" y="-71" type="line"/>
			<point x="-169" y="-71"/>
			<point x="-176" y="-73"/>
			<point x="-183" y="-73" type="curve" smooth="yes"/>
			<point x="-193" y="-73"/>
			<point x="-197" y="-66"/>
			<point x="-197" y="-56" type="curve" smooth="yes"/>
			<point x="-197" y="-34"/>
			<point x="-182" y="-10"/>
			<point x="-173" y="0" type="curve"/>
		</contour>
	</outline>
</glyph>
<glyph name="uni0335" format="2">
	<advance width="0"/>
	<unicode hex="0335"/>
	<anchor x="-89" y="350" name="_center"/>
	<outline>
		<contour>
			<point x="-246" y="268" type="line"/>
			<point x="41" y="268" type="line"/>
			<point x="67" y="432" type="line"/>
			<point x="-220" y="432" type="line"/>
		</contour>
	</outline>
</glyph>
<glyph name="pi" format="2">
	<advance width="445"/>
	<unicode hex="03C0"/>
	<outline>
		<contour>
			<point x="294" y="-10" type="curve" smooth="yes"/>
			<point x="335" y="-10"/>
			<point x="362" y="2"/>
			<point x="386" y="15" type="curve"/>
			<point x="403" y="185" type="line"/>
			<point x="400" y="184"/>
			<point x="395" y="183"/>
			<point x="391" y="183" type="curve" smooth="yes"/>
			<point x="387" y="183"/>
			<point x="384" y="185"/>
			<point x="384" y="193" type="curve" smooth="yes"/>
			<point x="384" y="197"/>
			<point x="385" y="201"/>
			<point x="410" y="361" type="curve"/>
			<point x="440" y="361" type="line"/>
			<point x="470" y="550" type="line"/>
			<point x="216" y="550" type="line" smooth="yes"/>
			<point x="130" y="550"/>
			<point x="107" y="534"/>
			<point x="64" y="498" type="curve"/>
			<point x="37" y="339" type="line"/>
			<point x="45" y="345"/>
			<point x="59" y="351"/>
			<point x="71" y="355" type="curve"/>
			<point x="42" y="237"/>
			<point x="14" y="118"/>
			<point x="-15" y="0" type="curve"/>
			<point x="149" y="0" type="line"/>
			<point x="177" y="120"/>
			<point x="204" y="241"/>
			<point x="232" y="361" type="curve"/>
			<point x="253" y="361" type="line"/>
			<point x="215" y="118"/>
			<point x="212" y="95"/>
			<point x="212" y="75" type="curve" smooth="yes"/>
			<point x="212" y="13"/>
			<point x="236" y="-10"/>
		</contour>
	</outline>
</glyph>
<glyph name="endash" format="2">
  <advance width="400"/>
  <unicode hex="2013"/>
  <outline>
    <contour>
      <point x="14" y="234" type="line"/>
      <point x="371" y="234" type="line"/>
      <point x="400" y="402" type="line"/>
      <point x="43" y="402" type="line"/>
    </contour>
  </outline>
</glyph>
<glyph name="emdash" format="2">
  <advance width="593"/>
  <unicode hex="2014"/>
  <outline>
    <contour>
      <point x="14" y="234" type="line"/>
      <point x="564" y="234" type="line"/>
      <point x="593" y="402" type="line"/>
      <point x="43" y="402" type="line"/>
    </contour>
  </outline>
</glyph>
<glyph name="quoteleft" format="2">
	<advance width="183"/>
	<unicode hex="2018"/>
	<outline>
		<contour>
			<point x="33" y="430" type="curve"/>
			<point x="188" y="430" type="line"/>
			<point x="198" y="524"/>
			<point x="212" y="583"/>
			<point x="243" y="678" type="curve"/>
			<point x="120" y="700" type="line"/>
			<point x="71" y="618"/>
			<point x="52" y="546"/>
		</contour>
	</outline>
</glyph>
<glyph name="quoteright" format="2">
	<advance width="183"/>
	<unicode hex="2019"/>
	<outline>
		<contour>
			<point x="242" y="700" type="curve"/>
			<point x="87" y="700" type="line"/>
			<point x="77" y="606"/>
			<point x="63" y="547"/>
			<point x="32" y="452" type="curve"/>
			<point x="155" y="430" type="line"/>
			<point x="204" y="512"/>
			<point x="223" y="584"/>
		</contour>
	</outline>
</glyph>
<glyph name="minute" format="2">
	<advance width="208"/>
	<unicode hex="2032"/>
	<outline>
		<contour>
			<point x="28" y="427" type="line"/>
			<point x="174" y="427" type="line"/>
			<point x="271" y="700" type="line"/>
			<point x="106" y="700" type="line"/>
		</contour>
	</outline>
</glyph>
<glyph name="guilsinglright" format="2">
  <advance width="224"/>
  <unicode hex="203A"/>
  <outline>
    <contour>
      <point x="2" y="225" type="line"/>
      <point x="-37" y="-11" type="line"/>
      <point x="189" y="116" type="line"/>
      <point x="239" y="420" type="line"/>
      <point x="55" y="548" type="line"/>
      <point x="15" y="312" type="line"/>
      <point x="116" y="264" type="line"/>
    </contour>
  </outline>
</glyph>
<glyph name="uni2052" format="2">
  <advance width="420"/>
  <unicode hex="2052"/>
  <outline>
    <contour>
      <point x="-43" y="0" type="line"/>
      <point x="104" y="0" type="line"/>
      <point x="486" y="700" type="line"/>
      <point x="339" y="700" type="line"/>
    </contour>
    <contour>
      <point x="51" y="548" type="curve" smooth="yes"/>
      <point x="51" y="496"/>
      <point x="73" y="471"/>
      <point x="124" y="471" type="curve" smooth="yes"/>
      <point x="209" y="471"/>
      <point x="233" y="566"/>
      <point x="233" y="631" type="curve" smooth="yes"/>
      <point x="233" y="681"/>
      <point x="211" y="706"/>
      <point x="161" y="706" type="curve" smooth="yes"/>
      <point x="77" y="706"/>
      <point x="51" y="613"/>
    </contour>
    <contour>
      <point x="209" y="70" type="curve" smooth="yes"/>
      <point x="209" y="18"/>
      <point x="231" y="-7"/>
      <point x="282" y="-7" type="curve" smooth="yes"/>
      <point x="367" y="-7"/>
      <point x="391" y="88"/>
      <point x="391" y="153" type="curve" smooth="yes"/>
      <point x="391" y="203"/>
      <point x="369" y="228"/>
      <point x="319" y="228" type="curve" smooth="yes"/>
      <point x="235" y="228"/>
      <point x="209" y="135"/>
    </contour>
  </outline>
</glyph>
<glyph name="uni2074" format="2">
	<advance width="262"/>
	<unicode hex="2074"/>
	<outline>
		<contour>
			<point x="39" y="410" type="line"/>
			<point x="129" y="410" type="line"/>
			<point x="122" y="370" type="line"/>
			<point x="230" y="370" type="line"/>
			<point x="236" y="410" type="line"/>
			<point x="264" y="410" type="line"/>
			<point x="278" y="494" type="line"/>
			<point x="250" y="494" type="line"/>
			<point x="292" y="768" type="line"/>
			<point x="169" y="768" type="line"/>
			<point x="53" y="494" type="line"/>
		</contour>
		<contour>
			<point x="113" y="494" type="line"/>
			<point x="176" y="642" type="line"/>
			<point x="149" y="494" type="line"/>
		</contour>
	</outline>
</glyph>
<glyph name="uni2076" format="2">
  <advance width="263"/>
  <unicode hex="2076"/>
  <outline>
    <contour>
      <point x="156" y="366" type="curve" smooth="yes"/>
      <point x="238" y="366"/>
      <point x="286" y="447"/>
      <point x="286" y="558" type="curve" smooth="yes"/>
      <point x="286" y="617"/>
      <point x="254" y="636"/>
      <point x="221" y="636" type="curve" smooth="yes"/>
      <point x="198" y="636"/>
      <point x="183" y="629"/>
      <point x="165" y="612" type="curve"/>
      <point x="154" y="542" type="line"/>
      <point x="162" y="552"/>
      <point x="166" y="554"/>
      <point x="170" y="554" type="curve" smooth="yes"/>
      <point x="178" y="554"/>
      <point x="180" y="548"/>
      <point x="180" y="529" type="curve" smooth="yes"/>
      <point x="180" y="500"/>
      <point x="171" y="455"/>
      <point x="161" y="455" type="curve" smooth="yes"/>
      <point x="157" y="455"/>
      <point x="153" y="457"/>
      <point x="153" y="463" type="curve" smooth="yes"/>
      <point x="153" y="481"/>
      <point x="159" y="527"/>
      <point x="171" y="598" type="curve" smooth="yes"/>
      <point x="180" y="653"/>
      <point x="196" y="681"/>
      <point x="237" y="681" type="curve" smooth="yes"/>
      <point x="255" y="681"/>
      <point x="269" y="675"/>
      <point x="279" y="669" type="curve"/>
      <point x="315" y="753" type="line"/>
      <point x="306" y="762"/>
      <point x="277" y="776"/>
      <point x="244" y="776" type="curve" smooth="yes"/>
      <point x="112" y="776"/>
      <point x="56" y="637"/>
      <point x="56" y="482" type="curve" smooth="yes"/>
      <point x="56" y="396"/>
      <point x="97" y="366"/>
    </contour>
  </outline>
</glyph>
<glyph name="uni2077" format="2">
	<advance width="261"/>
	<unicode hex="2077"/>
	<outline>
		<contour>
			<point x="62" y="370" type="curve"/>
			<point x="170" y="370" type="line"/>
			<point x="185" y="443"/>
			<point x="199" y="483"/>
			<point x="244" y="575" type="curve" smooth="yes"/>
			<point x="303" y="696" type="line"/>
			<point x="315" y="768" type="line"/>
			<point x="102" y="768" type="line"/>
			<point x="87" y="677" type="line"/>
			<point x="193" y="677" type="line"/>
			<point x="140" y="582" type="line" smooth="yes"/>
			<point x="97" y="505"/>
			<point x="75" y="444"/>
		</contour>
	</outline>
</glyph>
<glyph name="uni2079" format="2">
  <advance width="262"/>
  <unicode hex="2079"/>
  <outline>
    <contour>
      <point x="200" y="776" type="curve" smooth="yes"/>
      <point x="118" y="776"/>
      <point x="70" y="695"/>
      <point x="70" y="584" type="curve" smooth="yes"/>
      <point x="70" y="525"/>
      <point x="102" y="506"/>
      <point x="135" y="506" type="curve" smooth="yes"/>
      <point x="158" y="506"/>
      <point x="173" y="513"/>
      <point x="191" y="530" type="curve"/>
      <point x="202" y="600" type="line"/>
      <point x="194" y="590"/>
      <point x="190" y="588"/>
      <point x="186" y="588" type="curve" smooth="yes"/>
      <point x="178" y="588"/>
      <point x="176" y="594"/>
      <point x="176" y="613" type="curve" smooth="yes"/>
      <point x="176" y="642"/>
      <point x="185" y="687"/>
      <point x="195" y="687" type="curve" smooth="yes"/>
      <point x="199" y="687"/>
      <point x="203" y="685"/>
      <point x="203" y="679" type="curve" smooth="yes"/>
      <point x="203" y="661"/>
      <point x="197" y="615"/>
      <point x="185" y="544" type="curve" smooth="yes"/>
      <point x="176" y="489"/>
      <point x="160" y="461"/>
      <point x="119" y="461" type="curve" smooth="yes"/>
      <point x="101" y="461"/>
      <point x="87" y="467"/>
      <point x="77" y="473" type="curve"/>
      <point x="41" y="389" type="line"/>
      <point x="50" y="380"/>
      <point x="79" y="366"/>
      <point x="112" y="366" type="curve" smooth="yes"/>
      <point x="244" y="366"/>
      <point x="300" y="505"/>
      <point x="300" y="660" type="curve" smooth="yes"/>
      <point x="300" y="746"/>
      <point x="259" y="776"/>
    </contour>
  </outline>
</glyph>
<glyph name="uni207C" format="2">
	<advance width="232"/>
	<unicode hex="207C"/>
	<outline>
		<contour>
			<point x="237" y="525" type="line"/>
			<point x="75" y="525" type="line"/>
			<point x="60" y="433" type="line"/>
			<point x="222" y="433" type="line"/>
		</contour>
		<contour>
			<point x="257" y="652" type="line"/>
			<point x="95" y="652" type="line"/>
			<point x="80" y="560" type="line"/>
			<point x="242" y="560" type="line"/>
		</contour>
	</outline>
</glyph>
<glyph name="uni20A6" format="2">
	<advance width="420"/>
	<unicode hex="20A6"/>
	<outline>
		<contour>
			<point x="4" y="0" type="line"/>
			<point x="125" y="0" type="line"/>
			<point x="177" y="329" type="line"/>
			<point x="189" y="0" type="line"/>
			<point x="328" y="0" type="line"/>
			<point x="439" y="700" type="line"/>
			<point x="318" y="700" type="line"/>
			<point x="262" y="343" type="line"/>
			<point x="254" y="700" type="line"/>
			<point x="115" y="700" type="line"/>
		</contour>
		<contour>
			<point x="11" y="305" type="line"/>
			<point x="87" y="305" type="line"/>
			<point x="101" y="396" type="line"/>
			<point x="25" y="396" type="line"/>
		</contour>
		<contour>
			<point x="343" y="305" type="line"/>
			<point x="419" y="305" type="line"/>
			<point x="433" y="396" type="line"/>
			<point x="357" y="396" type="line"/>
		</contour>
	</outline>
</glyph>
<glyph name="dong" format="2">
	<advance width="420"/>
	<unicode hex="20AB"/>
	<outline>
		<contour>
			<point x="-18" y="0" type="line"/>
			<point x="355" y="0" type="line"/>
			<point x="373" y="108" type="line"/>
			<point x="0" y="108" type="line"/>
		</contour>
		<contour>
			<point x="113" y="592" type="line"/>
			<point x="471" y="592" type="line"/>
			<point x="488" y="700" type="line"/>
			<point x="130" y="700" type="line"/>
		</contour>
		<contour>
			<point x="298" y="126" type="curve" smooth="yes"/>
			<point x="326" y="126"/>
			<point x="360" y="135"/>
			<point x="378" y="150" type="curve"/>
			<point x="395" y="264" type="line"/>
			<point x="391" y="263"/>
			<point x="388" y="263"/>
			<point x="386" y="263" type="curve" smooth="yes"/>
			<point x="377" y="263"/>
			<point x="376" y="267"/>
			<point x="376" y="273" type="curve" smooth="yes"/>
			<point x="376" y="291"/>
			<point x="450" y="740"/>
			<point x="450" y="740" type="curve"/>
			<point x="289" y="740" type="line"/>
			<point x="257" y="544" type="line"/>
			<point x="240" y="555"/>
			<point x="222" y="560"/>
			<point x="202" y="560" type="curve" smooth="yes"/>
			<point x="99" y="560"/>
			<point x="29" y="448"/>
			<point x="29" y="273" type="curve" smooth="yes"/>
			<point x="29" y="186"/>
			<point x="66" y="126"/>
			<point x="133" y="126" type="curve" smooth="yes"/>
			<point x="169" y="126"/>
			<point x="197" y="147"/>
			<point x="216" y="171" type="curve"/>
			<point x="235" y="139"/>
			<point x="257" y="126"/>
		</contour>
		<contour>
			<point x="203" y="263" type="curve" smooth="yes"/>
			<point x="195" y="263"/>
			<point x="191" y="272"/>
			<point x="191" y="283" type="curve" smooth="yes"/>
			<point x="191" y="331"/>
			<point x="208" y="427"/>
			<point x="231" y="427" type="curve" smooth="yes"/>
			<point x="233" y="427"/>
			<point x="234" y="427"/>
			<point x="237" y="426" type="curve"/>
			<point x="212" y="266" type="line"/>
			<point x="209" y="264"/>
			<point x="205" y="263"/>
		</contour>
	</outline>
</glyph>
<glyph name="Euro" format="2">
	<advance width="420"/>
	<unicode hex="20AC"/>
	<outline>
		<contour>
			<point x="76" y="184" type="curve" smooth="yes"/>
			<point x="76" y="49"/>
			<point x="124" y="-10"/>
			<point x="233" y="-10" type="curve" smooth="yes"/>
			<point x="265" y="-10"/>
			<point x="295" y="-9"/>
			<point x="342" y="17" type="curve"/>
			<point x="342" y="180" type="line"/>
			<point x="311" y="165"/>
			<point x="295" y="162"/>
			<point x="277" y="162" type="curve" smooth="yes"/>
			<point x="243" y="162"/>
			<point x="230" y="182"/>
			<point x="230" y="222" type="curve" smooth="yes"/>
			<point x="230" y="413"/>
			<point x="274" y="534"/>
			<point x="343" y="534" type="curve" smooth="yes"/>
			<point x="359" y="534"/>
			<point x="383" y="527"/>
			<point x="400" y="518" type="curve"/>
			<point x="456" y="681" type="line"/>
			<point x="425" y="700"/>
			<point x="372" y="710"/>
			<point x="331" y="710" type="curve" smooth="yes"/>
			<point x="119" y="710"/>
			<point x="76" y="324"/>
		</contour>
		<contour>
			<point x="364" y="352" type="line"/>
			<point x="378" y="443" type="line"/>
			<point x="56" y="443" type="line"/>
			<point x="43" y="352" type="line"/>
		</contour>
		<contour>
			<point x="346" y="239" type="line"/>
			<point x="360" y="330" type="line"/>
			<point x="39" y="330" type="line"/>
			<point x="24" y="239" type="line"/>
		</contour>
	</outline>
</glyph>
<glyph name="uni20AD" format="2">
	<advance width="420"/>
	<unicode hex="20AD"/>
	<outline>
		<contour>
			<point x="335" y="-10" type="curve" smooth="yes"/>
			<point x="363" y="-10"/>
			<point x="375" y="-6"/>
			<point x="391" y="4" type="curve"/>
			<point x="405" y="167" type="line"/>
			<point x="397" y="167"/>
			<point x="392" y="167"/>
			<point x="388" y="167" type="curve" smooth="yes"/>
			<point x="371" y="167"/>
			<point x="356" y="180"/>
			<point x="347" y="215" type="curve" smooth="yes"/>
			<point x="324" y="306" type="line"/>
			<point x="417" y="306" type="line"/>
			<point x="431" y="397" type="line"/>
			<point x="342" y="397" type="line"/>
			<point x="405" y="493"/>
			<point x="459" y="575"/>
			<point x="491" y="688" type="curve"/>
			<point x="360" y="700" type="line"/>
			<point x="329" y="588"/>
			<point x="267" y="480"/>
			<point x="218" y="405" type="curve"/>
			<point x="265" y="700" type="line"/>
			<point x="121" y="700" type="line"/>
			<point x="73" y="397" type="line"/>
			<point x="25" y="397" type="line"/>
			<point x="11" y="306" type="line"/>
			<point x="59" y="306" type="line"/>
			<point x="10" y="0" type="line"/>
			<point x="154" y="0" type="line"/>
			<point x="198" y="282" type="line"/>
			<point x="234" y="89" type="line" smooth="yes"/>
			<point x="247" y="18"/>
			<point x="286" y="-10"/>
		</contour>
	</outline>
</glyph>
<glyph name="uni20B1" format="2">
	<advance width="420"/>
	<unicode hex="20B1"/>
	<outline>
		<contour>
			<point x="-14" y="0" type="line"/>
			<point x="143" y="0" type="line"/>
			<point x="170" y="167" type="line"/>
			<point x="194" y="163"/>
			<point x="198" y="163"/>
			<point x="219" y="163" type="curve" smooth="yes"/>
			<point x="330" y="163"/>
			<point x="421" y="312"/>
			<point x="421" y="520" type="curve" smooth="yes"/>
			<point x="421" y="648"/>
			<point x="372" y="710"/>
			<point x="270" y="710" type="curve" smooth="yes"/>
			<point x="225" y="710"/>
			<point x="156" y="707"/>
			<point x="97" y="702" type="curve"/>
		</contour>
		<contour>
			<point x="233" y="562" type="line"/>
			<point x="238" y="564"/>
			<point x="242" y="565"/>
			<point x="246" y="565" type="curve" smooth="yes"/>
			<point x="260" y="565"/>
			<point x="267" y="550"/>
			<point x="267" y="507" type="curve" smooth="yes"/>
			<point x="267" y="442"/>
			<point x="239" y="308"/>
			<point x="203" y="308" type="curve" smooth="yes"/>
			<point x="198" y="308"/>
			<point x="195" y="309"/>
			<point x="192" y="310" type="curve"/>
		</contour>
		<contour>
			<point x="29" y="444" type="line"/>
			<point x="128" y="444" type="line"/>
			<point x="145" y="548" type="line"/>
			<point x="46" y="548" type="line"/>
		</contour>
		<contour>
			<point x="357" y="444" type="line"/>
			<point x="445" y="444" type="line"/>
			<point x="462" y="548" type="line"/>
			<point x="374" y="548" type="line"/>
		</contour>
		<contour>
			<point x="6" y="304" type="line"/>
			<point x="105" y="304" type="line"/>
			<point x="122" y="408" type="line"/>
			<point x="23" y="408" type="line"/>
		</contour>
		<contour>
			<point x="334" y="304" type="line"/>
			<point x="422" y="304" type="line"/>
			<point x="439" y="408" type="line"/>
			<point x="351" y="408" type="line"/>
		</contour>
	</outline>
</glyph>
<glyph name="uni20B5" format="2">
	<advance width="420"/>
	<unicode hex="20B5"/>
	<outline>
		<contour>
			<point x="264" y="-10" type="curve" smooth="yes"/>
			<point x="302" y="-10"/>
			<point x="333" y="-7"/>
			<point x="363" y="4" type="curve"/>
			<point x="359" y="153" type="line"/>
			<point x="342" y="149"/>
			<point x="320" y="146"/>
			<point x="306" y="146" type="curve" smooth="yes"/>
			<point x="244" y="146"/>
			<point x="207" y="173"/>
			<point x="207" y="287" type="curve" smooth="yes"/>
			<point x="207" y="423"/>
			<point x="261" y="554"/>
			<point x="363" y="554" type="curve" smooth="yes"/>
			<point x="384" y="554"/>
			<point x="400" y="550"/>
			<point x="417" y="543" type="curve"/>
			<point x="469" y="682" type="line"/>
			<point x="440" y="698"/>
			<point x="396" y="710"/>
			<point x="352" y="710" type="curve" smooth="yes"/>
			<point x="153" y="710"/>
			<point x="44" y="530"/>
			<point x="44" y="258" type="curve" smooth="yes"/>
			<point x="44" y="78"/>
			<point x="126" y="-10"/>
		</contour>
		<contour>
			<point x="265" y="656" type="line"/>
			<point x="411" y="653" type="line"/>
			<point x="434" y="803" type="line"/>
			<point x="289" y="803" type="line"/>
		</contour>
		<contour>
			<point x="314" y="54" type="line"/>
			<point x="167" y="37" type="line"/>
			<point x="146" y="-105" type="line"/>
			<point x="291" y="-105" type="line"/>
		</contour>
	</outline>
</glyph>
<glyph name="uni20BC" format="2">
	<advance width="420"/>
	<unicode hex="20BC"/>
	<outline>
		<contour>
			<point x="-29" y="0" type="curve"/>
			<point x="88" y="0" type="line"/>
			<point x="125" y="215"/>
			<point x="164" y="553"/>
			<point x="250" y="553" type="curve" smooth="yes"/>
			<point x="285" y="553"/>
			<point x="300" y="528"/>
			<point x="300" y="457" type="curve" smooth="yes"/>
			<point x="300" y="369"/>
			<point x="267" y="121"/>
			<point x="244" y="0" type="curve"/>
			<point x="361" y="0" type="line"/>
			<point x="390" y="178"/>
			<point x="413" y="372"/>
			<point x="413" y="464" type="curve" smooth="yes"/>
			<point x="413" y="608"/>
			<point x="374" y="657"/>
			<point x="259" y="657" type="curve" smooth="yes"/>
			<point x="61" y="657"/>
			<point x="34" y="345"/>
		</contour>
		<contour>
			<point x="129" y="56" type="line"/>
			<point x="222" y="56" type="line"/>
			<point x="326" y="710" type="line"/>
			<point x="233" y="710" type="line"/>
		</contour>
	</outline>
</glyph>
<glyph name="uni20BD" format="2">
	<advance width="420"/>
	<unicode hex="20BD"/>
	<outline>
		<contour>
			<point x="20" y="0" type="line"/>
			<point x="169" y="0" type="line"/>
			<point x="184" y="95" type="line"/>
			<point x="302" y="95" type="line"/>
			<point x="319" y="199" type="line"/>
			<point x="201" y="199" type="line"/>
			<point x="205" y="225" type="line"/>
			<point x="222" y="225" type="line" smooth="yes"/>
			<point x="351" y="225"/>
			<point x="437" y="347"/>
			<point x="437" y="520" type="curve" smooth="yes"/>
			<point x="437" y="648"/>
			<point x="389" y="710"/>
			<point x="287" y="710" type="curve" smooth="yes"/>
			<point x="242" y="710"/>
			<point x="182" y="707"/>
			<point x="131" y="702" type="curve"/>
			<point x="74" y="339" type="line"/>
			<point x="28" y="339" type="line"/>
			<point x="10" y="225" type="line"/>
			<point x="56" y="225" type="line"/>
			<point x="51" y="199" type="line"/>
			<point x="6" y="199" type="line"/>
			<point x="-11" y="95" type="line"/>
			<point x="35" y="95" type="line"/>
		</contour>
		<contour>
			<point x="223" y="339" type="line"/>
			<point x="261" y="579" type="line"/>
			<point x="266" y="581"/>
			<point x="270" y="582"/>
			<point x="274" y="582" type="curve" smooth="yes"/>
			<point x="288" y="582"/>
			<point x="295" y="567"/>
			<point x="295" y="524" type="curve" smooth="yes"/>
			<point x="295" y="469"/>
			<point x="272" y="339"/>
			<point x="226" y="339" type="curve" smooth="yes"/>
		</contour>
	</outline>
</glyph>
<glyph name="uni2113" format="2">
	<advance width="341"/>
	<unicode hex="2113"/>
	<outline>
		<contour>
			<point x="169" y="-10" type="curve" smooth="yes"/>
			<point x="189" y="-10"/>
			<point x="251" y="-2"/>
			<point x="293" y="30" type="curve"/>
			<point x="277" y="161" type="line"/>
			<point x="256" y="151"/>
			<point x="243" y="147"/>
			<point x="225" y="147" type="curve" smooth="yes"/>
			<point x="200" y="147"/>
			<point x="184" y="152"/>
			<point x="174" y="167" type="curve"/>
			<point x="313" y="261"/>
			<point x="361" y="452"/>
			<point x="361" y="604" type="curve" smooth="yes"/>
			<point x="361" y="720"/>
			<point x="312" y="750"/>
			<point x="240" y="750" type="curve" smooth="yes"/>
			<point x="74" y="750"/>
			<point x="60" y="461"/>
			<point x="33" y="267" type="curve"/>
			<point x="26" y="267"/>
			<point x="19" y="267"/>
			<point x="12" y="267" type="curve"/>
			<point x="-9" y="134" type="line"/>
			<point x="5" y="132"/>
			<point x="20" y="130"/>
			<point x="34" y="130" type="curve"/>
			<point x="46" y="36"/>
			<point x="89" y="-10"/>
		</contour>
		<contour>
			<point x="169" y="323" type="curve"/>
			<point x="183" y="407"/>
			<point x="208" y="605"/>
			<point x="226" y="605" type="curve" smooth="yes"/>
			<point x="236" y="605"/>
			<point x="241" y="602"/>
			<point x="241" y="581" type="curve" smooth="yes"/>
			<point x="241" y="484"/>
			<point x="204" y="365"/>
		</contour>
	</outline>
</glyph>
<glyph name="uni2117" format="2">
  <advance width="652"/>
  <unicode hex="2117"/>
  <outline>
    <contour>
      <point x="311" y="42" type="curve" smooth="yes"/>
      <point x="178" y="42"/>
      <point x="94" y="115"/>
      <point x="94" y="273" type="curve" smooth="yes"/>
      <point x="94" y="480"/>
      <point x="176" y="658"/>
      <point x="364" y="658" type="curve" smooth="yes"/>
      <point x="497" y="658"/>
      <point x="581" y="585"/>
      <point x="581" y="427" type="curve" smooth="yes"/>
      <point x="581" y="220"/>
      <point x="499" y="42"/>
    </contour>
    <contour>
      <point x="306" y="-10" type="curve" smooth="yes"/>
      <point x="530" y="-10"/>
      <point x="636" y="186"/>
      <point x="636" y="426" type="curve" smooth="yes"/>
      <point x="636" y="617"/>
      <point x="535" y="710"/>
      <point x="369" y="710" type="curve" smooth="yes"/>
      <point x="145" y="710"/>
      <point x="39" y="514"/>
      <point x="39" y="274" type="curve" smooth="yes"/>
      <point x="39" y="83"/>
      <point x="140" y="-10"/>
    </contour>
    <contour>
      <point x="195" y="128" type="line"/>
      <point x="301" y="128" type="line"/>
      <point x="318" y="231" type="line"/>
      <point x="335" y="228"/>
      <point x="337" y="228"/>
      <point x="350" y="228" type="curve" smooth="yes"/>
      <point x="432" y="228"/>
      <point x="491" y="321"/>
      <point x="491" y="452" type="curve" smooth="yes"/>
      <point x="491" y="540"/>
      <point x="457" y="593"/>
      <point x="374" y="593" type="curve" smooth="yes"/>
      <point x="360" y="593"/>
      <point x="321" y="592"/>
      <point x="269" y="587" type="curve"/>
    </contour>
    <contour>
      <point x="347" y="330" type="curve" smooth="yes"/>
      <point x="343" y="330"/>
      <point x="340" y="330"/>
      <point x="336" y="332" type="curve"/>
      <point x="359" y="490" type="line"/>
      <point x="364" y="492"/>
      <point x="367" y="492"/>
      <point x="370" y="492" type="curve" smooth="yes"/>
      <point x="380" y="492"/>
      <point x="384" y="485"/>
      <point x="384" y="460" type="curve" smooth="yes"/>
      <point x="384" y="386"/>
      <point x="368" y="330"/>
    </contour>
  </outline>
</glyph>
<glyph name="uni2120" format="2">
  <advance width="504"/>
  <unicode hex="2120"/>
  <outline>
    <contour>
      <point x="238" y="370" type="line"/>
      <point x="340" y="370" type="line"/>
      <point x="364" y="528" type="line"/>
      <point x="364" y="432" type="line"/>
      <point x="394" y="432" type="line"/>
      <point x="424" y="528" type="line"/>
      <point x="400" y="370" type="line"/>
      <point x="503" y="370" type="line"/>
      <point x="555" y="700" type="line"/>
      <point x="449" y="700" type="line"/>
      <point x="406" y="601" type="line"/>
      <point x="396" y="700" type="line"/>
      <point x="290" y="700" type="line"/>
    </contour>
    <contour>
      <point x="252" y="688" type="line"/>
      <point x="240" y="696"/>
      <point x="209" y="705"/>
      <point x="185" y="705" type="curve" smooth="yes"/>
      <point x="114" y="705"/>
      <point x="60" y="669"/>
      <point x="60" y="592" type="curve" smooth="yes"/>
      <point x="60" y="514"/>
      <point x="136" y="497"/>
      <point x="136" y="465" type="curve" smooth="yes"/>
      <point x="136" y="450"/>
      <point x="127" y="444"/>
      <point x="111" y="444" type="curve" smooth="yes"/>
      <point x="92" y="444"/>
      <point x="73" y="451"/>
      <point x="54" y="459" type="curve"/>
      <point x="28" y="384" type="line"/>
      <point x="55" y="367"/>
      <point x="86" y="363"/>
      <point x="110" y="363" type="curve" smooth="yes"/>
      <point x="182" y="363"/>
      <point x="229" y="402"/>
      <point x="229" y="465" type="curve" smooth="yes"/>
      <point x="229" y="555"/>
      <point x="156" y="567"/>
      <point x="156" y="599" type="curve" smooth="yes"/>
      <point x="156" y="614"/>
      <point x="167" y="619"/>
      <point x="186" y="619" type="curve" smooth="yes"/>
      <point x="194" y="619"/>
      <point x="209" y="616"/>
      <point x="225" y="610" type="curve"/>
    </contour>
  </outline>
</glyph>
<glyph name="uni2126" format="2">
  <advance width="420"/>
  <unicode hex="2126"/>
  <outline>
    <contour>
      <point x="195" y="170" type="curve"/>
      <point x="169" y="0" type="line"/>
      <point x="356" y="0" type="line"/>
      <point x="382" y="170" type="line"/>
      <point x="310" y="170" type="line"/>
      <point x="383" y="264"/>
      <point x="419" y="431"/>
      <point x="419" y="547" type="curve" smooth="yes"/>
      <point x="419" y="666"/>
      <point x="382" y="710"/>
      <point x="273" y="710" type="curve" smooth="yes"/>
      <point x="99" y="710"/>
      <point x="47" y="532"/>
      <point x="47" y="298" type="curve" smooth="yes"/>
      <point x="47" y="256"/>
      <point x="54" y="200"/>
      <point x="70" y="170" type="curve"/>
      <point x="3" y="170" type="line"/>
      <point x="-23" y="0" type="line"/>
      <point x="158" y="0" type="line"/>
      <point x="184" y="170" type="line"/>
      <point x="181" y="173"/>
      <point x="179" y="182"/>
      <point x="179" y="191" type="curve" smooth="yes"/>
      <point x="179" y="263"/>
      <point x="218" y="546"/>
      <point x="251" y="546" type="curve" smooth="yes"/>
      <point x="258" y="546"/>
      <point x="264" y="541"/>
      <point x="264" y="524" type="curve" smooth="yes"/>
      <point x="264" y="482"/>
      <point x="218" y="172"/>
    </contour>
  </outline>
</glyph>
<glyph name="arrowright" format="2">
	<advance width="496"/>
	<unicode hex="2192"/>
	<outline>
		<contour>
			<point x="20" y="272" type="line"/>
			<point x="186" y="272" type="line"/>
			<point x="103" y="200" type="line"/>
			<point x="216" y="87" type="line"/>
			<point x="476" y="351" type="line"/>
			<point x="216" y="616" type="line"/>
			<point x="103" y="503" type="line"/>
			<point x="186" y="431" type="line"/>
			<point x="20" y="431" type="line"/>
		</contour>
	</outline>
</glyph>
<glyph name="uni2206" format="2">
  <advance width="488"/>
  <unicode hex="2206"/>
  <outline>
    <contour>
      <point x="-10" y="0" type="line"/>
      <point x="411" y="0" type="line"/>
      <point x="422" y="71" type="line"/>
      <point x="419" y="710" type="line"/>
      <point x="206" y="710" type="line"/>
      <point x="1" y="72" type="line"/>
    </contour>
    <contour>
      <point x="191" y="170" type="line"/>
      <point x="284" y="529" type="line"/>
      <point x="262" y="170" type="line"/>
    </contour>
  </outline>
</glyph>
<glyph name="infinity" format="2">
	<advance width="520"/>
	<unicode hex="221E"/>
	<outline>
		<contour>
			<point x="124" y="127" type="curve" smooth="yes"/>
			<point x="171" y="127"/>
			<point x="221" y="153"/>
			<point x="256" y="197" type="curve"/>
			<point x="277" y="158"/>
			<point x="297" y="133"/>
			<point x="357" y="133" type="curve" smooth="yes"/>
			<point x="399" y="133"/>
			<point x="513" y="185"/>
			<point x="513" y="389" type="curve" smooth="yes"/>
			<point x="513" y="477"/>
			<point x="473" y="520"/>
			<point x="406" y="520" type="curve" smooth="yes"/>
			<point x="368" y="520"/>
			<point x="320" y="502"/>
			<point x="278" y="449" type="curve"/>
			<point x="260" y="489"/>
			<point x="241" y="517"/>
			<point x="190" y="517" type="curve" smooth="yes"/>
			<point x="117" y="517"/>
			<point x="23" y="445"/>
			<point x="23" y="262" type="curve" smooth="yes"/>
			<point x="23" y="170"/>
			<point x="67" y="127"/>
		</contour>
		<contour>
			<point x="165" y="274" type="curve" smooth="yes"/>
			<point x="149" y="274"/>
			<point x="145" y="291"/>
			<point x="145" y="304" type="curve" smooth="yes"/>
			<point x="145" y="333"/>
			<point x="161" y="347"/>
			<point x="167" y="347" type="curve" smooth="yes"/>
			<point x="182" y="347"/>
			<point x="190" y="324"/>
			<point x="207" y="293" type="curve"/>
			<point x="190" y="279"/>
			<point x="175" y="274"/>
		</contour>
		<contour>
			<point x="368" y="374" type="curve" smooth="yes"/>
			<point x="384" y="374"/>
			<point x="391" y="361"/>
			<point x="391" y="348" type="curve" smooth="yes"/>
			<point x="391" y="322"/>
			<point x="379" y="301"/>
			<point x="362" y="301" type="curve" smooth="yes"/>
			<point x="348" y="301"/>
			<point x="335" y="324"/>
			<point x="323" y="351" type="curve"/>
			<point x="341" y="366"/>
			<point x="358" y="374"/>
		</contour>
	</outline>
</glyph>
<glyph name="lessequal" format="2">
	<advance width="383"/>
	<unicode hex="2264"/>
	<outline>
		<contour>
			<point x="351" y="205" type="line"/>
			<point x="373" y="347" type="line"/>
			<point x="190" y="409" type="line"/>
			<point x="393" y="472" type="line"/>
			<point x="416" y="613" type="line"/>
			<point x="56" y="488" type="line"/>
			<point x="31" y="330" type="line"/>
		</contour>
		<contour>
			<point x="-23" y="0" type="line"/>
			<point x="319" y="0" type="line"/>
			<point x="344" y="160" type="line"/>
			<point x="2" y="160" type="line"/>
		</contour>
	</outline>
</glyph>
<glyph name="filledbox" format="2">
	<advance width="500"/>
	<unicode hex="25A0"/>
	<outline>
		<contour>
			<point x="73" y="99" type="line"/>
			<point x="427" y="99" type="line"/>
			<point x="427" y="454" type="line"/>
			<point x="73" y="454" type="line"/>
		</contour>
	</outline>
</glyph>
<glyph name="heart" format="2">
	<advance width="800"/>
	<unicode hex="2665"/>
	<outline>
		<contour>
			<point x="408" y="0" type="curve"/>
			<point x="450" y="0" type="line"/>
			<point x="514" y="187"/>
			<point x="791" y="238"/>
			<point x="791" y="459" type="curve" smooth="yes"/>
			<point x="791" y="583"/>
			<point x="703" y="650"/>
			<point x="605" y="650" type="curve" smooth="yes"/>
			<point x="533" y="650"/>
			<point x="463" y="614"/>
			<point x="429" y="527" type="curve"/>
			<point x="395" y="614"/>
			<point x="325" y="650"/>
			<point x="253" y="650" type="curve" smooth="yes"/>
			<point x="155" y="650"/>
			<point x="67" y="583"/>
			<point x="67" y="459" type="curve" smooth="yes"/>
			<point x="67" y="238"/>
			<point x="344" y="187"/>
		</contour>
	</outline>
</glyph>
<glyph name="uni2780" format="2">
	<advance width="740"/>
	<unicode hex="2780"/>
	<outline>
		<contour>
			<point x="280" y="159" type="line"/>
			<point x="485" y="159" type="line"/>
			<point x="485" y="250" type="line"/>
			<point x="441" y="250" type="line"/>
			<point x="441" y="558" type="line"/>
			<point x="386" y="558" type="line"/>
			<point x="269" y="529" type="line"/>
			<point x="286" y="424" type="line"/>
			<point x="331" y="433" type="line"/>
			<point x="331" y="250" type="line"/>
			<point x="280" y="250" type="line"/>
		</contour>
		<contour>
			<point x="382" y="-10" type="curve" smooth="yes"/>
			<point x="601" y="-10"/>
			<point x="716" y="152"/>
			<point x="716" y="351" type="curve" smooth="yes"/>
			<point x="716" y="551"/>
			<point x="601" y="710"/>
			<point x="382" y="710" type="curve" smooth="yes"/>
			<point x="163" y="710"/>
			<point x="48" y="551"/>
			<point x="48" y="351" type="curve" smooth="yes"/>
			<point x="48" y="152"/>
			<point x="163" y="-10"/>
		</contour>
		<contour>
			<point x="382" y="663" type="curve" smooth="yes"/>
			<point x="575" y="663"/>
			<point x="665" y="534"/>
			<point x="665" y="351" type="curve" smooth="yes"/>
			<point x="665" y="168"/>
			<point x="575" y="39"/>
			<point x="382" y="39" type="curve" smooth="yes"/>
			<point x="192" y="39"/>
			<point x="98" y="168"/>
			<point x="98" y="351" type="curve" smooth="yes"/>
			<point x="98" y="534"/>
			<point x="192" y="663"/>
		</contour>
	</outline>
</glyph>
<glyph name="uni2783" format="2">
  <advance width="740"/>
  <unicode hex="2783"/>
  <outline>
    <contour>
      <point x="243" y="192" type="line"/>
      <point x="340" y="192" type="line"/>
      <point x="340" y="159" type="line"/>
      <point x="466" y="159" type="line"/>
      <point x="466" y="192" type="line"/>
      <point x="497" y="192" type="line"/>
      <point x="497" y="280" type="line"/>
      <point x="466" y="280" type="line"/>
      <point x="466" y="556" type="line"/>
      <point x="322" y="556" type="line"/>
      <point x="243" y="287" type="line"/>
    </contour>
    <contour>
      <point x="304" y="280" type="line"/>
      <point x="346" y="431" type="line"/>
      <point x="346" y="280" type="line"/>
    </contour>
    <contour>
      <point x="48" y="351" type="curve" smooth="yes"/>
      <point x="48" y="152"/>
      <point x="163" y="-10"/>
      <point x="382" y="-10" type="curve" smooth="yes"/>
      <point x="601" y="-10"/>
      <point x="716" y="152"/>
      <point x="716" y="351" type="curve" smooth="yes"/>
      <point x="716" y="551"/>
      <point x="601" y="710"/>
      <point x="382" y="710" type="curve" smooth="yes"/>
      <point x="163" y="710"/>
      <point x="48" y="551"/>
    </contour>
    <contour>
      <point x="98" y="351" type="curve" smooth="yes"/>
      <point x="98" y="534"/>
      <point x="192" y="663"/>
      <point x="382" y="663" type="curve" smooth="yes"/>
      <point x="575" y="663"/>
      <point x="665" y="534"/>
      <point x="665" y="351" type="curve" smooth="yes"/>
      <point x="665" y="168"/>
      <point x="575" y="39"/>
      <point x="382" y="39" type="curve" smooth="yes"/>
      <point x="192" y="39"/>
      <point x="98" y="168"/>
    </contour>
  </outline>
</glyph>
<glyph name="uni2784" format="2">
  <advance width="740"/>
  <unicode hex="2784"/>
  <outline>
    <contour>
      <point x="272" y="173" type="line"/>
      <point x="301" y="158"/>
      <point x="326" y="150"/>
      <point x="366" y="150" type="curve" smooth="yes"/>
      <point x="447" y="150"/>
      <point x="505" y="200"/>
      <point x="505" y="292" type="curve" smooth="yes"/>
      <point x="505" y="363"/>
      <point x="469" y="399"/>
      <point x="415" y="403" type="curve" smooth="yes"/>
      <point x="401" y="404" type="line"/>
      <point x="406" y="454" type="line"/>
      <point x="497" y="454" type="line"/>
      <point x="497" y="561" type="line"/>
      <point x="317" y="561" type="line"/>
      <point x="293" y="327" type="line"/>
      <point x="299" y="320" type="line"/>
      <point x="349" y="320" type="line" smooth="yes"/>
      <point x="379" y="320"/>
      <point x="393" y="310"/>
      <point x="393" y="287" type="curve" smooth="yes"/>
      <point x="393" y="269"/>
      <point x="383" y="254"/>
      <point x="349" y="254" type="curve" smooth="yes"/>
      <point x="325" y="254"/>
      <point x="307" y="259"/>
      <point x="292" y="265" type="curve"/>
    </contour>
    <contour>
      <point x="48" y="351" type="curve" smooth="yes"/>
      <point x="48" y="152"/>
      <point x="163" y="-10"/>
      <point x="382" y="-10" type="curve" smooth="yes"/>
      <point x="601" y="-10"/>
      <point x="716" y="152"/>
      <point x="716" y="351" type="curve" smooth="yes"/>
      <point x="716" y="551"/>
      <point x="601" y="710"/>
      <point x="382" y="710" type="curve" smooth="yes"/>
      <point x="163" y="710"/>
      <point x="48" y="551"/>
    </contour>
    <contour>
      <point x="98" y="351" type="curve" smooth="yes"/>
      <point x="98" y="534"/>
      <point x="192" y="663"/>
      <point x="382" y="663" type="curve" smooth="yes"/>
      <point x="575" y="663"/>
      <point x="665" y="534"/>
      <point x="665" y="351" type="curve" smooth="yes"/>
      <point x="665" y="168"/>
      <point x="575" y="39"/>
      <point x="382" y="39" type="curve" smooth="yes"/>
      <point x="192" y="39"/>
      <point x="98" y="168"/>
    </contour>
  </outline>
</glyph>
<glyph name="uni2785" format="2">
  <advance width="740"/>
  <unicode hex="2785"/>
  <outline>
    <contour>
      <point x="368" y="409" type="curve"/>
      <point x="371" y="450"/>
      <point x="388" y="462"/>
      <point x="422" y="462" type="curve" smooth="yes"/>
      <point x="447" y="462"/>
      <point x="464" y="450"/>
      <point x="464" y="450" type="curve"/>
      <point x="498" y="538" type="line"/>
      <point x="485" y="547"/>
      <point x="446" y="561"/>
      <point x="402" y="561" type="curve" smooth="yes"/>
      <point x="317" y="561"/>
      <point x="253" y="502"/>
      <point x="253" y="341" type="curve" smooth="yes"/>
      <point x="253" y="195"/>
      <point x="301" y="150"/>
      <point x="376" y="150" type="curve" smooth="yes"/>
      <point x="466" y="150"/>
      <point x="499" y="206"/>
      <point x="499" y="298" type="curve" smooth="yes"/>
      <point x="499" y="393"/>
      <point x="456" y="421"/>
      <point x="415" y="421" type="curve" smooth="yes"/>
      <point x="391" y="421"/>
      <point x="379" y="416"/>
    </contour>
    <contour>
      <point x="376" y="339" type="curve" smooth="yes"/>
      <point x="382" y="339"/>
      <point x="388" y="328"/>
      <point x="388" y="295" type="curve" smooth="yes"/>
      <point x="388" y="249"/>
      <point x="384" y="242"/>
      <point x="378" y="242" type="curve" smooth="yes"/>
      <point x="371" y="242"/>
      <point x="368" y="246"/>
      <point x="368" y="337" type="curve"/>
      <point x="370" y="338"/>
      <point x="372" y="339"/>
    </contour>
    <contour>
      <point x="382" y="-10" type="curve" smooth="yes"/>
      <point x="601" y="-10"/>
      <point x="716" y="152"/>
      <point x="716" y="351" type="curve" smooth="yes"/>
      <point x="716" y="551"/>
      <point x="601" y="710"/>
      <point x="382" y="710" type="curve" smooth="yes"/>
      <point x="163" y="710"/>
      <point x="48" y="551"/>
      <point x="48" y="351" type="curve" smooth="yes"/>
      <point x="48" y="152"/>
      <point x="163" y="-10"/>
    </contour>
    <contour>
      <point x="382" y="663" type="curve" smooth="yes"/>
      <point x="575" y="663"/>
      <point x="665" y="534"/>
      <point x="665" y="351" type="curve" smooth="yes"/>
      <point x="665" y="168"/>
      <point x="575" y="39"/>
      <point x="382" y="39" type="curve" smooth="yes"/>
      <point x="192" y="39"/>
      <point x="98" y="168"/>
      <point x="98" y="351" type="curve" smooth="yes"/>
      <point x="98" y="534"/>
      <point x="192" y="663"/>
    </contour>
  </outline>
</glyph>
<glyph name="uni2786" format="2">
  <advance width="740"/>
  <unicode hex="2786"/>
  <outline>
    <contour>
      <point x="296" y="159" type="curve"/>
      <point x="415" y="159" type="line"/>
      <point x="415" y="218"/>
      <point x="420" y="259"/>
      <point x="448" y="345" type="curve" smooth="yes"/>
      <point x="494" y="485" type="line"/>
      <point x="494" y="558" type="line"/>
      <point x="272" y="558" type="line"/>
      <point x="272" y="467" type="line"/>
      <point x="378" y="467" type="line"/>
      <point x="334" y="359" type="line" smooth="yes"/>
      <point x="304" y="285"/>
      <point x="296" y="222"/>
    </contour>
    <contour>
      <point x="382" y="-10" type="curve" smooth="yes"/>
      <point x="601" y="-10"/>
      <point x="716" y="152"/>
      <point x="716" y="351" type="curve" smooth="yes"/>
      <point x="716" y="551"/>
      <point x="601" y="710"/>
      <point x="382" y="710" type="curve" smooth="yes"/>
      <point x="163" y="710"/>
      <point x="48" y="551"/>
      <point x="48" y="351" type="curve" smooth="yes"/>
      <point x="48" y="152"/>
      <point x="163" y="-10"/>
    </contour>
    <contour>
      <point x="382" y="663" type="curve" smooth="yes"/>
      <point x="575" y="663"/>
      <point x="665" y="534"/>
      <point x="665" y="351" type="curve" smooth="yes"/>
      <point x="665" y="168"/>
      <point x="575" y="39"/>
      <point x="382" y="39" type="curve" smooth="yes"/>
      <point x="192" y="39"/>
      <point x="98" y="168"/>
      <point x="98" y="351" type="curve" smooth="yes"/>
      <point x="98" y="534"/>
      <point x="192" y="663"/>
    </contour>
  </outline>
</glyph>
<glyph name="uni278B" format="2">
  <advance width="740"/>
  <unicode hex="278B"/>
  <outline>
    <contour>
      <point x="382" y="-10" type="curve" smooth="yes"/>
      <point x="601" y="-10"/>
      <point x="716" y="152"/>
      <point x="716" y="351" type="curve" smooth="yes"/>
      <point x="716" y="551"/>
      <point x="601" y="710"/>
      <point x="382" y="710" type="curve" smooth="yes"/>
      <point x="163" y="710"/>
      <point x="48" y="551"/>
      <point x="48" y="351" type="curve" smooth="yes"/>
      <point x="48" y="152"/>
      <point x="163" y="-10"/>
    </contour>
    <contour>
      <point x="284" y="159" type="line"/>
      <point x="284" y="242" type="line"/>
      <point x="337" y="305"/>
      <point x="377" y="361"/>
      <point x="377" y="407" type="curve" smooth="yes"/>
      <point x="377" y="425"/>
      <point x="367" y="438"/>
      <point x="347" y="438" type="curve" smooth="yes"/>
      <point x="332" y="438"/>
      <point x="321" y="435"/>
      <point x="307" y="425" type="curve"/>
      <point x="267" y="529" type="line"/>
      <point x="303" y="552"/>
      <point x="336" y="564"/>
      <point x="377" y="564" type="curve" smooth="yes"/>
      <point x="450" y="564"/>
      <point x="491" y="522"/>
      <point x="491" y="445" type="curve" smooth="yes"/>
      <point x="491" y="376"/>
      <point x="473" y="337"/>
      <point x="406" y="250" type="curve"/>
      <point x="495" y="250" type="line"/>
      <point x="495" y="159" type="line"/>
    </contour>
  </outline>
</glyph>
<glyph name="uni278E" format="2">
  <advance width="740"/>
  <unicode hex="278E"/>
  <outline>
    <contour>
      <point x="382" y="-10" type="curve" smooth="yes"/>
      <point x="601" y="-10"/>
      <point x="716" y="152"/>
      <point x="716" y="351" type="curve" smooth="yes"/>
      <point x="716" y="551"/>
      <point x="601" y="710"/>
      <point x="382" y="710" type="curve" smooth="yes"/>
      <point x="163" y="710"/>
      <point x="48" y="551"/>
      <point x="48" y="351" type="curve" smooth="yes"/>
      <point x="48" y="152"/>
      <point x="163" y="-10"/>
    </contour>
    <contour>
      <point x="366" y="150" type="curve" smooth="yes"/>
      <point x="326" y="150"/>
      <point x="301" y="158"/>
      <point x="272" y="173" type="curve"/>
      <point x="292" y="265" type="line"/>
      <point x="307" y="259"/>
      <point x="325" y="254"/>
      <point x="349" y="254" type="curve" smooth="yes"/>
      <point x="383" y="254"/>
      <point x="393" y="269"/>
      <point x="393" y="287" type="curve" smooth="yes"/>
      <point x="393" y="310"/>
      <point x="379" y="320"/>
      <point x="349" y="320" type="curve" smooth="yes"/>
      <point x="299" y="320" type="line"/>
      <point x="293" y="327" type="line"/>
      <point x="317" y="561" type="line"/>
      <point x="497" y="561" type="line"/>
      <point x="497" y="454" type="line"/>
      <point x="406" y="454" type="line"/>
      <point x="401" y="404" type="line"/>
      <point x="415" y="403" type="line" smooth="yes"/>
      <point x="469" y="399"/>
      <point x="505" y="363"/>
      <point x="505" y="292" type="curve" smooth="yes"/>
      <point x="505" y="200"/>
      <point x="447" y="150"/>
    </contour>
  </outline>
</glyph>
<glyph name="uni2790" format="2">
  <advance width="740"/>
  <unicode hex="2790"/>
  <outline>
    <contour>
      <point x="382" y="-10" type="curve" smooth="yes"/>
      <point x="601" y="-10"/>
      <point x="716" y="152"/>
      <point x="716" y="351" type="curve" smooth="yes"/>
      <point x="716" y="551"/>
      <point x="601" y="710"/>
      <point x="382" y="710" type="curve" smooth="yes"/>
      <point x="163" y="710"/>
      <point x="48" y="551"/>
      <point x="48" y="351" type="curve" smooth="yes"/>
      <point x="48" y="152"/>
      <point x="163" y="-10"/>
    </contour>
    <contour>
      <point x="296" y="159" type="line"/>
      <point x="296" y="222"/>
      <point x="304" y="285"/>
      <point x="334" y="359" type="curve" smooth="yes"/>
      <point x="378" y="467" type="line"/>
      <point x="272" y="467" type="line"/>
      <point x="272" y="558" type="line"/>
      <point x="494" y="558" type="line"/>
      <point x="494" y="485" type="line"/>
      <point x="448" y="345" type="line" smooth="yes"/>
      <point x="420" y="259"/>
      <point x="415" y="218"/>
      <point x="415" y="159" type="curve"/>
    </contour>
  </outline>
</glyph>
<glyph name="uni2793" format="2">
  <advance width="740"/>
  <unicode hex="2793"/>
  <outline>
    <contour>
      <point x="382" y="-10" type="curve" smooth="yes"/>
      <point x="601" y="-10"/>
      <point x="716" y="152"/>
      <point x="716" y="351" type="curve" smooth="yes"/>
      <point x="716" y="551"/>
      <point x="601" y="710"/>
      <point x="382" y="710" type="curve" smooth="yes"/>
      <point x="163" y="710"/>
      <point x="48" y="551"/>
      <point x="48" y="351" type="curve" smooth="yes"/>
      <point x="48" y="152"/>
      <point x="163" y="-10"/>
    </contour>
    <contour>
      <point x="165" y="159" type="line"/>
      <point x="165" y="250" type="line"/>
      <point x="216" y="250" type="line"/>
      <point x="216" y="433" type="line"/>
      <point x="171" y="424" type="line"/>
      <point x="154" y="529" type="line"/>
      <point x="271" y="558" type="line"/>
      <point x="326" y="558" type="line"/>
      <point x="326" y="250" type="line"/>
      <point x="370" y="250" type="line"/>
      <point x="370" y="159" type="line"/>
    </contour>
    <contour>
      <point x="503" y="150" type="curve" smooth="yes"/>
      <point x="405" y="150"/>
      <point x="373" y="204"/>
      <point x="373" y="355" type="curve" smooth="yes"/>
      <point x="373" y="510"/>
      <point x="404" y="561"/>
      <point x="503" y="561" type="curve" smooth="yes"/>
      <point x="608" y="561"/>
      <point x="632" y="505"/>
      <point x="632" y="355" type="curve" smooth="yes"/>
      <point x="632" y="206"/>
      <point x="599" y="150"/>
    </contour>
    <contour>
      <point x="503" y="245" type="curve" smooth="yes"/>
      <point x="515" y="245"/>
      <point x="515" y="248"/>
      <point x="515" y="348" type="curve" smooth="yes"/>
      <point x="515" y="467"/>
      <point x="513" y="466"/>
      <point x="503" y="466" type="curve" smooth="yes"/>
      <point x="493" y="466"/>
      <point x="491" y="466"/>
      <point x="491" y="348" type="curve" smooth="yes"/>
      <point x="491" y="248"/>
      <point x="491" y="245"/>
    </contour>
  </outline>
</glyph>
<glyph name="uni27F7" format="2">
	<advance width="899"/>
	<unicode hex="27F7"/>
	<outline>
		<contour>
			<point x="280" y="89" type="line"/>
			<point x="393" y="202" type="line"/>
			<point x="310" y="274" type="line"/>
			<point x="589" y="274" type="line"/>
			<point x="506" y="202" type="line"/>
			<point x="619" y="89" type="line"/>
			<point x="879" y="352" type="line"/>
			<point x="619" y="615" type="line"/>
			<point x="506" y="502" type="line"/>
			<point x="589" y="430" type="line"/>
			<point x="310" y="430" type="line"/>
			<point x="393" y="502" type="line"/>
			<point x="280" y="615" type="line"/>
			<point x="20" y="352" type="line"/>
		</contour>
	</outline>
</glyph>
<glyph name="a.sc" format="2">
	<advance width="433"/>
	<anchor x="378" y="0" name="ogonek"/>
	<anchor x="173.444" y="0" name="bottom"/>
	<anchor x="261" y="625" name="top"/>
	<outline>
		<contour>
			<point x="-33" y="0" type="line"/>
			<point x="135" y="0" type="line"/>
			<point x="156" y="94" type="line"/>
			<point x="218" y="94" type="line"/>
			<point x="208" y="0" type="line"/>
			<point x="378" y="0" type="line"/>
			<point x="403" y="625" type="line"/>
			<point x="129" y="625" type="line"/>
		</contour>
		<contour>
			<point x="187" y="236" type="line"/>
			<point x="253" y="524" type="line"/>
			<point x="232" y="236" type="line"/>
		</contour>
	</outline>
</glyph>
<glyph name="a.superior" format="2">
  <advance width="257"/>
  <outline>
    <contour>
      <point x="300" y="667" type="curve"/>
      <point x="272" y="678"/>
      <point x="226" y="690"/>
      <point x="190" y="690" type="curve" smooth="yes"/>
      <point x="79" y="690"/>
      <point x="44" y="566"/>
      <point x="44" y="456" type="curve" smooth="yes"/>
      <point x="44" y="394"/>
      <point x="74" y="364"/>
      <point x="110" y="364" type="curve" smooth="yes"/>
      <point x="135" y="364"/>
      <point x="149" y="375"/>
      <point x="160" y="389" type="curve"/>
      <point x="171" y="370"/>
      <point x="184" y="364"/>
      <point x="207" y="364" type="curve" smooth="yes"/>
      <point x="223" y="364"/>
      <point x="253" y="371"/>
      <point x="264" y="380" type="curve"/>
      <point x="276" y="460" type="line"/>
      <point x="275" y="459"/>
      <point x="272" y="459"/>
      <point x="271" y="459" type="curve" smooth="yes"/>
      <point x="266" y="459"/>
      <point x="265" y="461"/>
      <point x="265" y="467" type="curve" smooth="yes"/>
      <point x="265" y="470"/>
      <point x="267" y="477"/>
    </contour>
    <contour>
      <point x="145" y="470" type="curve" smooth="yes"/>
      <point x="145" y="478"/>
      <point x="158" y="602"/>
      <point x="174" y="602" type="curve" smooth="yes"/>
      <point x="175" y="602"/>
      <point x="179" y="602"/>
      <point x="181" y="601" type="curve"/>
      <point x="158" y="460" type="line"/>
      <point x="157" y="459"/>
      <point x="154" y="458"/>
      <point x="153" y="458" type="curve" smooth="yes"/>
      <point x="149" y="458"/>
      <point x="145" y="461"/>
    </contour>
  </outline>
</glyph>
<glyph name="ae.sc" format="2">
  <advance width="554"/>
  <anchor x="341" y="625" name="top"/>
  <anchor x="243" y="0" name="bottom"/>
  <outline>
    <contour>
      <point x="194" y="0" type="line"/>
      <point x="492" y="0" type="line"/>
      <point x="515" y="141" type="line"/>
      <point x="376" y="141" type="line"/>
      <point x="394" y="247" type="line"/>
      <point x="499" y="247" type="line"/>
      <point x="520" y="379" type="line"/>
      <point x="414" y="379" type="line"/>
      <point x="430" y="481" type="line"/>
      <point x="565" y="481" type="line"/>
      <point x="590" y="625" type="line"/>
      <point x="161" y="625" type="line"/>
      <point x="-37" y="0" type="line"/>
      <point x="127" y="0" type="line"/>
      <point x="152" y="85" type="line"/>
      <point x="207" y="85" type="line"/>
    </contour>
    <contour>
      <point x="276" y="517" type="line"/>
      <point x="230" y="228" type="line"/>
      <point x="187" y="228" type="line"/>
    </contour>
  </outline>
</glyph>
<glyph name="ampersand.sc" format="2">
	<advance width="465"/>
	<outline>
		<contour>
			<point x="192" y="-10" type="curve" smooth="yes"/>
			<point x="345" y="-10"/>
			<point x="448" y="137"/>
			<point x="388" y="263" type="curve"/>
			<point x="263" y="248" type="line"/>
			<point x="325" y="190"/>
			<point x="268" y="132"/>
			<point x="216" y="132" type="curve" smooth="yes"/>
			<point x="162" y="132"/>
			<point x="135" y="167"/>
			<point x="135" y="217" type="curve" smooth="yes"/>
			<point x="135" y="270"/>
			<point x="167" y="325"/>
			<point x="218" y="325" type="curve" smooth="yes"/>
			<point x="231" y="325" type="line"/>
			<point x="257" y="432" type="line"/>
			<point x="240" y="435" type="line" smooth="yes"/>
			<point x="212" y="440"/>
			<point x="204" y="454"/>
			<point x="204" y="468" type="curve" smooth="yes"/>
			<point x="204" y="489"/>
			<point x="222" y="499"/>
			<point x="238" y="499" type="curve" smooth="yes"/>
			<point x="255" y="499"/>
			<point x="269" y="497"/>
			<point x="288" y="485" type="curve"/>
			<point x="353" y="606" type="line"/>
			<point x="310" y="625"/>
			<point x="274" y="634"/>
			<point x="223" y="634" type="curve" smooth="yes"/>
			<point x="126" y="634"/>
			<point x="69" y="562"/>
			<point x="69" y="488" type="curve" smooth="yes"/>
			<point x="69" y="447"/>
			<point x="84" y="418"/>
			<point x="124" y="384" type="curve"/>
			<point x="53" y="357"/>
			<point x="-2" y="293"/>
			<point x="-2" y="181" type="curve" smooth="yes"/>
			<point x="-2" y="77"/>
			<point x="62" y="-10"/>
		</contour>
		<contour>
			<point x="268" y="177" type="line"/>
			<point x="268" y="206"/>
			<point x="274" y="227"/>
			<point x="297" y="227" type="curve" smooth="yes"/>
			<point x="322" y="227"/>
			<point x="351" y="227"/>
			<point x="371" y="227" type="curve" smooth="yes"/>
			<point x="439" y="227"/>
			<point x="483" y="304"/>
			<point x="462" y="377" type="curve"/>
			<point x="373" y="377" type="line"/>
			<point x="372" y="323"/>
			<point x="352" y="318"/>
			<point x="310" y="318" type="curve" smooth="yes"/>
			<point x="299" y="318"/>
			<point x="278" y="318"/>
			<point x="268" y="318" type="curve" smooth="yes"/>
			<point x="188" y="318"/>
			<point x="175" y="249"/>
			<point x="175" y="191" type="curve"/>
		</contour>
	</outline>
</glyph>
<glyph name="c.sc" format="2">
  <advance width="345"/>
  <anchor x="277" y="625" name="top"/>
  <anchor x="178" y="0" name="bottom"/>
  <outline>
    <contour>
      <point x="14" y="202" type="curve" smooth="yes"/>
      <point x="14" y="56"/>
      <point x="67" y="-10"/>
      <point x="177" y="-10" type="curve" smooth="yes"/>
      <point x="218" y="-10"/>
      <point x="258" y="-1"/>
      <point x="294" y="15" type="curve"/>
      <point x="294" y="166" type="line"/>
      <point x="268" y="156"/>
      <point x="251" y="152"/>
      <point x="232" y="152" type="curve" smooth="yes"/>
      <point x="196" y="152"/>
      <point x="182" y="169"/>
      <point x="182" y="234" type="curve" smooth="yes"/>
      <point x="182" y="350"/>
      <point x="230" y="473"/>
      <point x="289" y="473" type="curve" smooth="yes"/>
      <point x="299" y="473"/>
      <point x="311" y="473"/>
      <point x="329" y="465" type="curve"/>
      <point x="383" y="613" type="line"/>
      <point x="356" y="626"/>
      <point x="324" y="632"/>
      <point x="281" y="632" type="curve" smooth="yes"/>
      <point x="124" y="632"/>
      <point x="14" y="449"/>
    </contour>
  </outline>
</glyph>
<glyph name="c.superior" format="2">
  <advance width="185"/>
  <outline>
    <contour>
      <point x="45" y="472" type="curve" smooth="yes"/>
      <point x="45" y="403"/>
      <point x="77" y="364"/>
      <point x="134" y="364" type="curve" smooth="yes"/>
      <point x="161" y="364"/>
      <point x="194" y="372"/>
      <point x="207" y="382" type="curve"/>
      <point x="194" y="470" type="line"/>
      <point x="189" y="468"/>
      <point x="182" y="466"/>
      <point x="177" y="466" type="curve" smooth="yes"/>
      <point x="165" y="466"/>
      <point x="157" y="479"/>
      <point x="157" y="498" type="curve" smooth="yes"/>
      <point x="157" y="540"/>
      <point x="174" y="581"/>
      <point x="192" y="581" type="curve" smooth="yes"/>
      <point x="200" y="581"/>
      <point x="204" y="580"/>
      <point x="212" y="574" type="curve"/>
      <point x="250" y="677" type="line"/>
      <point x="238" y="684"/>
      <point x="215" y="689"/>
      <point x="193" y="689" type="curve" smooth="yes"/>
      <point x="109" y="689"/>
      <point x="45" y="595"/>
    </contour>
  </outline>
</glyph>
<glyph name="d.superior" format="2">
	<advance width="258"/>
	<outline>
		<contour>
			<point x="215" y="364" type="curve" smooth="yes"/>
			<point x="231" y="364"/>
			<point x="257" y="369"/>
			<point x="267" y="378" type="curve"/>
			<point x="279" y="460" type="line"/>
			<point x="277" y="459"/>
			<point x="275" y="459"/>
			<point x="274" y="459" type="curve" smooth="yes"/>
			<point x="269" y="459"/>
			<point x="268" y="461"/>
			<point x="268" y="465" type="curve" smooth="yes"/>
			<point x="268" y="475"/>
			<point x="318" y="792"/>
			<point x="318" y="792" type="curve"/>
			<point x="213" y="792" type="line"/>
			<point x="195" y="680" type="line"/>
			<point x="185" y="686"/>
			<point x="175" y="689"/>
			<point x="163" y="689" type="curve" smooth="yes"/>
			<point x="93" y="689"/>
			<point x="44" y="567"/>
			<point x="44" y="470" type="curve" smooth="yes"/>
			<point x="44" y="398"/>
			<point x="73" y="364"/>
			<point x="113" y="364" type="curve" smooth="yes"/>
			<point x="133" y="364"/>
			<point x="149" y="376"/>
			<point x="160" y="390" type="curve"/>
			<point x="171" y="371"/>
			<point x="186" y="364"/>
		</contour>
		<contour>
			<point x="147" y="470" type="curve" smooth="yes"/>
			<point x="147" y="478"/>
			<point x="159" y="602"/>
			<point x="178" y="602" type="curve" smooth="yes"/>
			<point x="179" y="602"/>
			<point x="180" y="602"/>
			<point x="182" y="601" type="curve"/>
			<point x="160" y="460" type="line"/>
			<point x="158" y="459"/>
			<point x="154" y="458"/>
			<point x="153" y="458" type="curve" smooth="yes"/>
			<point x="148" y="458"/>
			<point x="147" y="465"/>
		</contour>
	</outline>
</glyph>
<glyph name="dcroat.sc" format="2">
  <advance width="411"/>
  <outline>
    <contour>
      <point x="-9" y="237" type="line"/>
      <point x="202" y="237" type="line"/>
      <point x="226" y="392" type="line"/>
      <point x="16" y="392" type="line"/>
    </contour>
    <component base="d.sc"/>
  </outline>
</glyph>
<glyph name="dividesuperior" format="2">
	<advance width="245"/>
	<outline>
		<contour>
			<point x="100" y="425" type="curve" smooth="yes"/>
			<point x="100" y="401"/>
			<point x="113" y="389"/>
			<point x="140" y="389" type="curve" smooth="yes"/>
			<point x="175" y="389"/>
			<point x="195" y="411"/>
			<point x="195" y="454" type="curve" smooth="yes"/>
			<point x="195" y="478"/>
			<point x="182" y="490"/>
			<point x="156" y="490" type="curve" smooth="yes"/>
			<point x="118" y="490"/>
			<point x="100" y="458"/>
		</contour>
		<contour>
			<point x="137" y="654" type="curve" smooth="yes"/>
			<point x="137" y="630"/>
			<point x="149" y="619"/>
			<point x="176" y="619" type="curve" smooth="yes"/>
			<point x="210" y="619"/>
			<point x="232" y="641"/>
			<point x="232" y="683" type="curve" smooth="yes"/>
			<point x="232" y="707"/>
			<point x="218" y="719"/>
			<point x="192" y="719" type="curve" smooth="yes"/>
			<point x="152" y="719"/>
			<point x="137" y="685"/>
		</contour>
		<contour>
			<point x="73" y="509" type="line"/>
			<point x="245" y="509" type="line"/>
			<point x="259" y="600" type="line"/>
			<point x="87" y="600" type="line"/>
		</contour>
	</outline>
</glyph>
<glyph name="e.sc" format="2">
  <advance width="343"/>
  <anchor x="281" y="0" name="ogonek"/>
  <anchor x="225" y="625" name="top"/>
  <anchor x="38" y="625" name="topleft"/>
  <anchor x="141" y="0" name="bottom"/>
  <outline>
    <contour>
      <point x="-21" y="0" type="line"/>
      <point x="281" y="0" type="line"/>
      <point x="303" y="141" type="line"/>
      <point x="163" y="141" type="line"/>
      <point x="179" y="246" type="line"/>
      <point x="288" y="246" type="line"/>
      <point x="311" y="378" type="line"/>
      <point x="201" y="378" type="line"/>
      <point x="218" y="480" type="line"/>
      <point x="347" y="480" type="line"/>
      <point x="372" y="625" type="line"/>
      <point x="78" y="625" type="line"/>
    </contour>
  </outline>
</glyph>
<glyph name="e.superior" format="2">
  <advance width="229"/>
  <outline>
    <contour>
      <point x="126" y="529" type="curve"/>
      <point x="108" y="472" type="line"/>
      <point x="132" y="471"/>
      <point x="154" y="475"/>
      <point x="174" y="483" type="curve" smooth="yes"/>
      <point x="229" y="503"/>
      <point x="272" y="554"/>
      <point x="272" y="616" type="curve" smooth="yes"/>
      <point x="272" y="661"/>
      <point x="243" y="689"/>
      <point x="190" y="689" type="curve" smooth="yes"/>
      <point x="86" y="689"/>
      <point x="48" y="570"/>
      <point x="48" y="499" type="curve" smooth="yes"/>
      <point x="48" y="412"/>
      <point x="78" y="364"/>
      <point x="156" y="364" type="curve" smooth="yes"/>
      <point x="182" y="364"/>
      <point x="213" y="370"/>
      <point x="238" y="385" type="curve"/>
      <point x="221" y="475" type="line"/>
      <point x="201" y="465"/>
      <point x="183" y="461"/>
      <point x="168" y="461" type="curve" smooth="yes"/>
      <point x="155" y="461"/>
      <point x="142" y="463"/>
      <point x="142" y="500" type="curve" smooth="yes"/>
      <point x="142" y="565"/>
      <point x="159" y="604"/>
      <point x="174" y="604" type="curve" smooth="yes"/>
      <point x="177" y="604"/>
      <point x="180" y="602"/>
      <point x="180" y="591" type="curve" smooth="yes"/>
      <point x="180" y="571"/>
      <point x="173" y="545"/>
      <point x="155" y="535" type="curve" smooth="yes"/>
      <point x="147" y="531"/>
      <point x="137" y="528"/>
    </contour>
  </outline>
</glyph>
<glyph name="eng.sc" format="2">
  <advance width="426"/>
  <outline>
    <contour>
      <point x="197" y="-4" type="line"/>
      <point x="193" y="-33"/>
      <point x="177" y="-42"/>
      <point x="163" y="-42" type="curve" smooth="yes"/>
      <point x="150" y="-42"/>
      <point x="137" y="-39"/>
      <point x="121" y="-30" type="curve"/>
      <point x="66" y="-165" type="line"/>
      <point x="92" y="-182"/>
      <point x="124" y="-196"/>
      <point x="175" y="-196" type="curve" smooth="yes"/>
      <point x="267" y="-196"/>
      <point x="338" y="-130"/>
      <point x="357" y="-9" type="curve" smooth="yes"/>
      <point x="458" y="625" type="line"/>
      <point x="315" y="625" type="line"/>
      <point x="268" y="341" type="line"/>
      <point x="239" y="625" type="line"/>
      <point x="79" y="625" type="line"/>
      <point x="-21" y="0" type="line"/>
      <point x="122" y="0" type="line"/>
      <point x="166" y="275" type="line"/>
    </contour>
  </outline>
</glyph>
<glyph name="f.sc" format="2">
  <advance width="325"/>
  <outline>
    <contour>
      <point x="-21" y="0" type="line"/>
      <point x="142" y="0" type="line"/>
      <point x="173" y="197" type="line"/>
      <point x="281" y="197" type="line"/>
      <point x="304" y="342" type="line"/>
      <point x="195" y="342" type="line"/>
      <point x="218" y="481" type="line"/>
      <point x="347" y="481" type="line"/>
      <point x="369" y="625" type="line"/>
      <point x="79" y="625" type="line"/>
    </contour>
  </outline>
</glyph>
<glyph name="f_f.liga" format="2">
  <advance width="470"/>
  <outline>
    <contour>
      <point x="-31" y="-220" type="curve" smooth="yes"/>
      <point x="83" y="-220"/>
      <point x="137" y="-151"/>
      <point x="161" y="0" type="curve" smooth="yes"/>
      <point x="221" y="379" type="line"/>
      <point x="279" y="379" type="line"/>
      <point x="220" y="2" type="line" smooth="yes"/>
      <point x="213" y="-40"/>
      <point x="198" y="-52"/>
      <point x="179" y="-52" type="curve" smooth="yes"/>
      <point x="176" y="-52"/>
      <point x="171" y="-52"/>
      <point x="168" y="-52" type="curve"/>
      <point x="133" y="-216" type="line"/>
      <point x="147" y="-219"/>
      <point x="160" y="-220"/>
      <point x="172" y="-220" type="curve" smooth="yes"/>
      <point x="303" y="-220"/>
      <point x="357" y="-151"/>
      <point x="381" y="0" type="curve" smooth="yes"/>
      <point x="441" y="379" type="line"/>
      <point x="483" y="379" type="line"/>
      <point x="507" y="529" type="line"/>
      <point x="465" y="529" type="line"/>
      <point x="472" y="571"/>
      <point x="484" y="581"/>
      <point x="515" y="581" type="curve" smooth="yes"/>
      <point x="522" y="581"/>
      <point x="529" y="579"/>
      <point x="537" y="576" type="curve"/>
      <point x="608" y="728" type="line"/>
      <point x="582" y="741"/>
      <point x="550" y="750"/>
      <point x="512" y="750" type="curve" smooth="yes"/>
      <point x="470" y="750"/>
      <point x="434" y="740"/>
      <point x="405" y="721" type="curve"/>
      <point x="368" y="741"/>
      <point x="325" y="750"/>
      <point x="284" y="750" type="curve" smooth="yes"/>
      <point x="175" y="750"/>
      <point x="108" y="676"/>
      <point x="83" y="529" type="curve"/>
      <point x="44" y="522" type="line"/>
      <point x="20" y="379" type="line"/>
      <point x="59" y="379" type="line"/>
      <point x="0" y="2" type="line" smooth="yes"/>
      <point x="-7" y="-40"/>
      <point x="-22" y="-52"/>
      <point x="-41" y="-52" type="curve" smooth="yes"/>
      <point x="-48" y="-52"/>
      <point x="-58" y="-52"/>
      <point x="-72" y="-47" type="curve"/>
      <point x="-119" y="-202" type="line"/>
      <point x="-88" y="-214"/>
      <point x="-59" y="-220"/>
    </contour>
    <contour>
      <point x="245" y="529" type="line"/>
      <point x="253" y="590"/>
      <point x="269" y="607"/>
      <point x="292" y="607" type="curve" smooth="yes"/>
      <point x="303" y="607"/>
      <point x="313" y="605"/>
      <point x="322" y="600" type="curve"/>
      <point x="315" y="576"/>
      <point x="308" y="556"/>
      <point x="305" y="529" type="curve"/>
    </contour>
  </outline>
</glyph>
<glyph name="f_f_l.liga" format="2">
  <advance width="685"/>
  <outline>
    <contour>
      <point x="-31" y="-220" type="curve" smooth="yes"/>
      <point x="83" y="-220"/>
      <point x="137" y="-151"/>
      <point x="161" y="0" type="curve" smooth="yes"/>
      <point x="221" y="379" type="line"/>
      <point x="279" y="379" type="line"/>
      <point x="220" y="2" type="line" smooth="yes"/>
      <point x="213" y="-40"/>
      <point x="198" y="-52"/>
      <point x="179" y="-52" type="curve" smooth="yes"/>
      <point x="176" y="-52"/>
      <point x="171" y="-52"/>
      <point x="168" y="-52" type="curve"/>
      <point x="133" y="-216" type="line"/>
      <point x="147" y="-219"/>
      <point x="160" y="-220"/>
      <point x="172" y="-220" type="curve" smooth="yes"/>
      <point x="303" y="-220"/>
      <point x="357" y="-151"/>
      <point x="381" y="0" type="curve" smooth="yes"/>
      <point x="441" y="379" type="line"/>
      <point x="483" y="379" type="line"/>
      <point x="507" y="529" type="line"/>
      <point x="465" y="529" type="line"/>
      <point x="474" y="587"/>
      <point x="489" y="610"/>
      <point x="519" y="610" type="curve" smooth="yes"/>
      <point x="533" y="610"/>
      <point x="541" y="607"/>
      <point x="550" y="602" type="curve"/>
      <point x="475" y="120" type="line" smooth="yes"/>
      <point x="473" y="108"/>
      <point x="472" y="94"/>
      <point x="472" y="84" type="curve" smooth="yes"/>
      <point x="472" y="27"/>
      <point x="502" y="-10"/>
      <point x="562" y="-10" type="curve" smooth="yes"/>
      <point x="590" y="-10"/>
      <point x="625" y="0"/>
      <point x="643" y="15" type="curve"/>
      <point x="665" y="159" type="line"/>
      <point x="662" y="158"/>
      <point x="658" y="158"/>
      <point x="656" y="158" type="curve" smooth="yes"/>
      <point x="649" y="158"/>
      <point x="646" y="163"/>
      <point x="646" y="174" type="curve" smooth="yes"/>
      <point x="646" y="179"/>
      <point x="647" y="186"/>
      <point x="648" y="193" type="curve" smooth="yes"/>
      <point x="728" y="715" type="line"/>
      <point x="660" y="734"/>
      <point x="587" y="750"/>
      <point x="525" y="750" type="curve" smooth="yes"/>
      <point x="478" y="750"/>
      <point x="438" y="740"/>
      <point x="406" y="720" type="curve"/>
      <point x="366" y="741"/>
      <point x="318" y="750"/>
      <point x="274" y="750" type="curve" smooth="yes"/>
      <point x="170" y="750"/>
      <point x="107" y="676"/>
      <point x="83" y="529" type="curve"/>
      <point x="44" y="522" type="line"/>
      <point x="20" y="379" type="line"/>
      <point x="59" y="379" type="line"/>
      <point x="0" y="2" type="line" smooth="yes"/>
      <point x="-7" y="-40"/>
      <point x="-22" y="-52"/>
      <point x="-41" y="-52" type="curve" smooth="yes"/>
      <point x="-48" y="-52"/>
      <point x="-58" y="-52"/>
      <point x="-72" y="-47" type="curve"/>
      <point x="-119" y="-202" type="line"/>
      <point x="-88" y="-214"/>
      <point x="-59" y="-220"/>
    </contour>
    <contour>
      <point x="245" y="529" type="line"/>
      <point x="253" y="590"/>
      <point x="269" y="607"/>
      <point x="292" y="607" type="curve" smooth="yes"/>
      <point x="303" y="607"/>
      <point x="313" y="605"/>
      <point x="322" y="600" type="curve"/>
      <point x="315" y="576"/>
      <point x="308" y="556"/>
      <point x="305" y="529" type="curve"/>
    </contour>
  </outline>
</glyph>
<glyph name="f_t.liga" format="2">
  <advance width="496"/>
  <outline>
    <contour>
      <point x="-31" y="-220" type="curve" smooth="yes"/>
      <point x="83" y="-220"/>
      <point x="137" y="-151"/>
      <point x="161" y="0" type="curve" smooth="yes"/>
      <point x="221" y="380" type="line"/>
      <point x="298" y="380" type="line"/>
      <point x="263" y="175" type="line" smooth="yes"/>
      <point x="258" y="146"/>
      <point x="253" y="104"/>
      <point x="253" y="83" type="curve" smooth="yes"/>
      <point x="253" y="5"/>
      <point x="307" y="-10"/>
      <point x="347" y="-10" type="curve" smooth="yes"/>
      <point x="386" y="-10"/>
      <point x="419" y="-2"/>
      <point x="445" y="14" type="curve"/>
      <point x="465" y="150" type="line"/>
      <point x="457" y="148"/>
      <point x="452" y="147"/>
      <point x="447" y="147" type="curve" smooth="yes"/>
      <point x="428" y="147"/>
      <point x="423" y="157"/>
      <point x="423" y="172" type="curve" smooth="yes"/>
      <point x="423" y="179"/>
      <point x="423" y="186"/>
      <point x="425" y="195" type="curve" smooth="yes"/>
      <point x="457" y="379" type="line"/>
      <point x="505" y="379" type="line"/>
      <point x="530" y="529" type="line"/>
      <point x="484" y="529" type="line"/>
      <point x="514" y="716" type="line"/>
      <point x="446" y="735"/>
      <point x="367" y="750"/>
      <point x="313" y="750" type="curve" smooth="yes"/>
      <point x="176" y="750"/>
      <point x="106" y="677"/>
      <point x="83" y="530" type="curve"/>
      <point x="44" y="523" type="line"/>
      <point x="20" y="380" type="line"/>
      <point x="59" y="380" type="line"/>
      <point x="0" y="2" type="line" smooth="yes"/>
      <point x="-7" y="-40"/>
      <point x="-22" y="-52"/>
      <point x="-41" y="-52" type="curve" smooth="yes"/>
      <point x="-48" y="-52"/>
      <point x="-58" y="-52"/>
      <point x="-72" y="-47" type="curve"/>
      <point x="-119" y="-202" type="line"/>
      <point x="-88" y="-214"/>
      <point x="-59" y="-220"/>
    </contour>
    <contour>
      <point x="245" y="530" type="line"/>
      <point x="259" y="600"/>
      <point x="271" y="610"/>
      <point x="302" y="610" type="curve" smooth="yes"/>
      <point x="313" y="610"/>
      <point x="324" y="607"/>
      <point x="342" y="601" type="curve"/>
      <point x="326" y="530" type="line"/>
    </contour>
  </outline>
</glyph>
<glyph name="g.superior" format="2">
  <advance width="255"/>
  <outline>
    <contour>
      <point x="114" y="347" type="curve" smooth="yes"/>
      <point x="106" y="347"/>
      <point x="91" y="349"/>
      <point x="67" y="360" type="curve"/>
      <point x="36" y="265" type="line"/>
      <point x="71" y="247"/>
      <point x="105" y="244"/>
      <point x="125" y="244" type="curve" smooth="yes"/>
      <point x="190" y="244"/>
      <point x="239" y="283"/>
      <point x="253" y="372" type="curve" smooth="yes"/>
      <point x="300" y="676" type="line"/>
      <point x="282" y="683"/>
      <point x="242" y="690"/>
      <point x="206" y="690" type="curve" smooth="yes"/>
      <point x="95" y="690"/>
      <point x="44" y="588"/>
      <point x="44" y="465" type="curve" smooth="yes"/>
      <point x="44" y="420"/>
      <point x="64" y="381"/>
      <point x="108" y="381" type="curve" smooth="yes"/>
      <point x="119" y="381"/>
      <point x="134" y="384"/>
      <point x="149" y="393" type="curve"/>
      <point x="147" y="380" type="line" smooth="yes"/>
      <point x="143" y="354"/>
      <point x="126" y="347"/>
    </contour>
    <contour>
      <point x="182" y="599" type="curve"/>
      <point x="160" y="460" type="line"/>
      <point x="158" y="459"/>
      <point x="154" y="458"/>
      <point x="153" y="458" type="curve" smooth="yes"/>
      <point x="148" y="458"/>
      <point x="147" y="462"/>
      <point x="147" y="470" type="curve" smooth="yes"/>
      <point x="147" y="478"/>
      <point x="162" y="600"/>
      <point x="178" y="600" type="curve" smooth="yes"/>
      <point x="179" y="600"/>
      <point x="180" y="600"/>
    </contour>
  </outline>
</glyph>
<glyph name="h.superior" format="2">
  <advance width="268"/>
  <outline>
    <contour>
      <point x="187" y="576" type="curve" smooth="yes"/>
      <point x="187" y="567"/>
      <point x="164" y="437"/>
      <point x="164" y="416" type="curve" smooth="yes"/>
      <point x="164" y="388"/>
      <point x="185" y="364"/>
      <point x="219" y="364" type="curve" smooth="yes"/>
      <point x="235" y="364"/>
      <point x="263" y="370"/>
      <point x="275" y="378" type="curve"/>
      <point x="288" y="460" type="line"/>
      <point x="286" y="460"/>
      <point x="285" y="460"/>
      <point x="283" y="460" type="curve" smooth="yes"/>
      <point x="279" y="460"/>
      <point x="276" y="461"/>
      <point x="276" y="465" type="curve" smooth="yes"/>
      <point x="276" y="470"/>
      <point x="303" y="621"/>
      <point x="303" y="637" type="curve" smooth="yes"/>
      <point x="303" y="671"/>
      <point x="277" y="690"/>
      <point x="245" y="690" type="curve" smooth="yes"/>
      <point x="225" y="690"/>
      <point x="207" y="683"/>
      <point x="186" y="666" type="curve"/>
      <point x="205" y="792" type="line"/>
      <point x="99" y="792" type="line"/>
      <point x="32" y="370" type="line"/>
      <point x="139" y="370" type="line"/>
      <point x="172" y="578" type="line"/>
      <point x="176" y="580"/>
      <point x="179" y="582"/>
      <point x="182" y="582" type="curve" smooth="yes"/>
      <point x="186" y="582"/>
      <point x="187" y="579"/>
    </contour>
  </outline>
</glyph>
<glyph name="hbar.sc" format="2">
	<advance width="434"/>
	<outline>
		<contour>
			<point x="51" y="588" type="line"/>
			<point x="27" y="448" type="line"/>
			<point x="62" y="448" type="line"/>
			<point x="-10" y="0" type="line"/>
			<point x="153" y="0" type="line"/>
			<point x="187" y="216" type="line"/>
			<point x="225" y="216" type="line"/>
			<point x="192" y="0" type="line"/>
			<point x="354" y="0" type="line"/>
			<point x="425" y="448" type="line"/>
			<point x="460" y="448" type="line"/>
			<point x="484" y="588" type="line"/>
			<point x="447" y="588" type="line"/>
			<point x="453" y="625" type="line"/>
			<point x="290" y="625" type="line"/>
			<point x="284" y="588" type="line"/>
			<point x="246" y="588" type="line"/>
			<point x="252" y="625" type="line"/>
			<point x="90" y="625" type="line"/>
			<point x="84" y="588" type="line"/>
		</contour>
		<contour>
			<point x="208" y="354" type="line"/>
			<point x="223" y="448" type="line"/>
			<point x="262" y="448" type="line"/>
			<point x="247" y="354" type="line"/>
		</contour>
	</outline>
</glyph>
<glyph name="i.sc" format="2">
  <advance width="209"/>
  <anchor x="142" y="0" name="ogonek"/>
  <anchor x="61.444" y="0" name="bottom"/>
  <anchor x="160" y="625" name="top"/>
  <outline>
    <contour>
      <point x="-21" y="0" type="line"/>
      <point x="142" y="0" type="line"/>
      <point x="241" y="625" type="line"/>
      <point x="79" y="625" type="line"/>
    </contour>
  </outline>
</glyph>
<glyph name="i.sc.loclTRK" format="2">
  <advance width="209"/>
  <outline>
    <contour>
      <point x="200" y="865" type="curve" smooth="yes"/>
      <point x="120" y="865"/>
      <point x="89" y="792"/>
      <point x="89" y="723" type="curve" smooth="yes"/>
      <point x="89" y="670"/>
      <point x="115" y="644"/>
      <point x="164" y="644" type="curve" smooth="yes"/>
      <point x="245" y="644"/>
      <point x="275" y="719"/>
      <point x="275" y="787" type="curve" smooth="yes"/>
      <point x="275" y="840"/>
      <point x="248" y="865"/>
    </contour>
    <contour>
      <point x="-21" y="0" type="line"/>
      <point x="142" y="0" type="line"/>
      <point x="241" y="625" type="line"/>
      <point x="79" y="625" type="line"/>
    </contour>
  </outline>
</glyph>
<glyph name="i.superior" format="2">
	<advance width="145"/>
	<outline>
		<contour>
			<point x="31" y="370" type="line"/>
			<point x="139" y="370" type="line"/>
			<point x="189" y="683" type="line"/>
			<point x="81" y="683" type="line"/>
		</contour>
		<contour>
			<point x="204" y="774" type="curve" smooth="yes"/>
			<point x="204" y="804"/>
			<point x="183" y="818"/>
			<point x="156" y="818" type="curve" smooth="yes"/>
			<point x="110" y="818"/>
			<point x="88" y="777"/>
			<point x="88" y="737" type="curve" smooth="yes"/>
			<point x="88" y="707"/>
			<point x="107" y="692"/>
			<point x="135" y="692" type="curve" smooth="yes"/>
			<point x="181" y="692"/>
			<point x="204" y="735"/>
		</contour>
	</outline>
</glyph>
<glyph name="j.short" format="2">
	<advance width="202"/>
	<note>
		idem /i
12
  </note>
	<outline>
		<contour>
			<point x="185" y="790" type="curve" smooth="yes"/>
			<point x="105" y="790"/>
			<point x="74" y="717"/>
			<point x="74" y="648" type="curve" smooth="yes"/>
			<point x="74" y="595"/>
			<point x="101" y="569"/>
			<point x="150" y="569" type="curve" smooth="yes"/>
			<point x="230" y="569"/>
			<point x="260" y="644"/>
			<point x="260" y="712" type="curve" smooth="yes"/>
			<point x="260" y="765"/>
			<point x="233" y="790"/>
		</contour>
		<contour>
			<point x="227" y="550" type="line"/>
			<point x="64" y="550" type="line"/>
			<point x="-25" y="-2" type="line" smooth="yes"/>
			<point x="-32" y="-45"/>
			<point x="-41" y="-54"/>
			<point x="-58" y="-54" type="curve" smooth="yes"/>
			<point x="-61" y="-54"/>
			<point x="-65" y="-53"/>
			<point x="-67" y="-52" type="curve"/>
			<point x="-103" y="-214" type="line"/>
			<point x="-74" y="-219"/>
			<point x="-58" y="-220"/>
			<point x="-46" y="-220" type="curve" smooth="yes"/>
			<point x="68" y="-220"/>
			<point x="114" y="-152"/>
			<point x="139" y="5" type="curve" smooth="yes"/>
		</contour>
	</outline>
</glyph>
<glyph name="j.superior" format="2">
	<advance width="171"/>
	<outline>
		<contour>
			<point x="219" y="683" type="line"/>
			<point x="111" y="683" type="line"/>
			<point x="64" y="387" type="line" smooth="yes"/>
			<point x="60" y="363"/>
			<point x="52" y="353"/>
			<point x="42" y="353" type="curve" smooth="yes"/>
			<point x="37" y="353"/>
			<point x="33" y="353"/>
			<point x="26" y="356" type="curve"/>
			<point x="-2" y="253" type="line"/>
			<point x="15" y="246"/>
			<point x="39" y="244"/>
			<point x="52" y="244" type="curve" smooth="yes"/>
			<point x="117" y="244"/>
			<point x="155" y="283"/>
			<point x="169" y="372" type="curve" smooth="yes"/>
		</contour>
		<contour>
			<point x="234" y="774" type="curve" smooth="yes"/>
			<point x="234" y="804"/>
			<point x="213" y="818"/>
			<point x="186" y="818" type="curve" smooth="yes"/>
			<point x="140" y="818"/>
			<point x="118" y="777"/>
			<point x="118" y="737" type="curve" smooth="yes"/>
			<point x="118" y="707"/>
			<point x="137" y="692"/>
			<point x="165" y="692" type="curve" smooth="yes"/>
			<point x="211" y="692"/>
			<point x="234" y="735"/>
		</contour>
	</outline>
</glyph>
<glyph name="k.sc" format="2">
  <advance width="428"/>
  <anchor x="277" y="625" name="top"/>
  <anchor x="188" y="0" name="bottom"/>
  <outline>
    <contour>
      <point x="-21" y="0" type="line"/>
      <point x="142" y="0" type="line"/>
      <point x="242" y="625" type="line"/>
      <point x="80" y="625" type="line"/>
    </contour>
    <contour>
      <point x="307" y="-10" type="curve" smooth="yes"/>
      <point x="328" y="-10"/>
      <point x="359" y="-1"/>
      <point x="368" y="3" type="curve"/>
      <point x="388" y="202" type="line"/>
      <point x="383" y="202"/>
      <point x="377" y="202"/>
      <point x="372" y="202" type="curve" smooth="yes"/>
      <point x="347" y="202"/>
      <point x="326" y="208"/>
      <point x="304" y="248" type="curve" smooth="yes"/>
      <point x="198" y="443" type="line"/>
      <point x="158" y="204" type="line"/>
      <point x="219" y="58" type="line" smooth="yes"/>
      <point x="237" y="14"/>
      <point x="266" y="-10"/>
    </contour>
    <contour>
      <point x="256" y="233" type="line"/>
      <point x="365" y="341"/>
      <point x="452" y="454"/>
      <point x="478" y="583" type="curve"/>
      <point x="328" y="625" type="line"/>
      <point x="311" y="526"/>
      <point x="256" y="425"/>
      <point x="193" y="373" type="curve"/>
    </contour>
  </outline>
</glyph>
<glyph name="l.sc" format="2">
  <advance width="320"/>
  <anchor x="132" y="0" name="bottom"/>
  <anchor x="157" y="625" name="top"/>
  <anchor x="263" y="625" name="topright"/>
  <anchor x="157" y="313" name="center"/>
  <outline>
    <contour>
      <point x="-21" y="0" type="line"/>
      <point x="266" y="0" type="line"/>
      <point x="288" y="141" type="line"/>
      <point x="165" y="141" type="line"/>
      <point x="241" y="625" type="line"/>
      <point x="79" y="625" type="line"/>
    </contour>
  </outline>
</glyph>
<glyph name="ldot.sc" format="2">
  <advance width="320"/>
  <outline>
    <contour>
      <point x="218" y="326" type="curve" smooth="yes"/>
      <point x="218" y="293"/>
      <point x="232" y="277"/>
      <point x="265" y="277" type="curve" smooth="yes"/>
      <point x="319" y="277"/>
      <point x="335" y="338"/>
      <point x="335" y="379" type="curve" smooth="yes"/>
      <point x="335" y="412"/>
      <point x="321" y="428"/>
      <point x="288" y="428" type="curve" smooth="yes"/>
      <point x="234" y="428"/>
      <point x="218" y="368"/>
    </contour>
    <component base="l.sc"/>
  </outline>
</glyph>
<glyph name="lslash.sc" format="2">
  <advance width="337"/>
  <outline>
    <contour>
      <point x="-12" y="200" type="line"/>
      <point x="30" y="217" type="line"/>
      <point x="-5" y="0" type="line"/>
      <point x="283" y="0" type="line"/>
      <point x="305" y="141" type="line"/>
      <point x="181" y="141" type="line"/>
      <point x="205" y="292" type="line"/>
      <point x="282" y="325" type="line"/>
      <point x="309" y="476" type="line"/>
      <point x="229" y="443" type="line"/>
      <point x="258" y="625" type="line"/>
      <point x="95" y="625" type="line"/>
      <point x="55" y="374" type="line"/>
      <point x="14" y="358" type="line"/>
    </contour>
  </outline>
</glyph>
<glyph name="m.sc" format="2">
  <advance width="506"/>
  <outline>
    <contour>
      <point x="-21" y="0" type="line"/>
      <point x="132" y="0" type="line"/>
      <point x="186" y="342" type="line"/>
      <point x="189" y="119" type="line"/>
      <point x="262" y="119" type="line"/>
      <point x="345" y="360" type="line"/>
      <point x="287" y="0" type="line"/>
      <point x="439" y="0" type="line"/>
      <point x="538" y="625" type="line"/>
      <point x="354" y="625" type="line"/>
      <point x="265" y="372" type="line"/>
      <point x="255" y="625" type="line"/>
      <point x="79" y="625" type="line"/>
    </contour>
  </outline>
</glyph>
<glyph name="n.sc" format="2">
  <advance width="426"/>
  <anchor x="259" y="625" name="top"/>
  <anchor x="170" y="0" name="bottom"/>
  <outline>
    <contour>
      <point x="-21" y="0" type="line"/>
      <point x="122" y="0" type="line"/>
      <point x="166" y="275" type="line"/>
      <point x="194" y="0" type="line"/>
      <point x="358" y="0" type="line"/>
      <point x="458" y="625" type="line"/>
      <point x="315" y="625" type="line"/>
      <point x="268" y="341" type="line"/>
      <point x="239" y="625" type="line"/>
      <point x="78" y="625" type="line"/>
    </contour>
  </outline>
</glyph>
<glyph name="numbersign.tosf" format="2">
	<advance width="420"/>
	<outline>
		<contour>
			<point x="162" y="0" type="line"/>
			<point x="272" y="0" type="line"/>
			<point x="288" y="72" type="line"/>
			<point x="335" y="72" type="line"/>
			<point x="360" y="231" type="line"/>
			<point x="323" y="231" type="line"/>
			<point x="339" y="301" type="line"/>
			<point x="380" y="301" type="line"/>
			<point x="406" y="462" type="line"/>
			<point x="374" y="462" type="line"/>
			<point x="394" y="550" type="line"/>
			<point x="284" y="550" type="line"/>
			<point x="264" y="462" type="line"/>
			<point x="239" y="462" type="line"/>
			<point x="259" y="550" type="line"/>
			<point x="149" y="550" type="line"/>
			<point x="129" y="462" type="line"/>
			<point x="84" y="462" type="line"/>
			<point x="58" y="301" type="line"/>
			<point x="94" y="301" type="line"/>
			<point x="78" y="231" type="line"/>
			<point x="38" y="231" type="line"/>
			<point x="13" y="72" type="line"/>
			<point x="43" y="72" type="line"/>
			<point x="27" y="0" type="line"/>
			<point x="137" y="0" type="line"/>
			<point x="153" y="72" type="line"/>
			<point x="178" y="72" type="line"/>
		</contour>
		<contour>
			<point x="204" y="301" type="line"/>
			<point x="229" y="301" type="line"/>
			<point x="213" y="231" type="line"/>
			<point x="188" y="231" type="line"/>
		</contour>
	</outline>
</glyph>
<glyph name="oe.sc" format="2">
  <advance width="545"/>
  <outline>
    <contour>
      <point x="483" y="0" type="line"/>
      <point x="505" y="141" type="line"/>
      <point x="365" y="141" type="line"/>
      <point x="382" y="247" type="line"/>
      <point x="490" y="247" type="line"/>
      <point x="512" y="379" type="line"/>
      <point x="403" y="379" type="line"/>
      <point x="419" y="481" type="line"/>
      <point x="549" y="481" type="line"/>
      <point x="574" y="625" type="line"/>
      <point x="374" y="625" type="line"/>
      <point x="345" y="628"/>
      <point x="309" y="631"/>
      <point x="272" y="631" type="curve" smooth="yes"/>
      <point x="102" y="631"/>
      <point x="11" y="403"/>
      <point x="11" y="173" type="curve" smooth="yes"/>
      <point x="11" y="21"/>
      <point x="91" y="-10"/>
      <point x="197" y="-10" type="curve" smooth="yes"/>
      <point x="242" y="-10"/>
      <point x="282" y="-9"/>
      <point x="337" y="0" type="curve"/>
    </contour>
    <contour>
      <point x="203" y="134" type="line"/>
      <point x="199" y="133"/>
      <point x="196" y="132"/>
      <point x="189" y="132" type="curve" smooth="yes"/>
      <point x="175" y="132"/>
      <point x="170" y="143"/>
      <point x="170" y="163" type="curve" smooth="yes"/>
      <point x="170" y="264"/>
      <point x="210" y="498"/>
      <point x="248" y="498" type="curve" smooth="yes"/>
      <point x="254" y="498"/>
      <point x="257" y="497"/>
      <point x="260" y="496" type="curve"/>
    </contour>
  </outline>
</glyph>
<glyph name="one.lf" format="2">
	<advance width="266"/>
	<outline>
		<contour>
			<point x="201" y="0" type="line"/>
			<point x="313" y="700" type="line"/>
			<point x="232" y="700" type="line"/>
			<point x="52" y="650" type="line"/>
			<point x="52" y="465" type="line"/>
			<point x="116" y="480" type="line"/>
			<point x="37" y="0" type="line"/>
		</contour>
	</outline>
</glyph>
<glyph name="one.osf" format="2">
	<advance width="272"/>
	<outline>
		<contour>
			<point x="202" y="0" type="line"/>
			<point x="289" y="550" type="line"/>
			<point x="208" y="550" type="line"/>
			<point x="28" y="500" type="line"/>
			<point x="28" y="315" type="line"/>
			<point x="92" y="330" type="line"/>
			<point x="39" y="0" type="line"/>
		</contour>
	</outline>
</glyph>
<glyph name="oslash.sc" format="2">
	<advance width="415"/>
	<anchor x="271" y="625" name="top"/>
	<outline>
		<contour>
			<point x="411" y="631" type="line"/>
			<point x="-49" y="0" type="line"/>
			<point x="15" y="0" type="line"/>
			<point x="475" y="631" type="line"/>
		</contour>
		<contour>
			<point x="178" y="-10" type="curve" smooth="yes"/>
			<point x="357" y="-10"/>
			<point x="413" y="241"/>
			<point x="413" y="447" type="curve" smooth="yes"/>
			<point x="413" y="568"/>
			<point x="367" y="634"/>
			<point x="250" y="634" type="curve" smooth="yes"/>
			<point x="66" y="634"/>
			<point x="15" y="383"/>
			<point x="15" y="177" type="curve" smooth="yes"/>
			<point x="15" y="56"/>
			<point x="61" y="-10"/>
		</contour>
		<contour>
			<point x="184" y="134" type="curve" smooth="yes"/>
			<point x="170" y="134"/>
			<point x="167" y="141"/>
			<point x="167" y="166" type="curve" smooth="yes"/>
			<point x="167" y="232"/>
			<point x="202" y="490"/>
			<point x="245" y="490" type="curve" smooth="yes"/>
			<point x="257" y="490"/>
			<point x="261" y="484"/>
			<point x="261" y="464" type="curve" smooth="yes"/>
			<point x="261" y="385"/>
			<point x="224" y="134"/>
		</contour>
	</outline>
</glyph>
<glyph name="p.superior" format="2">
  <advance width="252"/>
  <outline>
    <contour>
      <point x="181" y="683" type="line"/>
      <point x="81" y="683" type="line"/>
      <point x="14" y="250" type="line"/>
      <point x="120" y="250" type="line"/>
      <point x="138" y="367" type="line"/>
      <point x="143" y="366"/>
      <point x="156" y="364"/>
      <point x="162" y="364" type="curve" smooth="yes"/>
      <point x="239" y="364"/>
      <point x="291" y="469"/>
      <point x="291" y="601" type="curve" smooth="yes"/>
      <point x="291" y="638"/>
      <point x="282" y="690"/>
      <point x="236" y="690" type="curve" smooth="yes"/>
      <point x="211" y="690"/>
      <point x="194" y="677"/>
      <point x="182" y="667" type="curve"/>
    </contour>
    <contour>
      <point x="174" y="592" type="line"/>
      <point x="175" y="593"/>
      <point x="179" y="594"/>
      <point x="181" y="594" type="curve" smooth="yes"/>
      <point x="185" y="594"/>
      <point x="187" y="592"/>
      <point x="187" y="582" type="curve" smooth="yes"/>
      <point x="187" y="569"/>
      <point x="170" y="449"/>
      <point x="157" y="449" type="curve" smooth="yes"/>
      <point x="156" y="449"/>
      <point x="154" y="449"/>
      <point x="151" y="451" type="curve"/>
    </contour>
  </outline>
</glyph>
